<svg id="Ebene_1" data-name="Ebene 1" xmlns="http://www.w3.org/2000/svg" xmlns:xlink="http://www.w3.org/1999/xlink" viewBox="0 0 85 43"><defs><style>.cls-1{fill:none;}.cls-2,.cls-5{fill:#fff;}.cls-3{clip-path:url(#clip-path);}.cls-4{opacity:0.05;}.cls-5{stroke:#000;stroke-miterlimit:10;stroke-width:3px;}.cls-6{font-size:40px;font-family:MyriadPro-Regular, Myriad Pro;}.cls-7{fill:#4d8814;}</style><clipPath id="clip-path"><rect class="cls-1" width="85" height="43"/></clipPath></defs><title>nachnahme</title><g id="Ebene_2" data-name="Ebene 2"><rect class="cls-2" width="85" height="43"/></g><g class="cls-3"><g class="cls-4"><rect class="cls-5" x="48.24" y="6.67" width="42.07" height="78.92" transform="matrix(0.96, -0.27, 0.27, 0.96, -9.96, 20.65)"/><path d="M64.6,29.73A17.1,17.1,0,0,1,82.53,35.4L75,9,44.66,17.59l7.61,26.84A17.1,17.1,0,0,1,64.6,29.73Z"/><text class="cls-6" transform="translate(53.57 37.32) rotate(74.16)">€</text><rect class="cls-5" x="36.33" y="5.71" width="42.07" height="78.92" transform="translate(-15.04 35.76) rotate(-30.81)"/><path d="M48.62,30.53a17.1,17.1,0,0,1,18.78.84L53.33,7.79,26.22,24l14.29,24A17.08,17.08,0,0,1,48.62,30.53Z"/><path d="M74.32,43A17.09,17.09,0,0,1,47,58.77l14.29,24L88.38,66.56Z"/><text class="cls-6" transform="translate(39.85 40.74) rotate(59.19)">€</text><rect class="cls-5" x="26.51" y="7.53" width="42.07" height="78.92" transform="translate(-19.24 49.96) rotate(-47.21)"/><path d="M35,35.42a17.08,17.08,0,0,1,18.25-4.5L33.12,12.26,11.67,35.43l20.47,19A17.07,17.07,0,0,1,35,35.42Z"/><path d="M63.18,40.09A17.09,17.09,0,0,1,41.42,63l20.47,19L83.34,58.75Z"/><text class="cls-6" transform="matrix(0.73, 0.68, -0.68, 0.73, 29.62, 47.65)">€</text></g></g><path class="cls-7" d="M17.08,25H15.81l-3.35-5.15a3,3,0,0,1-.21-.4h0a6.5,6.5,0,0,1,0,1V25H11.14V18h1.35l3.24,5,.26.43h0a6.47,6.47,0,0,1-.05-.94V18h1.12Z"/><path class="cls-7" d="M24.56,25H23.29l-.63-1.78H19.9L19.3,25H18l2.62-7H22Zm-2.21-2.73-1-2.79a3,3,0,0,1-.09-.44h0a2.66,2.66,0,0,1-.1.44l-1,2.79Z"/><path class="cls-7" d="M30.27,24.71a4.32,4.32,0,0,1-2,.41,3.21,3.21,0,0,1-2.44-1,3.53,3.53,0,0,1-.92-2.53,3.66,3.66,0,0,1,1-2.71,3.54,3.54,0,0,1,2.61-1,4.35,4.35,0,0,1,1.69.29v1.15a3.05,3.05,0,0,0-1.57-.42,2.48,2.48,0,0,0-1.84.73,2.66,2.66,0,0,0-.71,1.94,2.57,2.57,0,0,0,.66,1.85,2.33,2.33,0,0,0,1.74.68,3.06,3.06,0,0,0,1.72-.47Z"/><path class="cls-7" d="M37.22,25H36.05V22H32.76v3H31.59V18h1.17v2.94h3.29V18h1.17Z"/><path class="cls-7" d="M44.89,25H43.62l-3.35-5.15a3,3,0,0,1-.21-.4h0a6.5,6.5,0,0,1,0,1V25H39V18H40.3l3.23,5c.14.21.23.36.27.43h0a5.27,5.27,0,0,1,0-.94V18h1.12Z"/><path class="cls-7" d="M52.37,25H51.1l-.63-1.78H47.71L47.11,25H45.84l2.62-7h1.31Zm-2.21-2.73-1-2.79a4.49,4.49,0,0,1-.1-.44h0a2.79,2.79,0,0,1-.09.44l-1,2.79Z"/><path class="cls-7" d="M59,25H57.79V22h-3.3v3H53.33V18h1.16v2.94h3.3V18H59Z"/><path class="cls-7" d="M68.21,25H67.05V20.47c0-.37,0-.83.07-1.36h0a4.41,4.41,0,0,1-.19.66L64.82,25H64l-2.09-5.19a5.78,5.78,0,0,1-.19-.7h0c0,.28,0,.73,0,1.37V25H60.69V18h1.63l1.84,4.66c.14.36.23.63.28.8h0c.12-.36.22-.64.29-.82L66.63,18h1.58Z"/><path class="cls-7" d="M73.86,25H69.93V18H73.7v1H71.09v2H73.5v1H71.09V24h2.77Z"/></svg>