<svg id="Ebene_1" data-name="Ebene 1" xmlns="http://www.w3.org/2000/svg" viewBox="0 0 85 43"><defs><style>.cls-1{fill:#fff;}</style></defs><title>Zeichenfläche 1</title><g id="Ebene_2" data-name="Ebene 2"><rect class="cls-1" width="85" height="43"/></g><path d="M20.05,10.72a4.35,4.35,0,0,1-3.48,1.65,4.91,4.91,0,0,1,1.24-3.61A5.17,5.17,0,0,1,21.27,7a5.21,5.21,0,0,1-1.22,3.74m1.2,1.91c-1.92-.11-3.56,1.09-4.47,1.09s-2.32-1-3.84-1a5.7,5.7,0,0,0-4.83,2.93C6,19.21,7.57,24.49,9.58,27.39c1,1.43,2.15,3,3.7,2.95s2.05-.95,3.81-.95,2.3.95,3.85.93,2.61-1.44,3.59-2.88a12.28,12.28,0,0,0,1.6-3.3A5.22,5.22,0,0,1,23,19.4,5.3,5.3,0,0,1,25.54,15a5.44,5.44,0,0,0-4.29-2.32m11.1-4V30.17H35.7V22.8h4.63a6.84,6.84,0,0,0,7.2-7.1,6.76,6.76,0,0,0-7.09-7.08Zm3.35,2.82h3.85c2.9,0,4.56,1.55,4.56,4.27S42.45,20,39.54,20H35.7ZM53.63,30.33a5.53,5.53,0,0,0,4.94-2.75h.07v2.59h3.09V19.44c0-3.11-2.48-5.11-6.31-5.11-3.55,0-6.18,2-6.28,4.82h3A2.92,2.92,0,0,1,55.32,17c2,0,3.19,1,3.19,2.71v1.19l-4.17.25c-3.88.23-6,1.82-6,4.59S50.53,30.33,53.63,30.33Zm.9-2.56c-1.78,0-2.91-.85-2.91-2.17s1.09-2.14,3.18-2.26l3.71-.24v1.22C58.51,26.34,56.8,27.77,54.53,27.77ZM65.87,36c3.26,0,4.79-1.24,6.13-5l5.88-16.48h-3.4L70.54,27.26h-.07L66.53,14.53H63L68.7,30.22l-.31,1c-.51,1.62-1.34,2.24-2.81,2.24-.27,0-.78,0-1,0v2.58A8.71,8.71,0,0,0,65.87,36Z"/></svg>