<svg id="Ebene_1" data-name="Ebene 1" xmlns="http://www.w3.org/2000/svg" viewBox="0 0 85 43"><defs><style>.cls-1{fill:#fff;}.cls-2{fill:#333;}.cls-3{fill:#359800;}</style></defs><title>Zeichenfläche 1</title><g id="Ebene_2" data-name="Ebene 2"><rect class="cls-1" width="85" height="43"/></g><rect class="cls-2" x="18.75" y="19.18" width="3.11" height="9.45"/><rect class="cls-2" x="23.62" y="15.16" width="3.11" height="13.48"/><rect class="cls-2" x="28.55" y="15.16" width="3.11" height="13.48"/><path class="cls-3" d="M16.84,14.6c-.8-.69-.34-1,.39-1.08a2.65,2.65,0,0,1,2.22.83c.56.54.76,1.15,1,1.15s1.17-2.32,3-4.83,3.13-4,3.71-4.15a11.59,11.59,0,0,1,2.12-.29,24.44,24.44,0,0,0-4.39,4.95A27,27,0,0,0,21.57,17c-.53,1.17-1.36,1.19-1.85.75S18,15.62,16.84,14.6Z"/><polygon class="cls-3" points="68.28 17.86 68.28 15.11 58.83 15.11 58.83 28.64 62.13 28.64 62.13 23.56 67.73 23.56 67.73 20.91 62.13 20.91 62.13 17.86 68.28 17.86"/><polygon class="cls-3" points="79.09 25.94 72.66 25.94 72.66 22.91 78.6 22.91 78.6 20.68 72.66 20.68 72.66 17.86 79 17.86 79 15.11 69.37 15.11 69.37 28.64 72.66 28.64 72.66 28.64 79.09 28.64 79.09 25.94"/><path class="cls-3" d="M54.48,28.61h3.41l-4.1-13.37H48.51l-4,13.4H48l.69-2.36h5.18Zm-5.14-4.75,1.94-6.66,1.86,6.66Z"/><path class="cls-3" d="M33.08,24.52h3.11S36,26.09,38,26.09s3.16.15,3.16-1.44-.82-1.45-2.29-1.45-3.76-.13-4.66-.7-1.17-1.7-1.17-3.32,0-3.55,2.89-3.93,6.64-.18,7.54.9a4.62,4.62,0,0,1,.64,3.05H40.9v-.44c0-.36-.26-1-1.47-1h-2c-.57,0-1.1.49-1.1,1.37s.49,1.33,1.74,1.37a17.64,17.64,0,0,1,5,.53c1.19.49,1.46,1.7,1.46,3.47s-.44,3.61-2.49,4a22.71,22.71,0,0,1-6.26,0C34.18,28.36,33.08,27.32,33.08,24.52Z"/><path class="cls-2" d="M15.13,21.83v-.15c1.63-.19,2.13-1.13,2.13-3.34,0-2.88-2.29-3.18-4.62-3.18H5.91V28.64h6.91c3.52,0,4.49-.76,4.61-4S15.13,21.83,15.13,21.83Zm-2.3-3.74a.82.82,0,0,1,.81.82v.77a.88.88,0,0,1-.81.89H9.5l0-2.47Zm1,6.68a.89.89,0,0,1-.82.89H9.5l0-2.61H13a.82.82,0,0,1,.82.81Z"/></svg>