<svg xmlns="http://www.w3.org/2000/svg" xmlns:xlink="http://www.w3.org/1999/xlink" viewBox="0 0 85 43"><defs><style>.cls-1{fill:none;}.cls-2,.cls-5{fill:#fff;}.cls-3{clip-path:url(#clip-path);}.cls-4{opacity:0.05;}.cls-5{stroke:#000;stroke-miterlimit:10;stroke-width:3px;}.cls-6{font-size:40px;font-family:MyriadPro-Regular, Myriad Pro;}.cls-7{fill:#4d8814;}</style><clipPath id="clip-path"><rect class="cls-1" width="85" height="43"/></clipPath></defs><title>cashpayment</title><g id="Ebene_1" data-name="Ebene 1"><g id="Ebene_2" data-name="Ebene 2"><rect class="cls-2" width="85" height="43"/></g><g class="cls-3"><g class="cls-4"><rect class="cls-5" x="48.24" y="6.67" width="42.07" height="78.92" transform="translate(-9.96 20.65) rotate(-15.84)"/><path d="M64.6,29.73A17.1,17.1,0,0,1,82.53,35.4L75,9,44.66,17.59l7.61,26.84A17.1,17.1,0,0,1,64.6,29.73Z"/><text class="cls-6" transform="translate(53.57 37.32) rotate(74.16)">€</text><rect class="cls-5" x="36.33" y="5.71" width="42.07" height="78.92" transform="translate(-15.04 35.76) rotate(-30.81)"/><path d="M48.62,30.53a17.1,17.1,0,0,1,18.78.84L53.33,7.79,26.22,24l14.29,24A17.08,17.08,0,0,1,48.62,30.53Z"/><path d="M74.32,43A17.09,17.09,0,0,1,47,58.77l14.29,24L88.38,66.56Z"/><text class="cls-6" transform="translate(39.85 40.74) rotate(59.19)">€</text><rect class="cls-5" x="26.51" y="7.53" width="42.07" height="78.92" transform="translate(-19.24 49.96) rotate(-47.21)"/><path d="M35,35.42a17.08,17.08,0,0,1,18.25-4.5L33.12,12.26,11.67,35.43l20.47,19A17.07,17.07,0,0,1,35,35.42Z"/><path d="M63.18,40.09A17.09,17.09,0,0,1,41.42,63l20.47,19L83.34,58.75Z"/><text class="cls-6" transform="matrix(0.73, 0.68, -0.68, 0.73, 29.62, 47.65)">€</text></g></g></g><g id="Ebene_2-2" data-name="Ebene 2"><path class="cls-7" d="M11.64,24.71a4.32,4.32,0,0,1-2,.41,3.21,3.21,0,0,1-2.44-1,3.49,3.49,0,0,1-.92-2.53,3.66,3.66,0,0,1,1-2.71,3.54,3.54,0,0,1,2.61-1,4.35,4.35,0,0,1,1.69.29v1.15a3.05,3.05,0,0,0-1.57-.42,2.48,2.48,0,0,0-1.84.73,2.66,2.66,0,0,0-.71,1.94,2.57,2.57,0,0,0,.66,1.85,2.33,2.33,0,0,0,1.74.68,3.06,3.06,0,0,0,1.72-.47Z"/><path class="cls-7" d="M18.72,25H17.44l-.63-1.78H14.06L13.45,25H12.18l2.62-7h1.31ZM16.5,22.27l-1-2.79a3,3,0,0,1-.09-.44h0a2.66,2.66,0,0,1-.1.44l-1,2.79Z"/><path class="cls-7" d="M19.36,24.72V23.53a1.94,1.94,0,0,0,.38.26,3.32,3.32,0,0,0,.47.2,4.54,4.54,0,0,0,.5.12,2.58,2.58,0,0,0,.46.05,1.89,1.89,0,0,0,1.09-.25.8.8,0,0,0,.36-.71.77.77,0,0,0-.12-.43,1.19,1.19,0,0,0-.34-.33,3.3,3.3,0,0,0-.5-.29L21,21.86l-.67-.39a2.84,2.84,0,0,1-.53-.43,2,2,0,0,1-.36-.54,1.63,1.63,0,0,1-.13-.69,1.69,1.69,0,0,1,.22-.86,2,2,0,0,1,.59-.6A2.48,2.48,0,0,1,21,18a3.73,3.73,0,0,1,.94-.12,3.79,3.79,0,0,1,1.61.25v1.15A2.55,2.55,0,0,0,22,18.85a2.21,2.21,0,0,0-.51,0,1.32,1.32,0,0,0-.46.16.85.85,0,0,0-.33.29.66.66,0,0,0-.13.42.78.78,0,0,0,.1.41,1,1,0,0,0,.28.31,3.71,3.71,0,0,0,.46.28l.63.29a5.68,5.68,0,0,1,.69.4,2.94,2.94,0,0,1,.57.46,1.89,1.89,0,0,1,.39.56,1.64,1.64,0,0,1,.15.71,1.72,1.72,0,0,1-.22.9,1.64,1.64,0,0,1-.58.59,2.46,2.46,0,0,1-.83.34,5.38,5.38,0,0,1-1,.1l-.44,0a5.06,5.06,0,0,1-.52-.08,3.81,3.81,0,0,1-.51-.12A1.23,1.23,0,0,1,19.36,24.72Z"/><path class="cls-7" d="M30.75,25H29.58V22h-3.3v3H25.12V18h1.16v2.94h3.3V18h1.17Z"/><path class="cls-7" d="M36.38,22.46V25H35.22V18h2.13a2.84,2.84,0,0,1,1.87.56,2,2,0,0,1,.66,1.58,2.19,2.19,0,0,1-.69,1.67,2.61,2.61,0,0,1-1.88.65Zm0-3.5v2.55h.75a1.67,1.67,0,0,0,1.14-.34,1.24,1.24,0,0,0,.39-1c0-.82-.48-1.23-1.43-1.23Z"/><path class="cls-7" d="M46.13,25H44.86l-.63-1.78H41.47L40.87,25H39.6l2.62-7h1.31Zm-2.21-2.73-1-2.79a3,3,0,0,1-.09-.44h0a2.66,2.66,0,0,1-.1.44l-1,2.79Z"/><path class="cls-7" d="M51.22,18l-2.3,4.46V25H47.76V22.48L45.52,18h1.33l1.37,3s.07.17.15.41h0a4.12,4.12,0,0,1,.16-.41L50,18Z"/><path class="cls-7" d="M59.63,25H58.48V20.47c0-.37,0-.83.06-1.36h0a5.65,5.65,0,0,1-.2.66L56.24,25h-.8l-2.09-5.19a5.78,5.78,0,0,1-.19-.7h0c0,.28,0,.73,0,1.37V25H52.11V18h1.63l1.85,4.66a6.75,6.75,0,0,1,.27.8h0c.12-.36.22-.64.3-.82L58.05,18h1.58Z"/><path class="cls-7" d="M65.28,25H61.35V18h3.78v1H62.51v2h2.41v1H62.51V24h2.77Z"/><path class="cls-7" d="M72.47,25H71.2l-3.35-5.15a3,3,0,0,1-.21-.4h0a6.5,6.5,0,0,1,0,1V25H66.53V18h1.35l3.23,5c.14.21.23.36.27.43h0a5.27,5.27,0,0,1-.05-.94V18h1.12Z"/><path class="cls-7" d="M78.69,19h-2v6H75.52V19h-2V18h5.18Z"/></g></svg>