<svg xmlns="http://www.w3.org/2000/svg" xmlns:xlink="http://www.w3.org/1999/xlink" viewBox="0 0 85 43"><defs><style>.cls-1{fill:none;}.cls-2,.cls-5{fill:#fff;}.cls-3{clip-path:url(#clip-path);}.cls-4{opacity:0.05;}.cls-5{stroke:#000;stroke-miterlimit:10;stroke-width:3px;}.cls-6{font-size:40px;font-family:MyriadPro-Regular, Myriad Pro;}.cls-7{fill:#4d8814;}</style><clipPath id="clip-path"><rect class="cls-1" width="85" height="43"/></clipPath></defs><title>creditcard</title><g id="Ebene_1" data-name="Ebene 1"><g id="Ebene_2" data-name="Ebene 2"><rect class="cls-2" width="85" height="43"/></g><g class="cls-3"><g class="cls-4"><rect class="cls-5" x="48.24" y="6.67" width="42.07" height="78.92" transform="translate(-9.96 20.65) rotate(-15.84)"/><path d="M64.6,29.73A17.1,17.1,0,0,1,82.53,35.4L75,9,44.66,17.59l7.61,26.84A17.1,17.1,0,0,1,64.6,29.73Z"/><text class="cls-6" transform="translate(53.57 37.32) rotate(74.16)">€</text><rect class="cls-5" x="36.33" y="5.71" width="42.07" height="78.92" transform="translate(-15.04 35.76) rotate(-30.81)"/><path d="M48.62,30.53a17.1,17.1,0,0,1,18.78.84L53.33,7.79,26.22,24l14.29,24A17.08,17.08,0,0,1,48.62,30.53Z"/><path d="M74.32,43A17.09,17.09,0,0,1,47,58.77l14.29,24L88.38,66.56Z"/><text class="cls-6" transform="translate(39.85 40.74) rotate(59.19)">€</text><rect class="cls-5" x="26.51" y="7.53" width="42.07" height="78.92" transform="translate(-19.24 49.96) rotate(-47.21)"/><path d="M35,35.42a17.08,17.08,0,0,1,18.25-4.5L33.12,12.26,11.67,35.43l20.47,19A17.07,17.07,0,0,1,35,35.42Z"/><path d="M63.18,40.09A17.09,17.09,0,0,1,41.42,63l20.47,19L83.34,58.75Z"/><text class="cls-6" transform="matrix(0.73, 0.68, -0.68, 0.73, 29.62, 47.65)">€</text></g></g></g><g id="Ebene_2-2" data-name="Ebene 2"><path class="cls-7" d="M17.1,24.71a4.29,4.29,0,0,1-2,.41,3.22,3.22,0,0,1-2.44-1,3.53,3.53,0,0,1-.92-2.53,3.66,3.66,0,0,1,1-2.71,3.51,3.51,0,0,1,2.61-1,4.33,4.33,0,0,1,1.68.29v1.15a3,3,0,0,0-1.56-.42,2.49,2.49,0,0,0-1.85.73,2.66,2.66,0,0,0-.7,1.94,2.57,2.57,0,0,0,.66,1.85,2.3,2.3,0,0,0,1.73.68,3.06,3.06,0,0,0,1.72-.47Z"/><path class="cls-7" d="M23.84,25H22.48l-1.12-1.87a5.1,5.1,0,0,0-.29-.45,2.12,2.12,0,0,0-.3-.3,1.23,1.23,0,0,0-.32-.17,1.62,1.62,0,0,0-.4-.05h-.47V25H18.43V18h2.3a3.28,3.28,0,0,1,.91.12,1.86,1.86,0,0,1,.72.35,1.61,1.61,0,0,1,.48.59,1.81,1.81,0,0,1,.18.83,2.11,2.11,0,0,1-.11.68,1.77,1.77,0,0,1-.8,1,2.23,2.23,0,0,1-.65.27v0a2.24,2.24,0,0,1,.34.23l.27.27.25.31.27.4Zm-4.26-6.06v2.28h1a1.35,1.35,0,0,0,.5-.09,1,1,0,0,0,.39-.24,1,1,0,0,0,.26-.38,1.31,1.31,0,0,0,.09-.5,1,1,0,0,0-.32-.79,1.36,1.36,0,0,0-.91-.28Z"/><path class="cls-7" d="M28.58,25H24.65V18h3.78v1H25.82v2h2.4v1h-2.4V24h2.76Z"/><path class="cls-7" d="M29.83,25V18h2q3.87,0,3.87,3.41A3.4,3.4,0,0,1,34.65,24a4.14,4.14,0,0,1-2.88,1ZM31,19v5h.92a2.63,2.63,0,0,0,1.91-.67,2.59,2.59,0,0,0,.68-1.91C34.5,19.8,33.65,19,32,19Z"/><path class="cls-7" d="M38.19,25H37V18h1.19Z"/><path class="cls-7" d="M44.41,19h-2v6H41.24V19h-2V18h5.18Z"/><path class="cls-7" d="M53.07,24.71a4.32,4.32,0,0,1-2,.41,3.21,3.21,0,0,1-2.44-1,3.49,3.49,0,0,1-.92-2.53,3.66,3.66,0,0,1,1-2.71,3.54,3.54,0,0,1,2.61-1,4.35,4.35,0,0,1,1.69.29v1.15a3.05,3.05,0,0,0-1.57-.42,2.48,2.48,0,0,0-1.84.73,2.66,2.66,0,0,0-.7,1.94,2.56,2.56,0,0,0,.65,1.85,2.33,2.33,0,0,0,1.74.68,3.06,3.06,0,0,0,1.72-.47Z"/><path class="cls-7" d="M60.15,25H58.87l-.63-1.78H55.49L54.88,25H53.61l2.63-7h1.3Zm-2.22-2.73-1-2.79a3,3,0,0,1-.09-.44h0a2.66,2.66,0,0,1-.1.44l-1,2.79Z"/><path class="cls-7" d="M66.52,25H65.16L64,23.13a5.1,5.1,0,0,0-.29-.45,2.81,2.81,0,0,0-.29-.3,1.29,1.29,0,0,0-.33-.17,1.62,1.62,0,0,0-.4-.05h-.46V25H61.11V18h2.3a3.28,3.28,0,0,1,.91.12,1.86,1.86,0,0,1,.72.35,1.74,1.74,0,0,1,.49.59,2,2,0,0,1,.17.83,2.11,2.11,0,0,1-.11.68,1.74,1.74,0,0,1-.31.55,1.94,1.94,0,0,1-.49.41,2.28,2.28,0,0,1-.64.27v0a2.75,2.75,0,0,1,.33.23l.27.27.25.31.27.4Zm-4.25-6.06v2.28h1a1.35,1.35,0,0,0,.5-.09,1,1,0,0,0,.39-.24,1,1,0,0,0,.26-.38,1.31,1.31,0,0,0,.09-.5,1,1,0,0,0-.31-.79,1.4,1.4,0,0,0-.92-.28Z"/><path class="cls-7" d="M67.33,25V18h2q3.87,0,3.87,3.41A3.37,3.37,0,0,1,72.15,24a4.1,4.1,0,0,1-2.88,1Zm1.16-6v5h.93a2.64,2.64,0,0,0,1.91-.67A2.59,2.59,0,0,0,72,21.44C72,19.8,71.16,19,69.46,19Z"/></g></svg>