<svg xmlns="http://www.w3.org/2000/svg" xmlns:xlink="http://www.w3.org/1999/xlink" viewBox="0 0 85 43"><defs><style>.cls-1{fill:none;}.cls-2,.cls-5{fill:#fff;}.cls-3{clip-path:url(#clip-path);}.cls-4{opacity:0.05;}.cls-5{stroke:#000;stroke-miterlimit:10;stroke-width:3px;}.cls-6{font-size:40px;font-family:MyriadPro-Regular, Myriad Pro;}.cls-7{fill:#4d8814;}</style><clipPath id="clip-path"><rect class="cls-1" width="85" height="43"/></clipPath></defs><title>financing</title><g id="Ebene_1" data-name="Ebene 1"><g id="Ebene_2" data-name="Ebene 2"><rect class="cls-2" width="85" height="43"/></g><g class="cls-3"><g class="cls-4"><rect class="cls-5" x="48.24" y="6.67" width="42.07" height="78.92" transform="translate(-9.96 20.65) rotate(-15.84)"/><path d="M64.6,29.73A17.1,17.1,0,0,1,82.53,35.4L75,9,44.66,17.59l7.61,26.84A17.1,17.1,0,0,1,64.6,29.73Z"/><text class="cls-6" transform="translate(53.57 37.32) rotate(74.16)">€</text><rect class="cls-5" x="36.33" y="5.71" width="42.07" height="78.92" transform="translate(-15.04 35.76) rotate(-30.81)"/><path d="M48.62,30.53a17.1,17.1,0,0,1,18.78.84L53.33,7.79,26.22,24l14.29,24A17.08,17.08,0,0,1,48.62,30.53Z"/><path d="M74.32,43A17.09,17.09,0,0,1,47,58.77l14.29,24L88.38,66.56Z"/><text class="cls-6" transform="translate(39.85 40.74) rotate(59.19)">€</text><rect class="cls-5" x="26.51" y="7.53" width="42.07" height="78.92" transform="translate(-19.24 49.96) rotate(-47.21)"/><path d="M35,35.42a17.08,17.08,0,0,1,18.25-4.5L33.12,12.26,11.67,35.43l20.47,19A17.07,17.07,0,0,1,35,35.42Z"/><path d="M63.18,40.09A17.09,17.09,0,0,1,41.42,63l20.47,19L83.34,58.75Z"/><text class="cls-6" transform="matrix(0.73, 0.68, -0.68, 0.73, 29.62, 47.65)">€</text></g></g></g><g id="Ebene_2-2" data-name="Ebene 2"><path class="cls-7" d="M20.15,19H17.53v2.1H20v1H17.53V25H16.37V18h3.78Z"/><path class="cls-7" d="M22.59,25h-1.2V18h1.2Z"/><path class="cls-7" d="M30.25,25H29l-3.35-5.15a3,3,0,0,1-.21-.4h0a9.35,9.35,0,0,1,0,1V25H24.31V18h1.35l3.24,5,.26.43h0a6.47,6.47,0,0,1-.05-.94V18h1.12Z"/><path class="cls-7" d="M37.73,25H36.46l-.63-1.78H33.08L32.47,25H31.2l2.62-7h1.31Zm-2.21-2.73-1-2.79a3,3,0,0,1-.09-.44h0a2.66,2.66,0,0,1-.1.44l-1,2.79Z"/><path class="cls-7" d="M44.63,25H43.36L40,19.85a1.71,1.71,0,0,1-.21-.4h0a6.5,6.5,0,0,1,0,1V25H38.7V18h1.35l3.23,5a3.61,3.61,0,0,1,.26.43h0a6.47,6.47,0,0,1-.05-.94V18h1.12Z"/><path class="cls-7" d="M51.25,24.71a4.29,4.29,0,0,1-2,.41,3.22,3.22,0,0,1-2.44-1,3.55,3.55,0,0,1-.92-2.53,3.66,3.66,0,0,1,1-2.71,3.51,3.51,0,0,1,2.61-1,4.33,4.33,0,0,1,1.68.29v1.15a3,3,0,0,0-1.56-.42,2.45,2.45,0,0,0-1.85.73,2.66,2.66,0,0,0-.7,1.94,2.57,2.57,0,0,0,.66,1.85,2.32,2.32,0,0,0,1.73.68,3.06,3.06,0,0,0,1.72-.47Z"/><path class="cls-7" d="M53.77,25h-1.2V18h1.2Z"/><path class="cls-7" d="M61.43,25H60.16l-3.34-5.15a1.71,1.71,0,0,1-.21-.4h0a8.39,8.39,0,0,1,0,1V25H55.49V18h1.36l3.23,5c.14.21.22.36.26.43h0a6.47,6.47,0,0,1,0-.94V18h1.12Z"/><path class="cls-7" d="M68.63,24.52a5,5,0,0,1-2.44.6,3.37,3.37,0,0,1-2.51-1,3.47,3.47,0,0,1-1-2.56,3.58,3.58,0,0,1,3.72-3.71,5.1,5.1,0,0,1,2,.34v1.2a3.34,3.34,0,0,0-1.92-.54,2.46,2.46,0,0,0-1.83.74,2.61,2.61,0,0,0-.71,1.91,2.76,2.76,0,0,0,.61,1.9,2.13,2.13,0,0,0,1.67.69,2.71,2.71,0,0,0,1.25-.28V22.17H66v-1h2.63Z"/></g></svg>