<svg id="Ebene_1" data-name="Ebene 1" xmlns="http://www.w3.org/2000/svg" viewBox="0 0 85 43"><defs><style>.cls-1{fill:#fff;}.cls-2{fill:#99999a;}.cls-3{fill:#002f86;}.cls-4{fill:#009cde;}</style></defs><title>Zeichenfläche 1</title><g id="Ebene_2" data-name="Ebene 2"><rect class="cls-1" width="85" height="43"/></g><path class="cls-2" d="M42,28.26c0,.2-.07.38-.07.38h-.43l.54-3.4h.44c-.06.42-.13.83-.2,1.29a1.21,1.21,0,0,1,.7-.37,1,1,0,0,1,1.19.86A1.5,1.5,0,0,1,43,28.7.91.91,0,0,1,42,28.26Zm.12-.7v.1a.67.67,0,0,0,.92.61,1,1,0,0,0,.68-1.09.66.66,0,0,0-.76-.62A1,1,0,0,0,42.1,27.56Z"/><path class="cls-2" d="M40.36,25.23c-.06.38-.11.73-.17,1.09-.12.73-.25,1.59-.37,2.32h-.43a2.61,2.61,0,0,0,0-.31l-.09.08a1.15,1.15,0,0,1-1.23.23,1,1,0,0,1-.58-1,1.58,1.58,0,0,1,.58-1.25,1.08,1.08,0,0,1,1.59.15c0-.3.09-.59.14-.88,0-.13,0-.34.08-.47ZM38.5,28.3h.26l.12,0a1,1,0,0,0,.58-1.46.58.58,0,0,0-.54-.27A1,1,0,0,0,38,27.79.64.64,0,0,0,38.5,28.3Z"/><path class="cls-2" d="M29.64,26.23c.09.63.17,1.25.25,1.87l.51-1.17.29-.7h.46a2,2,0,0,1-.09.2l-1,2.21H29.6c-.08-.6-.17-1.19-.25-1.82l-.08.16c-.24.51-.53,1.15-.75,1.66h-.46c-.11-.8-.22-1.6-.34-2.41h.45c.07.6.13,1.22.21,1.85a.45.45,0,0,0,.07-.14c.24-.51.54-1.19.76-1.71Z"/><path class="cls-2" d="M22.4,28.62c.18-1.13.35-2.25.53-3.41a13,13,0,0,1,1.4.07c.57.08.83.55.71,1.17a1.19,1.19,0,0,1-1.21,1c-.25,0-.5,0-.76,0-.07.4-.13.8-.2,1.19ZM23.12,27c.25,0,.48,0,.71,0a.79.79,0,0,0,.74-.9.51.51,0,0,0-.44-.49c-.26,0-.52,0-.78,0C23.27,26.1,23.2,26.56,23.12,27Z"/><path class="cls-2" d="M37.3,27.59H35.45a.64.64,0,0,0,.61.74,1.5,1.5,0,0,0,1-.23l0,.37-.32.16a1.66,1.66,0,0,1-.82.08,1,1,0,0,1-.87-.9,1.47,1.47,0,0,1,1-1.61,1.75,1.75,0,0,1,.56,0,.89.89,0,0,1,.79,1C37.34,27.29,37.32,27.43,37.3,27.59Zm-1.79-.38H36.9a.54.54,0,0,0-.36-.66A.88.88,0,0,0,35.51,27.21Z"/><path class="cls-2" d="M33.28,27.59H31.44a.63.63,0,0,0,.6.74,1.48,1.48,0,0,0,1-.23l0,.37a3.45,3.45,0,0,1-.33.16,1.64,1.64,0,0,1-.82.08,1,1,0,0,1-.86-.9,1.47,1.47,0,0,1,1-1.61,1.77,1.77,0,0,1,.56,0,.88.88,0,0,1,.79,1A3.8,3.8,0,0,1,33.28,27.59Zm-1.78-.38h1.39a.55.55,0,0,0-.36-.66A.87.87,0,0,0,31.5,27.21Z"/><path class="cls-2" d="M25,27.59a1.42,1.42,0,0,1,1.69-1.41,1.06,1.06,0,0,1,.85,1.07,1.45,1.45,0,0,1-1.45,1.47A1,1,0,0,1,25,27.59Zm.45,0a.69.69,0,0,0,.34.67.72.72,0,0,0,.77,0,1,1,0,0,0,.5-1,.64.64,0,0,0-.7-.6A1,1,0,0,0,25.44,27.57Z"/><path class="cls-2" d="M44.17,29.69c.12-.21.22-.39.33-.57a2.21,2.21,0,0,0,.31-.58,1.92,1.92,0,0,0-.13-.64c-.12-.5-.25-1-.37-1.52,0,0,0-.1,0-.15h.44L45.15,28a.91.91,0,0,1,.1-.16c.26-.49.61-1.12.87-1.62h.48l-.07.15-1.88,3.3Z"/><path class="cls-2" d="M33.84,26.24h.43c0,.11,0,.22-.05.36a.85.85,0,0,1,.89-.36l-.06.37a.82.82,0,0,0-.95.82L34,28c0,.2-.06.39-.1.6h-.44c.06-.4.12-.79.19-1.19S33.78,26.65,33.84,26.24Z"/><path id="path14519" class="cls-3" d="M62,25.22H61.1a.27.27,0,0,0-.22.11l-1.24,1.83-.52-1.75a.26.26,0,0,0-.25-.19H58a.16.16,0,0,0-.15.2l1,2.91-.93,1.31a.15.15,0,0,0,.13.24h.89a.27.27,0,0,0,.22-.11l3-4.31a.15.15,0,0,0-.13-.24M56,27a1,1,0,0,1-1,.85.74.74,0,0,1-.6-.24.78.78,0,0,1-.14-.63,1,1,0,0,1,1-.86.74.74,0,0,1,.59.25A.75.75,0,0,1,56,27m1.24-1.74h-.89a.17.17,0,0,0-.16.13l0,.25-.06-.09A1.26,1.26,0,0,0,55,25.14a2.05,2.05,0,0,0-2,1.79,1.7,1.7,0,0,0,.34,1.37,1.39,1.39,0,0,0,1.12.46,1.74,1.74,0,0,0,1.24-.51l0,.24a.15.15,0,0,0,.15.18h.8a.26.26,0,0,0,.26-.22l.48-3.05a.15.15,0,0,0-.15-.18m-5.36,0c-.1.67-.61.67-1.1.67h-.29l.2-1.25a.16.16,0,0,1,.15-.13H51c.34,0,.66,0,.82.19a.61.61,0,0,1,.09.52m-.21-1.74H49.8a.26.26,0,0,0-.25.21l-.76,4.78a.16.16,0,0,0,.16.18h.89a.26.26,0,0,0,.25-.22l.2-1.29a.27.27,0,0,1,.26-.22h.59a1.91,1.91,0,0,0,2.12-1.77A1.45,1.45,0,0,0,53,24a1.71,1.71,0,0,0-1.35-.47"/><path id="path14523" class="cls-4" d="M71.59,23.63l-.77,4.86a.16.16,0,0,0,.15.18h.77a.26.26,0,0,0,.26-.22l.75-4.77a.15.15,0,0,0-.15-.18h-.86a.14.14,0,0,0-.15.13M69.29,27a1,1,0,0,1-1,.85.77.77,0,0,1-.6-.24.78.78,0,0,1-.14-.63,1,1,0,0,1,1-.86.76.76,0,0,1,.6.25.75.75,0,0,1,.15.63m1.24-1.74h-.89a.15.15,0,0,0-.15.13l0,.25-.06-.09a1.29,1.29,0,0,0-1.06-.37,2,2,0,0,0-2,1.79,1.69,1.69,0,0,0,.33,1.37,1.4,1.4,0,0,0,1.13.46A1.7,1.7,0,0,0,69,28.25l0,.24a.16.16,0,0,0,.16.18H70a.26.26,0,0,0,.26-.22l.48-3.05a.16.16,0,0,0-.16-.18m-5.35,0c-.1.67-.61.67-1.11.67h-.28l.2-1.25a.15.15,0,0,1,.15-.13h.13c.33,0,.65,0,.82.19a.65.65,0,0,1,.09.52M65,23.5H63.1a.26.26,0,0,0-.26.21l-.75,4.78a.15.15,0,0,0,.15.18h1a.18.18,0,0,0,.18-.15l.21-1.35a.26.26,0,0,1,.26-.22h.59a1.92,1.92,0,0,0,2.12-1.77A1.47,1.47,0,0,0,66.32,24,1.72,1.72,0,0,0,65,23.5"/><path class="cls-3" d="M21.52,21.53H19.71v-8h1.81Z"/><path class="cls-3" d="M30.83,21.53H29l-3.32-5.06a7.51,7.51,0,0,1-.4-.67h0c0,.29.05.72.05,1.3v4.43H23.59v-8h1.95l3.2,4.9c.14.22.28.44.4.66h0a9,9,0,0,1,0-1.11V13.48h1.71Z"/><path class="cls-3" d="M39.61,13.48l-2.78,8.05h-2l-2.74-8h2l1.68,5.6a4,4,0,0,1,.16.8h0a4,4,0,0,1,.17-.82l1.67-5.58Z"/><path class="cls-3" d="M44.18,21.67a3.77,3.77,0,0,1-2.82-1.13,4.07,4.07,0,0,1-1.09-2.93,4.34,4.34,0,0,1,1.11-3.09,3.81,3.81,0,0,1,2.93-1.18,3.67,3.67,0,0,1,2.79,1.13,4.15,4.15,0,0,1,1.06,3,4.3,4.3,0,0,1-1.1,3.06A3.8,3.8,0,0,1,44.18,21.67Zm.08-6.77a1.83,1.83,0,0,0-1.52.72,3,3,0,0,0-.56,1.89,3,3,0,0,0,.56,1.9,1.83,1.83,0,0,0,1.48.69,1.8,1.8,0,0,0,1.48-.67,2.9,2.9,0,0,0,.55-1.88,3.1,3.1,0,0,0-.53-2A1.72,1.72,0,0,0,44.26,14.9Z"/><path class="cls-3" d="M51.54,21.53H49.73v-8h1.81Z"/><path class="cls-3" d="M59.38,21.24a5.26,5.26,0,0,1-2.31.43,3.87,3.87,0,0,1-2.91-1.09,4,4,0,0,1-1.06-2.9,4.28,4.28,0,0,1,1.19-3.14,4.19,4.19,0,0,1,3.1-1.2,5.75,5.75,0,0,1,2,.3v1.75a3.47,3.47,0,0,0-1.84-.49,2.42,2.42,0,0,0-1.83.72,2.6,2.6,0,0,0-.7,1.93,2.58,2.58,0,0,0,.66,1.86,2.3,2.3,0,0,0,1.76.69,3.84,3.84,0,0,0,2-.51Z"/><path class="cls-3" d="M65.84,21.53H61v-8h4.64V15H62.82v1.79h2.64v1.48H62.82v1.84h3Z"/></svg>