<svg xmlns="http://www.w3.org/2000/svg" xmlns:xlink="http://www.w3.org/1999/xlink" viewBox="0 0 85 43"><defs><style>.cls-1{fill:none;}.cls-2,.cls-5{fill:#fff;}.cls-3{clip-path:url(#clip-path);}.cls-4{opacity:0.05;}.cls-5{stroke:#000;stroke-miterlimit:10;stroke-width:3px;}.cls-6{font-size:40px;font-family:MyriadPro-Regular, Myriad Pro;}.cls-7{fill:#4d8814;}</style><clipPath id="clip-path"><rect class="cls-1" width="85" height="43"/></clipPath></defs><title>invoice</title><g id="Ebene_1" data-name="Ebene 1"><g id="Ebene_2" data-name="Ebene 2"><rect class="cls-2" width="85" height="43"/></g><g class="cls-3"><g class="cls-4"><rect class="cls-5" x="48.24" y="6.67" width="42.07" height="78.92" transform="translate(-9.96 20.65) rotate(-15.84)"/><path d="M64.6,29.73A17.1,17.1,0,0,1,82.53,35.4L75,9,44.66,17.59l7.61,26.84A17.1,17.1,0,0,1,64.6,29.73Z"/><text class="cls-6" transform="translate(53.57 37.32) rotate(74.16)">€</text><rect class="cls-5" x="36.33" y="5.71" width="42.07" height="78.92" transform="translate(-15.04 35.76) rotate(-30.81)"/><path d="M48.62,30.53a17.1,17.1,0,0,1,18.78.84L53.33,7.79,26.22,24l14.29,24A17.08,17.08,0,0,1,48.62,30.53Z"/><path d="M74.32,43A17.09,17.09,0,0,1,47,58.77l14.29,24L88.38,66.56Z"/><text class="cls-6" transform="translate(39.85 40.74) rotate(59.19)">€</text><rect class="cls-5" x="26.51" y="7.53" width="42.07" height="78.92" transform="translate(-19.24 49.96) rotate(-47.21)"/><path d="M35,35.42a17.08,17.08,0,0,1,18.25-4.5L33.12,12.26,11.67,35.43l20.47,19A17.07,17.07,0,0,1,35,35.42Z"/><path d="M63.18,40.09A17.09,17.09,0,0,1,41.42,63l20.47,19L83.34,58.75Z"/><text class="cls-6" transform="matrix(0.73, 0.68, -0.68, 0.73, 29.62, 47.65)">€</text></g></g></g><g id="Ebene_2-2" data-name="Ebene 2"><path class="cls-7" d="M24.9,25H23.71V18H24.9Z"/><path class="cls-7" d="M32.57,25H31.3L28,19.85a3,3,0,0,1-.21-.4h0a6.5,6.5,0,0,1,0,1V25H26.63V18H28l3.23,5c.14.21.23.36.27.43h0a5.27,5.27,0,0,1-.05-.94V18h1.12Z"/><path class="cls-7" d="M39.79,18l-2.52,7H36L33.5,18h1.27l1.73,5.31a3,3,0,0,1,.13.59h0a3.19,3.19,0,0,1,.14-.6L38.56,18Z"/><path class="cls-7" d="M43.56,25.12a3.14,3.14,0,0,1-2.42-1,3.61,3.61,0,0,1-.91-2.56,3.85,3.85,0,0,1,.92-2.69,3.27,3.27,0,0,1,2.52-1,3.08,3.08,0,0,1,2.38,1,3.61,3.61,0,0,1,.9,2.55A3.85,3.85,0,0,1,46,24.12,3.2,3.2,0,0,1,43.56,25.12Zm.06-6.22a1.94,1.94,0,0,0-1.57.72,2.86,2.86,0,0,0-.6,1.89A2.85,2.85,0,0,0,42,23.39a1.89,1.89,0,0,0,1.54.71,1.93,1.93,0,0,0,1.58-.68,2.8,2.8,0,0,0,.58-1.9,2.92,2.92,0,0,0-.56-1.93A1.9,1.9,0,0,0,43.62,18.9Z"/><path class="cls-7" d="M49.43,25h-1.2V18h1.2Z"/><path class="cls-7" d="M56,24.71a4.26,4.26,0,0,1-2,.41,3.24,3.24,0,0,1-2.44-1,3.52,3.52,0,0,1-.91-2.53,3.66,3.66,0,0,1,1-2.71,3.54,3.54,0,0,1,2.61-1,4.29,4.29,0,0,1,1.68.29v1.15a3,3,0,0,0-1.56-.42,2.46,2.46,0,0,0-1.84.73,2.66,2.66,0,0,0-.71,1.94,2.57,2.57,0,0,0,.66,1.85,2.32,2.32,0,0,0,1.73.68A3,3,0,0,0,56,23.63Z"/><path class="cls-7" d="M61.29,25H57.36V18h3.78v1H58.52v2h2.41v1H58.52V24h2.77Z"/></g></svg>