<?xml version="1.0" encoding="utf-8"?>
<!-- Generator: Adobe Illustrator 22.1.0, SVG Export Plug-In . SVG Version: 6.00 Build 0)  -->
<svg version="1.1" id="Ebene_1" xmlns="http://www.w3.org/2000/svg" xmlns:xlink="http://www.w3.org/1999/xlink" x="0px" y="0px"
	 viewBox="0 0 85 43" style="enable-background:new 0 0 85 43;" xml:space="preserve">
<style type="text/css">
	.st0{fill:#FFFFFF;}
	.st1{enable-background:new    ;}
	.st2{fill:#002F86;}
	.st3{fill:#99999A;}
	.st4{fill:#009CDE;}
</style>
<title>Zeichenfläche 1</title>
<g id="Ebene_2_1_">
	<rect class="st0" width="85" height="43"/>
</g>
<g class="st1">
	<path class="st2" d="M12.9,21.5h-2.3L8.2,18c0-0.1-0.1-0.2-0.2-0.4h0v3.9H6.2v-8.1H8v3.8h0c0-0.1,0.1-0.3,0.2-0.4l2.2-3.4h2.2
		l-2.8,3.8L12.9,21.5z"/>
	<path class="st2" d="M20.3,21.5h-2.1L17,19.5c-0.1-0.2-0.2-0.3-0.3-0.4s-0.2-0.2-0.3-0.3s-0.2-0.2-0.3-0.2c-0.1,0-0.2-0.1-0.3-0.1
		h-0.5v3.1h-1.8v-8.1h2.9c2,0,2.9,0.7,2.9,2.2c0,0.3,0,0.5-0.1,0.8c-0.1,0.2-0.2,0.5-0.4,0.6c-0.2,0.2-0.3,0.4-0.6,0.5
		s-0.5,0.2-0.7,0.3v0c0.1,0,0.2,0.1,0.3,0.2c0.1,0.1,0.2,0.2,0.3,0.3s0.2,0.2,0.3,0.4c0.1,0.1,0.2,0.3,0.3,0.4L20.3,21.5z
		 M15.4,14.8v2.2h0.8c0.4,0,0.7-0.1,0.9-0.3c0.2-0.2,0.4-0.5,0.4-0.8c0-0.7-0.4-1.1-1.3-1.1H15.4z"/>
	<path class="st2" d="M25.8,21.5h-4.8v-8.1h4.6V15h-2.8v1.8h2.6v1.5h-2.6v1.8h3V21.5z"/>
	<path class="st2" d="M27,21.5v-8.1h2.9c2.9,0,4.3,1.3,4.3,3.9c0,1.3-0.4,2.3-1.2,3s-1.8,1.1-3.1,1.1H27z M28.8,15v5.1h0.9
		c0.8,0,1.4-0.2,1.9-0.7s0.7-1.1,0.7-1.9c0-0.8-0.2-1.4-0.7-1.8c-0.4-0.4-1.1-0.7-1.9-0.7H28.8z"/>
	<path class="st2" d="M37.2,21.5h-1.8v-8.1h1.8V21.5z"/>
	<path class="st2" d="M44.5,15h-2.3v6.6h-1.8V15h-2.3v-1.5h6.4V15z"/>
	<path class="st2" d="M52.2,21.5h-2.3L47.6,18c0-0.1-0.1-0.2-0.2-0.4h0v3.9h-1.8v-8.1h1.8v3.8h0c0-0.1,0.1-0.3,0.2-0.4l2.2-3.4H52
		l-2.8,3.8L52.2,21.5z"/>
	<path class="st2" d="M60,21.5h-2l-0.6-1.8h-2.9L54,21.5h-2l2.9-8.1h2.2L60,21.5z M57,18.3l-0.9-2.7c-0.1-0.2-0.1-0.4-0.1-0.7h0
		c0,0.2-0.1,0.5-0.1,0.7l-0.9,2.7H57z"/>
</g>
<g class="st1">
	<path class="st2" d="M67.5,21.5h-2.1l-1.3-2.1c-0.1-0.2-0.2-0.3-0.3-0.4s-0.2-0.2-0.3-0.3s-0.2-0.2-0.3-0.2s-0.2-0.1-0.3-0.1h-0.5
		v3.1h-1.8v-8.1h2.9c2,0,2.9,0.7,2.9,2.2c0,0.3,0,0.5-0.1,0.8c-0.1,0.2-0.2,0.5-0.4,0.6c-0.2,0.2-0.3,0.4-0.6,0.5s-0.5,0.2-0.7,0.3
		v0c0.1,0,0.2,0.1,0.3,0.2s0.2,0.2,0.3,0.3c0.1,0.1,0.2,0.2,0.3,0.4s0.2,0.3,0.3,0.4L67.5,21.5z M62.6,14.8v2.2h0.8
		c0.4,0,0.7-0.1,0.9-0.3c0.2-0.2,0.4-0.5,0.4-0.8c0-0.7-0.4-1.1-1.3-1.1H62.6z"/>
</g>
<g class="st1">
	<path class="st2" d="M73.6,15h-2.3v6.6h-1.8V15h-2.3v-1.5h6.4V15z"/>
	<path class="st2" d="M79.4,21.5h-4.8v-8.1h4.6V15h-2.8v1.8H79v1.5h-2.6v1.8h3V21.5z"/>
</g>
<path class="st3" d="M48.4,28.3c0,0.2-0.1,0.4-0.1,0.4h-0.4l0.5-3.4h0.5c-0.1,0.4-0.1,0.8-0.2,1.3c0.2-0.2,0.4-0.3,0.7-0.4
	c0.5-0.1,1.1,0.2,1.2,0.8c0,0,0,0.1,0,0.1c0.1,0.8-0.4,1.5-1.1,1.7C49,28.8,48.6,28.6,48.4,28.3z M48.5,27.6c0,0,0,0.1,0,0.1
	c0,0.4,0.3,0.7,0.7,0.7c0.1,0,0.2,0,0.2,0c0.5-0.2,0.7-0.6,0.7-1.1c0-0.4-0.3-0.6-0.7-0.6c0,0,0,0-0.1,0
	C48.8,26.6,48.5,27.1,48.5,27.6z"/>
<path class="st3" d="M46.7,25.2c-0.1,0.4-0.1,0.7-0.2,1.1c-0.1,0.7-0.3,1.6-0.4,2.3h-0.4c0-0.1,0-0.2,0-0.3l-0.1,0.1
	c-0.3,0.3-0.8,0.4-1.2,0.2c-0.4-0.2-0.6-0.6-0.6-1c0-0.5,0.2-0.9,0.6-1.3c0.4-0.4,1.1-0.4,1.5,0.1c0,0,0,0.1,0.1,0.1
	c0-0.3,0.1-0.6,0.1-0.9c0-0.1,0-0.3,0.1-0.5L46.7,25.2z M44.9,28.3h0.3h0.1c0.5-0.2,0.8-0.7,0.7-1.2c0-0.1-0.1-0.1-0.1-0.2
	c-0.1-0.2-0.3-0.3-0.5-0.3c-0.6,0-1,0.5-0.9,1c0,0.1,0,0.1,0,0.2C44.4,28.1,44.6,28.2,44.9,28.3z"/>
<path class="st3" d="M36,26.2c0.1,0.6,0.2,1.3,0.3,1.9l0.5-1.2l0.3-0.7h0.5l-0.1,0.2l-1,2.2H36c-0.1-0.6-0.2-1.2-0.3-1.8L35.7,27
	c-0.2,0.5-0.5,1.1-0.8,1.7h-0.5c-0.1-0.8-0.2-1.6-0.3-2.4h0.5c0.1,0.6,0.1,1.2,0.2,1.9l0.1-0.1c0.2-0.5,0.5-1.2,0.8-1.7H36z"/>
<path class="st3" d="M28.8,28.6c0.2-1.1,0.4-2.3,0.5-3.4c0.5,0,0.9,0,1.4,0.1c0.6,0.1,0.8,0.5,0.7,1.2c-0.1,0.6-0.6,1-1.2,1
	c-0.3,0-0.5,0-0.8,0c-0.1,0.4-0.1,0.8-0.2,1.2L28.8,28.6z M29.5,27c0.3,0,0.5,0,0.7,0c0.4,0,0.8-0.4,0.7-0.8c0,0,0-0.1,0-0.1
	c0-0.2-0.2-0.5-0.4-0.5c-0.3,0-0.5,0-0.8,0C29.7,26.1,29.6,26.6,29.5,27z"/>
<path class="st3" d="M43.7,27.6h-1.8c-0.1,0.3,0.2,0.7,0.5,0.7c0,0,0.1,0,0.1,0c0.4,0,0.7,0,1-0.2v0.4c0,0-0.2,0.1-0.3,0.2
	c-0.3,0.1-0.5,0.1-0.8,0.1c-0.5-0.1-0.8-0.4-0.9-0.9c-0.1-0.7,0.3-1.4,1-1.6c0.2,0,0.4,0,0.6,0c0.5,0.1,0.8,0.5,0.8,1c0,0,0,0,0,0
	C43.7,27.3,43.7,27.4,43.7,27.6z M41.9,27.2h1.4c0.1-0.3-0.1-0.6-0.4-0.7C42.5,26.5,42,26.7,41.9,27.2z"/>
<path class="st3" d="M39.7,27.6h-1.8c-0.1,0.3,0.2,0.7,0.5,0.7c0,0,0.1,0,0.1,0c0.4,0,0.7,0,1-0.2v0.4c0,0-0.2,0.1-0.3,0.2
	c-0.3,0.1-0.6,0.1-0.8,0.1c-0.5-0.1-0.8-0.4-0.9-0.9c-0.1-0.7,0.3-1.4,1-1.6c0.2,0,0.4,0,0.6,0c0.5,0,0.8,0.5,0.8,1c0,0,0,0,0,0
	C39.7,27.3,39.7,27.4,39.7,27.6z M37.9,27.2h1.4c0.1-0.3-0.1-0.6-0.4-0.7C38.4,26.5,38,26.7,37.9,27.2z"/>
<path class="st3" d="M31.4,27.6c0-0.8,0.6-1.4,1.4-1.4c0.1,0,0.2,0,0.3,0c0.5,0.1,0.9,0.6,0.8,1.1c0,0.8-0.6,1.5-1.4,1.5
	c0,0,0,0,0,0c-0.6,0-1.1-0.4-1.1-1C31.4,27.7,31.4,27.6,31.4,27.6z M31.8,27.6c0,0.4,0.2,0.7,0.6,0.8c0.2,0,0.3,0,0.5-0.1
	c0.4-0.2,0.6-0.6,0.5-1c0-0.4-0.3-0.6-0.7-0.6c0,0,0,0,0,0C32.2,26.7,31.8,27.1,31.8,27.6L31.8,27.6z"/>
<path class="st3" d="M50.5,29.7l0.3-0.6c0.1-0.2,0.2-0.4,0.3-0.6c0-0.2-0.1-0.4-0.1-0.6c-0.1-0.5-0.2-1-0.4-1.5v-0.1h0.4l0.4,1.8
	l0.1-0.2l0.9-1.6H53l-0.1,0.1L51,29.7H50.5z"/>
<path class="st3" d="M40.2,26.2h0.4c0,0.1,0,0.2,0,0.4c0.2-0.3,0.5-0.4,0.9-0.4c0,0.1,0,0.3,0,0.4c-0.4-0.1-0.9,0.2-1,0.6
	c0,0.1,0,0.1,0,0.2c0,0.2-0.1,0.4-0.1,0.6s-0.1,0.4-0.1,0.6h-0.5c0.1-0.4,0.1-0.8,0.2-1.2S40.2,26.6,40.2,26.2z"/>
<path id="path14519" class="st2" d="M68.4,25.2h-0.9c-0.1,0-0.2,0-0.2,0.1L66,27.2l-0.5-1.8c0-0.1-0.1-0.2-0.3-0.2h-0.9
	c-0.1,0-0.1,0.1-0.1,0.2c0,0,0,0,0,0l1,2.9l-0.9,1.3c0,0.1,0,0.2,0,0.2c0,0,0.1,0,0.1,0h0.9c0.1,0,0.2,0,0.2-0.1l3-4.3
	c0-0.1,0-0.2,0-0.2C68.5,25.2,68.4,25.2,68.4,25.2 M62.4,27c-0.1,0.5-0.5,0.9-1,0.9c-0.2,0-0.4-0.1-0.6-0.2
	c-0.1-0.2-0.2-0.4-0.1-0.6c0.1-0.5,0.5-0.9,1-0.9c0.2,0,0.4,0.1,0.6,0.3C62.4,26.5,62.4,26.7,62.4,27 M63.6,25.2h-0.9
	c-0.1,0-0.1,0.1-0.2,0.1v0.3l-0.1-0.1c-0.3-0.3-0.6-0.4-1-0.4c-1,0-1.9,0.8-2,1.8c-0.1,0.5,0,1,0.3,1.4c0.3,0.3,0.7,0.5,1.1,0.5
	c0.5,0,0.9-0.2,1.2-0.5v0.2c0,0.1,0,0.2,0.1,0.2c0,0,0,0,0,0H63c0.1,0,0.2-0.1,0.3-0.2l0.5-3C63.8,25.3,63.7,25.2,63.6,25.2
	C63.6,25.2,63.6,25.2,63.6,25.2 M58.2,25.2c-0.1,0.7-0.6,0.7-1.1,0.7h-0.3l0.2-1.3c0-0.1,0.1-0.1,0.2-0.1h0.1c0.3,0,0.7,0,0.8,0.2
	C58.2,24.9,58.3,25,58.2,25.2 M58,23.5h-1.8c-0.1,0-0.2,0.1-0.3,0.2l-0.8,4.8c0,0.1,0,0.2,0.1,0.2c0,0,0,0,0,0h0.9
	c0.1,0,0.2-0.1,0.3-0.2l0.2-1.3c0-0.1,0.1-0.2,0.3-0.2h0.6c1,0.1,2-0.6,2.1-1.7c0,0,0-0.1,0-0.1c0.1-0.4,0-0.9-0.2-1.2
	C59,23.6,58.5,23.4,58,23.5"/>
<path id="path14523" class="st4" d="M78,23.6l-0.8,4.9c0,0.1,0.1,0.2,0.1,0.2c0,0,0,0,0,0h0.8c0.1,0,0.2-0.1,0.3-0.2l0.8-4.8
	c0-0.1,0-0.2-0.1-0.2c0,0,0,0,0,0h-0.9C78.1,23.5,78,23.6,78,23.6C78,23.6,78,23.6,78,23.6 M75.7,27c-0.1,0.5-0.5,0.9-1,0.9
	c-0.2,0-0.4-0.1-0.6-0.2c-0.1-0.2-0.2-0.4-0.1-0.6c0.1-0.5,0.5-0.9,1-0.9c0.4,0,0.7,0.3,0.8,0.7C75.7,26.9,75.7,26.9,75.7,27
	 M76.9,25.3H76c-0.1,0-0.1,0.1-0.2,0.1v0.3l-0.1-0.1c-0.3-0.3-0.7-0.4-1.1-0.4c-1,0-1.9,0.8-2,1.8c-0.1,0.5,0,1,0.3,1.4
	c0.3,0.3,0.7,0.5,1.1,0.5c0.5,0,0.9-0.2,1.2-0.5v0.2c0,0.1,0.1,0.2,0.1,0.2c0,0,0,0,0,0h0.8c0.1,0,0.2-0.1,0.3-0.2l0.5-3
	C77.1,25.4,77.1,25.3,76.9,25.3C77,25.3,77,25.3,76.9,25.3 M71.6,25.3c-0.1,0.7-0.6,0.7-1.1,0.7h-0.3l0.2-1.3c0-0.1,0.1-0.1,0.2-0.1
	h0.1c0.3,0,0.7,0,0.8,0.2C71.6,24.9,71.7,25.1,71.6,25.3 M71.4,23.5h-1.9c-0.1,0-0.2,0.1-0.3,0.2l-0.8,4.8c0,0.1,0.1,0.2,0.1,0.2
	c0,0,0,0,0,0h1c0.1,0,0.2-0.1,0.2-0.1l0.2-1.4c0-0.1,0.1-0.2,0.3-0.2h0.6c1.1,0.1,2-0.6,2.1-1.7c0,0,0,0,0-0.1
	c0.1-0.4,0-0.8-0.3-1.2C72.3,23.7,71.8,23.5,71.4,23.5"/>
</svg>
