<svg id="Ebene_1" data-name="Ebene 1" xmlns="http://www.w3.org/2000/svg" viewBox="0 0 85 43"><defs><style>.cls-1{fill:#fff;}.cls-2{fill:#989899;}.cls-3{fill:#253b80;}.cls-4{fill:#179bd7;}</style></defs><title>Zeichenfläche 1</title><g id="Ebene_2" data-name="Ebene 2"><rect class="cls-1" width="85" height="43"/></g><path class="cls-2" d="M70.11,28.42c-.3.44-.62.88-.91,1.33-.15.23-.28.28-.53.11A1.7,1.7,0,0,0,67,29.61a1,1,0,0,0-.28.16.61.61,0,0,0,.07,1.08,5.7,5.7,0,0,0,1.07.39c.22.08.45.16.67.26a1.88,1.88,0,0,1,1.15,2.3,3.59,3.59,0,0,1-3.36,3.11A5,5,0,0,1,63,36.15c-.24-.15-.28-.29-.1-.53.31-.42.59-.85.88-1.29.15-.21.28-.23.48,0a2.27,2.27,0,0,0,2,.63,1,1,0,0,0,.85-.75.61.61,0,0,0-.25-.69,2.88,2.88,0,0,0-1-.41,6.94,6.94,0,0,1-1.15-.43,1.54,1.54,0,0,1-.9-1.5,3.49,3.49,0,0,1,2.86-3.52,4.76,4.76,0,0,1,3.37.63Z"/><path class="cls-2" d="M56.75,27.76h.72c.36,0,.42.06.36.41-.1.69-.23,1.38-.32,2.07-.15,1-.37,2.06-.45,3.11a2,2,0,0,0,0,.69,1.1,1.1,0,0,0,1.3.85A1.65,1.65,0,0,0,60,33.62a15.08,15.08,0,0,0,.46-2.41c.18-1,.33-2.05.49-3.08a.39.39,0,0,1,.45-.37h1.5c.39,0,.44.07.38.47-.14.85-.27,1.7-.41,2.54-.18,1-.28,2.06-.53,3.07A3.85,3.85,0,0,1,58.8,36.9a5.68,5.68,0,0,1-2.46-.22,2.43,2.43,0,0,1-1.71-2.76c.19-1.93.58-3.83.86-5.75a.41.41,0,0,1,.48-.41Z"/><path class="cls-2" d="M51,36.71H48.83c-.36,0-.41-.05-.36-.4.14-.91.29-1.83.43-2.75q.42-2.6.82-5.18c.09-.58.12-.62.7-.62h1.35c.33,0,.38.07.33.4-.34,2.11-.66,4.22-1,6.33,0,.2,0,.24.2.24H53.4c.41,0,.43,0,.37.43s-.14.77-.18,1.16-.2.4-.49.39Z"/><path class="cls-2" d="M46.65,27.86a13.81,13.81,0,0,0-2.27-.1H42.63c-.47,0-.53.07-.6.55-.21,1.35-.43,2.7-.65,4.06s-.41,2.66-.62,4c0,.25,0,.35.29.34h1.6c.3,0,.42-.13.46-.42.11-.72.24-1.44.35-2.16a.37.37,0,0,1,.44-.37,10.56,10.56,0,0,0,1.59,0,3.13,3.13,0,0,0,2.29-1.21,4.11,4.11,0,0,0,.73-2.16A2.12,2.12,0,0,0,46.65,27.86Zm-1.9,4h-.33c-.61,0-.61,0-.52-.59s.15-.9.22-1.36c0-.13.06-.23.22-.23a4.51,4.51,0,0,1,1.1,0,.71.71,0,0,1,.61.8A1.22,1.22,0,0,1,44.75,31.85Z"/><path class="cls-3" d="M18.67,8H13.79a.67.67,0,0,0-.67.57l-2,12.51a.41.41,0,0,0,.4.47h2.33a.69.69,0,0,0,.67-.58l.53-3.37a.67.67,0,0,1,.67-.57h1.54c3.22,0,5.07-1.56,5.55-4.64a3.75,3.75,0,0,0-.62-3.15A4.53,4.53,0,0,0,18.67,8Zm.56,4.56c-.27,1.76-1.61,1.76-2.9,1.76H15.6L16.11,11a.41.41,0,0,1,.4-.35h.34c.88,0,1.71,0,2.14.5A1.61,1.61,0,0,1,19.23,12.53Z"/><path class="cls-3" d="M33.25,12.48H30.91a.4.4,0,0,0-.4.34l-.1.65-.17-.23a3.29,3.29,0,0,0-2.75-1A5.37,5.37,0,0,0,22.27,17a4.42,4.42,0,0,0,.87,3.59,3.67,3.67,0,0,0,2.94,1.18,4.5,4.5,0,0,0,3.24-1.33l-.11.65a.41.41,0,0,0,.4.47h2.11a.69.69,0,0,0,.67-.58l1.26-8A.4.4,0,0,0,33.25,12.48ZM30,17a2.6,2.6,0,0,1-2.63,2.24A1.82,1.82,0,0,1,25.42,17,2.61,2.61,0,0,1,28,14.74a2,2,0,0,1,1.56.63A2,2,0,0,1,30,17Z"/><path class="cls-3" d="M45.69,12.48H43.34a.68.68,0,0,0-.56.3l-3.24,4.76L38.17,13a.68.68,0,0,0-.65-.48H35.21a.4.4,0,0,0-.38.54l2.58,7.58L35,24a.4.4,0,0,0,.33.64h2.35a.7.7,0,0,0,.56-.29L46,13.12A.4.4,0,0,0,45.69,12.48Z"/><path class="cls-4" d="M53.46,8H48.58a.68.68,0,0,0-.67.57l-2,12.51a.41.41,0,0,0,.4.47h2.51a.46.46,0,0,0,.46-.4l.56-3.55a.68.68,0,0,1,.67-.57h1.55c3.21,0,5.07-1.56,5.55-4.64A3.75,3.75,0,0,0,57,9.21,4.55,4.55,0,0,0,53.46,8ZM54,12.53c-.27,1.76-1.61,1.76-2.9,1.76h-.74L50.91,11a.41.41,0,0,1,.4-.35h.34c.88,0,1.71,0,2.14.5A1.64,1.64,0,0,1,54,12.53Z"/><path class="cls-4" d="M68,12.48H65.71a.4.4,0,0,0-.4.34l-.1.65L65,13.24a3.3,3.3,0,0,0-2.76-1A5.36,5.36,0,0,0,57.07,17a4.42,4.42,0,0,0,.87,3.59,3.67,3.67,0,0,0,2.94,1.18,4.47,4.47,0,0,0,3.23-1.33l-.1.65a.41.41,0,0,0,.4.47h2.11a.68.68,0,0,0,.66-.58l1.27-8A.41.41,0,0,0,68,12.48ZM64.79,17a2.62,2.62,0,0,1-2.64,2.24,2,2,0,0,1-1.57-.63A2,2,0,0,1,60.22,17a2.61,2.61,0,0,1,2.62-2.24,2,2,0,0,1,1.55.63A2,2,0,0,1,64.79,17Z"/><path class="cls-4" d="M70.8,8.31l-2,12.74a.41.41,0,0,0,.4.47h2a.68.68,0,0,0,.67-.58l2-12.5a.41.41,0,0,0-.4-.48H71.2A.42.42,0,0,0,70.8,8.31Z"/></svg>