<svg xmlns="http://www.w3.org/2000/svg" xmlns:xlink="http://www.w3.org/1999/xlink" viewBox="0 0 85 43"><defs><style>.cls-1{fill:none;}.cls-2,.cls-5{fill:#fff;}.cls-3{clip-path:url(#clip-path);}.cls-4{opacity:0.05;}.cls-5{stroke:#000;stroke-miterlimit:10;stroke-width:3px;}.cls-6{font-size:40px;font-family:MyriadPro-Regular, Myriad Pro;}.cls-7{fill:#4d8814;}</style><clipPath id="clip-path"><rect class="cls-1" width="85" height="43"/></clipPath></defs><title>prepayment</title><g id="Ebene_1" data-name="Ebene 1"><g id="Ebene_2" data-name="Ebene 2"><rect class="cls-2" width="85" height="43"/></g><g class="cls-3"><g class="cls-4"><rect class="cls-5" x="48.24" y="6.67" width="42.07" height="78.92" transform="translate(-9.96 20.65) rotate(-15.84)"/><path d="M64.6,29.73A17.1,17.1,0,0,1,82.53,35.4L75,9,44.66,17.59l7.61,26.84A17.1,17.1,0,0,1,64.6,29.73Z"/><text class="cls-6" transform="translate(53.57 37.32) rotate(74.16)">€</text><rect class="cls-5" x="36.33" y="5.71" width="42.07" height="78.92" transform="translate(-15.04 35.76) rotate(-30.81)"/><path d="M48.62,30.53a17.1,17.1,0,0,1,18.78.84L53.33,7.79,26.22,24l14.29,24A17.08,17.08,0,0,1,48.62,30.53Z"/><path d="M74.32,43A17.09,17.09,0,0,1,47,58.77l14.29,24L88.38,66.56Z"/><text class="cls-6" transform="translate(39.85 40.74) rotate(59.19)">€</text><rect class="cls-5" x="26.51" y="7.53" width="42.07" height="78.92" transform="translate(-19.24 49.96) rotate(-47.21)"/><path d="M35,35.42a17.08,17.08,0,0,1,18.25-4.5L33.12,12.26,11.67,35.43l20.47,19A17.07,17.07,0,0,1,35,35.42Z"/><path d="M63.18,40.09A17.09,17.09,0,0,1,41.42,63l20.47,19L83.34,58.75Z"/><text class="cls-6" transform="matrix(0.73, 0.68, -0.68, 0.73, 29.62, 47.65)">€</text></g></g></g><g id="Ebene_2-2" data-name="Ebene 2"><path class="cls-7" d="M13.3,22.46V25H12.14V18h2.13a2.86,2.86,0,0,1,1.87.56,2,2,0,0,1,.66,1.58,2.19,2.19,0,0,1-.69,1.67,2.61,2.61,0,0,1-1.88.65Zm0-3.5v2.55h.75a1.67,1.67,0,0,0,1.14-.34,1.24,1.24,0,0,0,.39-1c0-.82-.48-1.23-1.43-1.23Z"/><path class="cls-7" d="M23.4,25H22l-1.12-1.87a5.1,5.1,0,0,0-.29-.45,2.12,2.12,0,0,0-.3-.3,1.09,1.09,0,0,0-.32-.17,1.62,1.62,0,0,0-.4-.05h-.46V25H18V18h2.3a3.28,3.28,0,0,1,.91.12,1.86,1.86,0,0,1,.72.35,1.61,1.61,0,0,1,.48.59,1.81,1.81,0,0,1,.18.83,2.11,2.11,0,0,1-.11.68,1.77,1.77,0,0,1-.8,1,2.28,2.28,0,0,1-.64.27v0a2.75,2.75,0,0,1,.33.23l.27.27.25.31.27.4Zm-4.25-6.06v2.28h1a1.35,1.35,0,0,0,.5-.09,1,1,0,0,0,.39-.24,1,1,0,0,0,.26-.38,1.31,1.31,0,0,0,.09-.5,1,1,0,0,0-.32-.79,1.36,1.36,0,0,0-.91-.28Z"/><path class="cls-7" d="M28.14,25H24.21V18H28v1H25.38v2h2.4v1h-2.4V24h2.76Z"/><path class="cls-7" d="M30.55,22.46V25H29.39V18h2.12a2.82,2.82,0,0,1,1.87.56,1.94,1.94,0,0,1,.67,1.58,2.16,2.16,0,0,1-.7,1.67,2.58,2.58,0,0,1-1.87.65Zm0-3.5v2.55h.75a1.67,1.67,0,0,0,1.14-.34,1.24,1.24,0,0,0,.39-1q0-1.23-1.44-1.23Z"/><path class="cls-7" d="M40.3,25H39l-.63-1.78H35.64L35,25H33.76l2.63-7H37.7Zm-2.21-2.73-1-2.79A3,3,0,0,1,37,19h0a2.66,2.66,0,0,1-.1.44l-1,2.79Z"/><path class="cls-7" d="M45.38,18l-2.29,4.46V25H41.92V22.48L39.69,18H41l1.38,3s.06.17.14.41h0a2.57,2.57,0,0,1,.16-.41l1.44-3Z"/><path class="cls-7" d="M53.79,25H52.64V20.47c0-.37,0-.83.07-1.36h0a4.41,4.41,0,0,1-.19.66L50.41,25h-.8l-2.1-5.19a6.15,6.15,0,0,1-.18-.7h0c0,.28,0,.73,0,1.37V25H46.27V18h1.64l1.84,4.66a6.75,6.75,0,0,1,.27.8h0c.12-.36.22-.64.29-.82L52.22,18h1.57Z"/><path class="cls-7" d="M59.45,25H55.52V18h3.77v1H56.68v2h2.41v1H56.68V24h2.77Z"/><path class="cls-7" d="M66.63,25H65.36L62,19.85a1.71,1.71,0,0,1-.21-.4h0a8.39,8.39,0,0,1,0,1V25H60.69V18h1.36l3.23,5a4.33,4.33,0,0,1,.26.43h0a6.47,6.47,0,0,1,0-.94V18h1.12Z"/><path class="cls-7" d="M72.86,19h-2v6H69.68V19h-2V18h5.18Z"/></g></svg>