<svg id="Ebene_1" data-name="Ebene 1" xmlns="http://www.w3.org/2000/svg" xmlns:xlink="http://www.w3.org/1999/xlink" viewBox="0 0 85 43"><defs><style>.cls-1{fill:none;}.cls-2,.cls-5{fill:#fff;}.cls-3{clip-path:url(#clip-path);}.cls-4{opacity:0.05;}.cls-5{stroke:#000;stroke-miterlimit:10;stroke-width:3px;}.cls-6{font-size:40px;font-family:MyriadPro-Regular, Myriad Pro;}.cls-7{fill:#4d8814;}</style><clipPath id="clip-path"><rect class="cls-1" width="85" height="43"/></clipPath></defs><title>rechnung</title><g id="Ebene_2" data-name="Ebene 2"><rect class="cls-2" width="85" height="43"/></g><g class="cls-3"><g class="cls-4"><rect class="cls-5" x="48.24" y="6.67" width="42.07" height="78.92" transform="translate(-9.96 20.65) rotate(-15.84)"/><path d="M64.6,29.73A17.1,17.1,0,0,1,82.53,35.4L75,9,44.66,17.59l7.61,26.84A17.1,17.1,0,0,1,64.6,29.73Z"/><text class="cls-6" transform="translate(53.57 37.32) rotate(74.16)">€</text><rect class="cls-5" x="36.33" y="5.71" width="42.07" height="78.92" transform="translate(-15.04 35.76) rotate(-30.81)"/><path d="M48.62,30.53a17.1,17.1,0,0,1,18.78.84L53.33,7.79,26.22,24l14.29,24A17.08,17.08,0,0,1,48.62,30.53Z"/><path d="M74.32,43A17.09,17.09,0,0,1,47,58.77l14.29,24L88.38,66.56Z"/><text class="cls-6" transform="translate(39.85 40.74) rotate(59.19)">€</text><rect class="cls-5" x="26.51" y="7.53" width="42.07" height="78.92" transform="translate(-19.24 49.96) rotate(-47.21)"/><path d="M35,35.42a17.08,17.08,0,0,1,18.25-4.5L33.12,12.26,11.67,35.43l20.47,19A17.07,17.07,0,0,1,35,35.42Z"/><path d="M63.18,40.09A17.09,17.09,0,0,1,41.42,63l20.47,19L83.34,58.75Z"/><text class="cls-6" transform="matrix(0.73, 0.68, -0.68, 0.73, 29.62, 47.65)">€</text></g></g><path class="cls-7" d="M21.51,25H20.15L19,23.13a5.1,5.1,0,0,0-.29-.45,2.12,2.12,0,0,0-.3-.3,1.09,1.09,0,0,0-.32-.17,1.62,1.62,0,0,0-.4-.05h-.46V25H16.1V18h2.3a3.28,3.28,0,0,1,.91.12,1.86,1.86,0,0,1,.72.35,1.65,1.65,0,0,1,.49.59,2,2,0,0,1,.17.83,2.11,2.11,0,0,1-.11.68,1.74,1.74,0,0,1-.31.55,1.94,1.94,0,0,1-.49.41,2.28,2.28,0,0,1-.64.27v0a2.75,2.75,0,0,1,.33.23l.27.27.25.31.27.4Zm-4.25-6.06v2.28h1a1.35,1.35,0,0,0,.5-.09,1,1,0,0,0,.39-.24,1,1,0,0,0,.26-.38,1.31,1.31,0,0,0,.09-.5,1,1,0,0,0-.31-.79,1.4,1.4,0,0,0-.92-.28Z"/><path class="cls-7" d="M26.25,25H22.32V18H26.1v1H23.49v2h2.4v1h-2.4V24h2.76Z"/><path class="cls-7" d="M32.38,24.71a4.25,4.25,0,0,1-2,.41,3.25,3.25,0,0,1-2.45-1,3.54,3.54,0,0,1-.91-2.53,3.66,3.66,0,0,1,1-2.71,3.54,3.54,0,0,1,2.61-1,4.26,4.26,0,0,1,1.68.29v1.15a3,3,0,0,0-1.56-.42,2.43,2.43,0,0,0-1.84.73,2.66,2.66,0,0,0-.71,1.94,2.57,2.57,0,0,0,.66,1.85,2.32,2.32,0,0,0,1.73.68,3,3,0,0,0,1.72-.47Z"/><path class="cls-7" d="M39.34,25H38.17V22h-3.3v3H33.71V18h1.16v2.94h3.3V18h1.17Z"/><path class="cls-7" d="M47,25H45.73l-3.34-5.15a1.71,1.71,0,0,1-.21-.4h0a8.39,8.39,0,0,1,0,1V25H41.06V18h1.36l3.23,5c.14.21.22.36.26.43h0a6.47,6.47,0,0,1,0-.94V18H47Z"/><path class="cls-7" d="M54.12,22.17c0,2-.93,2.95-2.79,2.95s-2.68-.95-2.68-2.84V18h1.16v4c0,1.38.54,2.06,1.61,2.06s1.54-.66,1.54-2V18h1.16Z"/><path class="cls-7" d="M61.7,25H60.43l-3.34-5.15a2.19,2.19,0,0,1-.21-.4h0a6.5,6.5,0,0,1,0,1V25H55.77V18h1.35l3.23,5c.14.21.23.36.27.43h0a6.9,6.9,0,0,1,0-.94V18H61.7Z"/><path class="cls-7" d="M68.9,24.52a5,5,0,0,1-2.44.6,3.37,3.37,0,0,1-2.51-1,3.47,3.47,0,0,1-1-2.56,3.58,3.58,0,0,1,3.72-3.71,5.15,5.15,0,0,1,2,.34v1.2a3.38,3.38,0,0,0-1.92-.54,2.46,2.46,0,0,0-1.84.74,2.65,2.65,0,0,0-.71,1.91,2.76,2.76,0,0,0,.61,1.9,2.13,2.13,0,0,0,1.67.69,2.68,2.68,0,0,0,1.25-.28V22.17H66.27v-1H68.9Z"/></svg>