<?xml version="1.0" encoding="utf-8"?>
<!-- Generator: Adobe Illustrator 22.0.1, SVG Export Plug-In . SVG Version: 6.00 Build 0)  -->
<svg version="1.1" id="Ebene_1" xmlns="http://www.w3.org/2000/svg" xmlns:xlink="http://www.w3.org/1999/xlink" x="0px" y="0px"
	 viewBox="0 0 85 43" style="enable-background:new 0 0 85 43;" xml:space="preserve">
<style type="text/css">
	.st0{fill:#FFFFFF;}
	.st1{fill:#6772E5;}
</style>
<g id="Ebene_2_1_">
	<rect class="st0" width="85" height="43"/>
</g>
<g id="Stripe">
	<path class="st1" d="M75.2,22c0-4.6-2.3-8.3-6.6-8.3c-4.3,0-6.9,3.7-6.9,8.3c0,5.5,3.1,8.2,7.5,8.2c2.2,0,3.8-0.5,5-1.2v-3.6
		c-1.2,0.6-2.6,1-4.4,1c-1.8,0-3.3-0.6-3.5-2.8h8.9C75.1,23.3,75.2,22.4,75.2,22z M66.2,20.2c0-2.1,1.3-2.9,2.4-2.9
		c1.1,0,2.3,0.9,2.3,2.9H66.2z"/>
	<path class="st1" d="M54.7,13.6c-1.8,0-2.9,0.8-3.6,1.4l-0.2-1.1h-4v21.2l4.5-1l0-5.1c0.7,0.5,1.6,1.1,3.2,1.1
		c3.2,0,6.2-2.6,6.2-8.4C60.8,16.5,57.9,13.6,54.7,13.6z M53.6,26.1c-1.1,0-1.7-0.4-2.1-0.9l0-6.7c0.5-0.5,1.1-0.9,2.2-0.9
		c1.7,0,2.8,1.9,2.8,4.2C56.4,24.3,55.3,26.1,53.6,26.1z"/>
	<polygon class="st1" points="40.6,12.6 45.2,11.6 45.2,7.9 40.6,8.9 	"/>
	<rect x="40.6" y="14" class="st1" width="4.6" height="15.9"/>
	<path class="st1" d="M35.8,15.3L35.5,14h-3.9v15.9h4.5V19.1c1.1-1.4,2.9-1.1,3.4-0.9V14C39,13.7,36.8,13.3,35.8,15.3z"/>
	<path class="st1" d="M26.7,10L22.3,11l0,14.5c0,2.7,2,4.7,4.7,4.7c1.5,0,2.6-0.3,3.2-0.6v-3.7c-0.6,0.2-3.4,1.1-3.4-1.6v-6.4h3.4
		V14h-3.4L26.7,10z"/>
	<path class="st1" d="M14.4,18.6c0-0.7,0.6-1,1.5-1c1.4,0,3.1,0.4,4.5,1.2v-4.3c-1.5-0.6-3-0.8-4.5-0.8c-3.7,0-6.1,1.9-6.1,5.1
		c0,5,6.9,4.2,6.9,6.4c0,0.8-0.7,1.1-1.7,1.1c-1.5,0-3.4-0.6-5-1.5v4.3c1.7,0.7,3.4,1,5,1c3.8,0,6.4-1.9,6.4-5.1
		C21.3,19.6,14.4,20.6,14.4,18.6z"/>
</g>
</svg>
