<?xml version="1.0" encoding="utf-8"?>
<!-- Generator: Adobe Illustrator 22.0.1, SVG Export Plug-In . SVG Version: 6.00 Build 0)  -->
<svg version="1.1" id="Ebene_1" xmlns="http://www.w3.org/2000/svg" xmlns:xlink="http://www.w3.org/1999/xlink" x="0px" y="0px"
	 viewBox="0 0 85 43" style="enable-background:new 0 0 85 43;" xml:space="preserve">
<style type="text/css">
	.st0{fill:#FFFFFF;}
	.st1{fill:#F7B600;}
	.st2{fill:#1A1F71;}
</style>
<g id="Ebene_2_1_">
	<rect class="st0" width="85" height="43"/>
</g>
<g>
	<rect x="12.2" y="2.3" class="st0" width="60.6" height="38.5"/>
	<rect x="13.2" y="34.5" class="st1" width="58.6" height="5.3"/>
	<rect x="13.2" y="3.3" class="st2" width="58.6" height="5.3"/>
	<path class="st2" d="M36.7,14.3l-6.1,14.4h-3.9l-3-11.5c-0.2-0.7-0.3-1-0.9-1.3c-0.9-0.5-2.4-0.9-3.7-1.2l0.1-0.4h6.4
		c0.8,0,1.5,0.5,1.7,1.5l1.6,8.4l3.9-9.8H36.7z M52.1,24c0-3.8-5.3-4-5.2-5.7c0-0.5,0.5-1.1,1.6-1.2c0.5-0.1,2-0.1,3.7,0.6l0.7-3.1
		c-0.9-0.3-2.1-0.6-3.5-0.6c-3.7,0-6.3,2-6.3,4.8c0,2.1,1.9,3.2,3.3,3.9c1.5,0.7,1.9,1.2,1.9,1.8c0,1-1.2,1.4-2.2,1.4
		c-1.9,0-3-0.5-3.8-0.9l-0.7,3.2c0.9,0.4,2.5,0.7,4.2,0.8C49.5,29,52.1,27,52.1,24 M61.9,28.7h3.5l-3-14.4h-3.2
		c-0.7,0-1.3,0.4-1.6,1.1l-5.6,13.4h3.9l0.8-2.2h4.8L61.9,28.7z M57.7,23.6l2-5.4l1.1,5.4H57.7z M42,14.3l-3.1,14.4h-3.7l3.1-14.4
		H42z"/>
</g>
</svg>
