<?xml version="1.0" standalone="no"?>
<!DOCTYPE svg PUBLIC "-//W3C//DTD SVG 20010904//EN"
 "http://www.w3.org/TR/2001/REC-SVG-20010904/DTD/svg10.dtd">
<svg version="1.0" xmlns="http://www.w3.org/2000/svg"
 width="1024.000000pt" height="1024.000000pt" viewBox="0 0 1024.000000 1024.000000"
 preserveAspectRatio="xMidYMid meet">
<metadata>
Created by potrace 1.11, written by Peter Selinger 2001-2013
</metadata>
<g transform="translate(0.000000,1024.000000) scale(0.100000,-0.100000)"
fill="transparent" stroke="none">
<path d="M0 5120 l0 -5120 5120 0 5120 0 0 5120 0 5120 -5120 0 -5120 0 0
-5120z m5198 3488 c61 -38 66 -59 72 -298 l5 -215 45 -3 c117 -7 359 -45 485
-76 413 -102 819 -301 1161 -570 122 -96 363 -338 466 -467 343 -429 569 -972
632 -1519 9 -74 16 -143 16 -152 0 -17 16 -18 188 -18 103 0 204 -5 224 -10
44 -13 93 -52 113 -91 35 -68 4 -169 -65 -212 -33 -21 -49 -22 -247 -25 -192
-3 -213 -5 -213 -20 0 -10 -7 -76 -15 -147 -63 -540 -279 -1073 -607 -1492
-104 -133 -314 -351 -435 -452 -478 -400 -1068 -644 -1662 -689 l-86 -7 -5
-220 c-5 -212 -6 -221 -29 -254 -66 -92 -213 -89 -273 6 -22 36 -23 49 -28
253 l-5 215 -90 7 c-382 29 -783 148 -1142 338 -146 78 -228 131 -393 253
-161 120 -433 388 -557 548 -278 358 -477 793 -567 1236 -21 103 -56 355 -56
405 0 15 -21 17 -213 20 -198 3 -214 4 -247 25 -77 48 -102 149 -55 228 42 73
68 80 308 83 186 3 207 5 207 20 0 43 31 278 50 373 90 466 303 929 598 1298
102 128 344 370 462 463 480 378 1046 605 1609 645 l91 6 0 210 c0 197 1 212
22 248 47 85 150 110 236 57z"/>
<path d="M4400 7451 c0 -33 11 -51 31 -51 30 0 36 30 10 52 -30 23 -41 23 -41
-1z"/>
<path d="M4650 7410 c0 -13 28 -25 38 -16 3 4 0 11 -8 16 -20 13 -30 12 -30 0z"/>
<path d="M5352 7341 c9 -15 8 -24 -5 -45 -32 -48 -13 -78 22 -35 17 21 18 21
45 4 27 -18 27 -18 57 11 58 55 65 98 9 50 -34 -28 -41 -27 -102 15 -33 24
-41 24 -26 0z"/>
<path d="M4912 7278 c-17 -17 -15 -28 4 -28 14 0 14 -3 4 -15 -7 -8 -27 -15
-45 -15 -20 0 -35 6 -39 15 -10 28 -34 16 -41 -21 -8 -43 -1 -53 25 -36 28 17
48 15 86 -9 l34 -21 0 66 c0 66 -8 84 -28 64z"/>
<path d="M4140 7252 c0 -5 7 -15 15 -22 8 -7 15 -8 15 -2 0 5 -7 15 -15 22 -8
7 -15 8 -15 2z"/>
<path d="M3802 7120 c-21 -5 -60 -33 -106 -79 -41 -39 -80 -71 -87 -71 -26 0
-42 18 -37 38 4 13 -1 27 -13 38 -18 17 -21 16 -47 -9 -16 -15 -35 -27 -44
-27 -8 0 -20 -6 -26 -13 -13 -15 8 -47 31 -47 9 0 21 -8 26 -17 27 -47 26 -47
77 -9 27 20 95 70 150 110 83 60 131 101 112 95 -2 -1 -18 -5 -36 -9z"/>
<path d="M5320 7085 l-23 -25 23 -24 c18 -20 29 -24 53 -19 30 6 30 6 25 -33
-6 -43 16 -84 46 -84 19 0 34 22 18 28 -7 2 -12 9 -12 17 0 8 21 15 59 19 33
4 65 13 71 21 7 8 26 15 42 15 l29 0 -7 53 c-4 28 -9 54 -11 57 -5 5 -6 3 -61
-75 -32 -45 -35 -47 -70 -41 -20 3 -43 14 -52 25 -8 11 -27 25 -43 30 -15 6
-32 22 -39 36 -14 31 -19 31 -48 0z"/>
<path d="M4618 7055 c-4 -58 4 -64 25 -21 15 32 15 35 -3 51 -17 15 -18 14
-22 -30z"/>
<path d="M6576 7051 c-8 -13 3 -38 20 -45 8 -3 24 -2 36 3 l21 8 -21 21 c-23
23 -47 28 -56 13z"/>
<path d="M5916 7033 c-10 -11 7 -33 26 -33 11 0 27 -4 36 -9 21 -11 62 14 46
28 -10 10 -101 21 -108 14z"/>
<path d="M4131 7021 c-20 -13 -3 -33 27 -30 15 2 33 0 40 -5 10 -6 13 -2 10
15 -2 18 -10 25 -33 27 -16 1 -36 -2 -44 -7z"/>
<path d="M6463 7006 c-25 -22 -26 -26 -13 -39 8 -8 34 -18 58 -22 l43 -7 -7
39 c-3 21 -9 41 -11 46 -9 15 -43 6 -70 -17z"/>
<path d="M5983 6924 c-6 -16 12 -34 35 -34 19 0 27 31 11 41 -21 13 -39 11
-46 -7z"/>
<path d="M4160 6915 c0 -9 9 -15 21 -15 18 0 19 2 9 15 -7 8 -16 15 -21 15 -5
0 -9 -7 -9 -15z"/>
<path d="M3935 6910 c-3 -6 0 -13 9 -16 23 -9 59 -1 64 14 3 11 0 12 -16 3
-14 -7 -23 -8 -27 -1 -8 13 -22 13 -30 0z"/>
<path d="M3630 6871 c0 -19 43 -55 54 -44 12 12 6 36 -11 49 -25 19 -43 17
-43 -5z"/>
<path d="M6652 6868 c-16 -16 -15 -33 2 -47 11 -10 17 -6 29 18 8 16 12 32 9
35 -9 10 -27 7 -40 -6z"/>
<path d="M3487 6764 c-8 -8 3 -34 14 -34 11 0 12 27 0 34 -4 3 -11 3 -14 0z"/>
<path d="M6380 6731 c0 -17 50 -61 69 -61 28 0 39 40 15 57 -20 14 -84 18 -84
4z"/>
<path d="M6126 6693 c-9 -9 -7 -33 3 -33 12 0 22 28 12 34 -5 3 -11 3 -15 -1z"/>
<path d="M6546 6672 c-2 -4 -1 -14 4 -21 6 -11 10 -9 19 8 10 17 9 21 -3 21
-8 0 -17 -4 -20 -8z"/>
<path d="M6826 6664 c-6 -16 9 -54 28 -66 21 -14 44 -9 41 10 -14 69 -16 72
-39 72 -13 0 -27 -7 -30 -16z"/>
<path d="M3530 6656 c0 -9 5 -16 10 -16 6 0 10 4 10 9 0 6 -4 13 -10 16 -5 3
-10 -1 -10 -9z"/>
<path d="M6035 6650 c-3 -5 -2 -10 4 -10 5 0 13 5 16 10 3 6 2 10 -4 10 -5 0
-13 -4 -16 -10z"/>
<path d="M3327 6633 c-12 -11 -8 -23 8 -23 8 0 15 7 15 15 0 16 -12 20 -23 8z"/>
<path d="M6885 6510 c-8 -16 -15 -31 -15 -34 0 -3 20 -14 44 -25 27 -11 49
-30 57 -47 8 -15 20 -29 27 -32 20 -6 14 36 -8 58 -11 11 -20 33 -20 49 0 20
-8 35 -22 45 -32 23 -45 20 -63 -14z"/>
<path d="M6557 6463 c-14 -13 -6 -30 18 -41 34 -16 35 -15 35 8 0 24 -38 48
-53 33z"/>
<path d="M6822 6454 c-30 -21 -30 -54 1 -46 25 6 37 20 37 45 0 21 -9 22 -38
1z"/>
<path d="M7145 6460 c-3 -6 -22 -17 -41 -25 -39 -16 -44 -30 -11 -39 42 -11
84 -6 101 12 15 18 15 20 -1 34 -29 24 -41 29 -48 18z"/>
<path d="M4763 6430 c-268 -68 -515 -222 -685 -427 -170 -203 -268 -414 -314
-675 l-6 -38 591 0 591 0 0 585 0 585 -32 0 c-18 -1 -83 -14 -145 -30z"/>
<path d="M5270 5875 l0 -585 591 0 591 0 -7 43 c-81 492 -433 913 -894 1067
-93 31 -216 60 -257 60 l-24 0 0 -585z"/>
<path d="M6880 6221 c0 -5 7 -14 15 -21 12 -10 15 -10 15 3 0 8 -7 17 -15 21
-8 3 -15 2 -15 -3z"/>
<path d="M7300 6206 c0 -9 7 -16 16 -16 17 0 14 22 -4 28 -7 2 -12 -3 -12 -12z"/>
<path d="M7130 6165 c12 -15 30 -12 30 6 0 5 -10 9 -21 9 -18 0 -19 -2 -9 -15z"/>
<path d="M7044 6115 c-4 -8 0 -22 7 -31 11 -13 14 -13 21 0 9 16 1 46 -13 46
-5 0 -12 -7 -15 -15z"/>
<path d="M7220 6119 c0 -4 18 -23 40 -43 62 -56 114 -60 140 -11 9 17 10 29 3
36 -11 11 -183 28 -183 18z"/>
<path d="M7141 6004 c-10 -23 -9 -30 10 -50 29 -31 53 -32 44 -1 -12 43 -27
77 -35 77 -4 0 -12 -12 -19 -26z"/>
<path d="M7310 6005 c-9 -11 -10 -19 -3 -26 7 -7 14 -5 23 6 9 11 10 19 3 26
-7 7 -14 5 -23 -6z"/>
<path d="M7467 5996 c-12 -9 -15 -16 -7 -21 7 -5 4 -18 -10 -41 -25 -44 -25
-46 5 -32 19 9 25 19 25 44 0 18 5 36 10 39 12 7 13 25 3 25 -5 0 -16 -7 -26
-14z"/>
<path d="M6860 5980 c-13 -8 -12 -11 5 -24 31 -24 57 -20 53 7 -3 24 -33 33
-58 17z"/>
<path d="M7281 5946 c-8 -10 -9 -16 -1 -21 5 -3 13 1 16 10 9 22 -1 29 -15 11z"/>
<path d="M7170 5843 c0 -22 2 -25 10 -13 13 20 13 40 0 40 -5 0 -10 -12 -10
-27z"/>
<path d="M7325 5860 c-7 -12 2 -30 16 -30 5 0 9 9 9 20 0 21 -15 27 -25 10z"/>
<path d="M7461 5811 c-17 -11 -7 -41 13 -41 21 0 25 -30 8 -72 -8 -21 -12 -45
-8 -53 3 -8 0 -15 -7 -16 -41 -4 -74 5 -88 23 -13 16 -17 18 -21 7 -3 -8 -1
-22 3 -31 7 -13 0 -26 -27 -52 -37 -36 -37 -36 -30 -100 5 -52 4 -65 -9 -70
-8 -3 -15 -16 -15 -29 0 -13 -4 -27 -9 -33 -5 -5 -12 -19 -16 -31 -5 -20 -3
-23 18 -23 14 0 27 6 30 13 4 10 7 10 18 0 8 -8 43 -13 96 -13 70 0 81 2 76
15 -3 9 -26 27 -52 40 -58 30 -96 78 -103 132 -7 46 7 66 52 78 31 7 115 -28
125 -52 6 -17 7 -17 20 1 11 14 13 37 8 93 -6 71 -5 75 22 103 20 21 24 30 14
30 -8 0 -20 -5 -26 -11 -8 -8 -13 0 -18 30 -10 60 -39 84 -74 62z"/>
<path d="M7220 5776 c0 -22 -4 -26 -29 -26 -20 0 -34 -8 -45 -25 -21 -32 -13
-31 71 4 61 26 96 61 61 61 -7 0 -23 3 -35 6 -20 5 -23 2 -23 -20z"/>
<path d="M7221 5651 c-19 -12 -6 -41 17 -41 21 0 56 33 45 43 -9 10 -45 8 -62
-2z"/>
<path d="M6934 5606 c-7 -19 3 -36 22 -36 10 0 14 8 12 22 -4 26 -26 36 -34
14z"/>
<path d="M7627 5553 c-11 -10 -8 -53 3 -53 13 0 32 38 25 50 -7 12 -19 13 -28
3z"/>
<path d="M7190 5476 c0 -9 5 -16 10 -16 6 0 10 4 10 9 0 6 -4 13 -10 16 -5 3
-10 -1 -10 -9z"/>
<path d="M6947 5426 c-9 -22 18 -26 31 -5 10 16 9 19 -7 19 -10 0 -21 -6 -24
-14z"/>
<path d="M7096 5413 c-10 -10 -7 -41 4 -48 12 -7 40 12 40 26 0 12 -36 30 -44
22z"/>
<path d="M6964 5376 c-4 -9 -4 -20 0 -23 3 -4 12 -1 18 5 9 9 9 15 0 24 -9 9
-13 7 -18 -6z"/>
<path d="M6913 5322 c-25 -4 -32 -32 -9 -32 13 0 43 28 35 33 -2 2 -14 1 -26
-1z"/>
<path d="M3765 4908 c70 -443 355 -821 768 -1018 93 -45 266 -98 370 -113 l37
-6 0 590 0 589 -591 0 -591 0 7 -42z"/>
<path d="M5272 4363 l3 -588 35 3 c19 2 86 17 148 32 397 100 746 409 902 798
35 86 90 288 90 330 0 9 -125 12 -590 12 l-590 0 2 -587z"/>
<path d="M7095 4930 c13 -15 22 -17 36 -10 35 19 31 30 -12 30 -41 0 -42 0
-24 -20z"/>
<path d="M7250 4913 c0 -39 9 -36 28 10 10 24 10 27 -8 27 -16 0 -20 -7 -20
-37z"/>
<path d="M7398 4938 c7 -7 12 -24 12 -38 0 -24 -3 -26 -30 -22 -24 3 -35 -2
-56 -27 -30 -36 -46 -38 -82 -11 -15 13 -29 17 -35 11 -15 -15 10 -49 43 -56
16 -4 30 -8 30 -9 0 -2 -5 -17 -11 -35 l-11 -31 -53 28 c-38 21 -57 26 -64 19
-8 -8 -5 -17 8 -31 11 -12 21 -34 23 -51 3 -27 0 -30 -27 -33 -16 -2 -35 -12
-43 -23 -7 -10 -30 -22 -52 -25 -34 -6 -39 -10 -48 -46 -8 -30 -7 -46 4 -67
24 -49 72 -53 54 -6 -17 45 9 75 30 35 6 -11 27 -27 48 -35 20 -9 40 -21 44
-28 13 -20 9 -62 -7 -83 -26 -35 -16 -36 26 -4 25 21 38 38 35 47 -9 22 49 90
81 96 19 4 42 -2 72 -19 24 -13 48 -24 53 -24 25 0 60 171 38 185 -13 8 -50
-22 -50 -42 0 -22 -28 -27 -55 -9 -28 18 -37 9 -35 -32 3 -42 2 -43 -22 -28
-13 7 -40 19 -60 25 -27 9 -39 20 -47 43 -17 48 -15 53 49 83 56 27 61 27 78
12 29 -26 73 -21 120 15 l41 32 -25 33 -25 33 34 48 c47 67 41 82 -36 82 -47
0 -58 -3 -49 -12z m-21 -150 c-3 -8 -6 -5 -6 6 -1 11 2 17 5 13 3 -3 4 -12 1
-19z"/>
<path d="M7630 4930 c0 -6 12 -23 28 -38 l27 -27 3 23 c2 13 -2 30 -8 38 -14
16 -50 19 -50 4z"/>
<path d="M7555 4910 c-4 -7 -3 -16 3 -22 14 -14 45 -2 40 15 -6 16 -34 21 -43
7z"/>
<path d="M6895 4900 c-4 -6 15 -10 49 -10 31 0 56 5 56 10 0 6 -22 10 -49 10
-28 0 -53 -4 -56 -10z"/>
<path d="M3367 4873 c-12 -11 -8 -60 6 -71 9 -8 12 0 13 34 1 42 -4 52 -19 37z"/>
<path d="M6955 4841 c-36 -12 -75 -34 -75 -42 0 -14 23 -59 30 -59 4 0 13 14
20 30 14 34 55 60 95 60 15 0 24 4 20 10 -7 11 -59 12 -90 1z"/>
<path d="M7674 4787 c-7 -21 -2 -48 11 -48 17 -1 25 39 10 51 -12 10 -16 9
-21 -3z"/>
<path d="M7778 4768 c-9 -7 -39 -46 -68 -86 -29 -41 -57 -70 -63 -66 -7 3 4
-9 23 -26 37 -33 76 -58 67 -43 -4 5 12 56 34 113 38 99 41 134 7 108z"/>
<path d="M6970 4704 c-14 -36 -12 -74 3 -74 16 0 91 52 102 70 11 17 -14 30
-58 30 -31 0 -39 -4 -47 -26z"/>
<path d="M6846 4624 c-27 -26 -18 -42 32 -56 65 -19 73 9 14 51 -28 19 -32 20
-46 5z"/>
<path d="M3304 4510 c-12 -5 -25 -14 -29 -20 -8 -13 15 -8 69 16 29 13 30 13
6 13 -14 0 -35 -4 -46 -9z"/>
<path d="M6850 4505 c-7 -9 -29 -15 -53 -15 l-40 0 21 -23 21 -22 -20 -44
c-30 -67 -23 -70 36 -11 45 45 58 53 72 44 9 -6 18 -15 20 -21 2 -6 -33 -54
-77 -107 -70 -83 -85 -96 -112 -96 -25 0 -29 -3 -23 -17 5 -10 8 -29 9 -43 1
-22 -3 -25 -42 -28 -37 -3 -42 -6 -37 -22 8 -26 -10 -33 -43 -16 -24 12 -28
20 -25 41 6 28 -10 33 -33 11 -11 -11 -13 -28 -8 -69 8 -65 -10 -80 -47 -41
-12 13 -34 24 -47 24 -30 0 -76 -46 -68 -67 5 -12 13 -10 41 11 33 26 36 26
60 10 21 -13 25 -24 25 -61 0 -35 7 -54 31 -84 l30 -39 36 15 c48 20 51 20 67
-19 8 -18 24 -40 36 -49 l22 -15 -32 -47 c-19 -27 -29 -53 -26 -62 6 -14 8
-14 25 1 18 17 20 17 31 -3 6 -12 17 -21 25 -21 7 0 37 39 66 86 29 47 59 89
67 91 29 12 30 -15 2 -116 -16 -58 -27 -107 -25 -110 3 -2 38 -5 77 -6 41 -2
101 -12 138 -24 81 -26 97 -26 138 -1 30 19 46 55 20 45 -15 -6 -108 77 -108
94 0 7 12 23 27 37 24 22 28 23 43 9 19 -17 34 -19 92 -9 33 5 39 11 54 50 9
24 27 55 40 70 24 25 30 45 17 57 -3 4 -11 3 -17 -2 -6 -5 -32 -13 -58 -18
-46 -10 -47 -10 -85 28 -27 27 -47 38 -69 39 -20 0 -40 10 -59 30 -33 34 -64
38 -88 12 -26 -29 -21 -49 17 -62 73 -24 69 -53 -8 -79 -39 -14 -40 -13 -73
23 l-33 36 -78 -16 c-42 -9 -81 -16 -87 -15 -5 1 -29 4 -52 7 -42 6 -43 7 -43
43 0 21 6 46 14 56 13 19 16 19 49 3 41 -20 79 -14 75 12 -4 22 22 70 38 70
15 0 44 -27 44 -42 0 -5 29 6 64 26 56 32 70 35 110 30 49 -7 61 4 24 21 -14
6 -25 23 -29 43 -4 18 -9 35 -12 38 -11 11 -56 -9 -59 -27 -5 -29 -22 -24 -30
9 -4 16 -17 37 -27 46 -25 23 -19 64 17 118 27 42 34 42 52 -2 16 -38 31 -38
53 -1 17 29 17 30 -8 48 -66 46 -85 66 -85 88 0 25 -35 65 -56 65 -6 0 -17 -7
-24 -15z m318 -672 c-4 -22 -47 -30 -59 -12 -12 20 -1 29 32 29 24 0 30 -4 27
-17z m62 -27 c0 -14 -4 -27 -9 -31 -12 -7 -25 31 -16 45 11 18 25 10 25 -14z"/>
<path d="M6665 4500 c-7 -12 2 -30 16 -30 5 0 9 9 9 20 0 21 -15 27 -25 10z"/>
<path d="M3490 4390 c-10 -18 -7 -28 16 -61 27 -39 54 -52 54 -25 0 7 -6 19
-14 26 -8 6 -16 25 -18 42 -4 38 -23 47 -38 18z"/>
<path d="M7090 4395 c0 -8 5 -15 10 -15 6 0 10 7 10 15 0 8 -4 15 -10 15 -5 0
-10 -7 -10 -15z"/>
<path d="M7586 4256 c-31 -66 -54 -121 -51 -124 6 -7 1 -13 69 86 55 78 57 84
48 120 l-9 37 -57 -119z"/>
<path d="M3167 4342 c-24 -26 -21 -42 8 -42 17 0 28 7 34 23 15 39 -12 52 -42
19z"/>
<path d="M7406 4328 c-20 -28 -20 -38 -2 -38 16 0 48 45 39 54 -11 11 -22 6
-37 -16z"/>
<path d="M6590 4312 c0 -12 19 -26 26 -19 2 2 -2 10 -11 17 -9 8 -15 8 -15 2z"/>
<path d="M7254 4289 c-3 -6 9 -27 28 -47 33 -35 34 -39 26 -79 -5 -24 -13 -43
-18 -43 -5 0 -25 14 -44 30 -24 21 -36 43 -41 70 -8 46 -14 48 -43 17 -33 -35
-29 -86 8 -122 20 -20 37 -52 51 -99 l21 -70 19 23 c10 13 19 35 19 50 0 59 9
71 54 71 32 0 48 6 64 23 l22 23 -25 24 c-14 13 -23 30 -21 37 3 7 -13 23 -38
38 -24 14 -46 34 -49 45 -6 22 -22 26 -33 9z"/>
<path d="M2772 4250 c14 -22 24 -19 15 5 -4 8 -11 15 -17 15 -6 0 -6 -7 2 -20z"/>
<path d="M6452 4218 c3 -7 17 -14 32 -16 20 -3 27 0 24 10 -3 7 -17 14 -32 16
-20 3 -27 0 -24 -10z"/>
<path d="M3029 4023 c-5 -14 -8 -32 -5 -38 5 -13 133 -52 142 -43 3 3 -6 23
-21 43 -14 21 -25 44 -25 51 0 10 -13 14 -40 14 -35 0 -42 -4 -51 -27z"/>
<path d="M2672 3993 c2 -10 10 -18 18 -18 22 0 18 29 -3 33 -14 3 -18 -1 -15
-15z"/>
<path d="M3602 3933 c2 -10 12 -18 23 -18 11 0 21 8 23 18 3 13 -3 17 -23 17
-20 0 -26 -4 -23 -17z"/>
<path d="M7292 3938 c-16 -16 -15 -28 2 -28 16 0 29 27 17 34 -4 3 -13 0 -19
-6z"/>
<path d="M6308 3846 c-48 -31 -58 -52 -36 -74 17 -17 49 -15 82 7 29 20 30 20
58 0 32 -23 37 -62 12 -90 -25 -28 -10 -53 27 -45 40 8 49 -17 19 -49 -20 -21
-22 -28 -12 -50 16 -35 15 -37 -10 -29 -21 6 -22 6 -6 -17 23 -36 63 -47 87
-25 20 18 21 17 64 -25 34 -35 45 -53 50 -89 6 -43 3 -49 -35 -94 -22 -26 -52
-52 -64 -57 -42 -15 -24 -73 26 -84 55 -12 86 3 130 62 40 52 42 58 36 104 -4
27 -9 56 -12 63 -3 8 4 24 16 36 23 23 18 44 -8 36 -10 -3 -38 8 -64 24 -43
27 -47 32 -37 52 7 17 6 34 -4 62 -11 32 -21 42 -58 55 -51 19 -58 44 -14 51
47 8 65 22 58 48 -4 16 -19 26 -59 38 -30 9 -58 24 -64 34 -8 16 -121 92 -131
89 -2 -1 -25 -15 -51 -33z m212 -150 c-14 -18 -55 -21 -65 -6 -3 5 3 15 15 22
11 7 20 19 20 28 0 11 6 9 22 -7 18 -18 19 -24 8 -37z"/>
<path d="M6337 3729 c-8 -11 -13 -29 -10 -39 4 -14 -2 -20 -25 -25 l-31 -6 21
-35 c25 -42 35 -49 52 -34 9 7 12 24 9 49 -3 23 -1 41 6 45 13 9 15 66 2 66
-6 0 -16 -9 -24 -21z"/>
<path d="M6232 3718 c7 -20 48 -23 48 -4 0 11 -9 16 -26 16 -16 0 -24 -5 -22
-12z"/>
<path d="M6164 3676 c-18 -14 -18 -15 -1 -22 22 -8 46 11 31 26 -7 7 -17 5
-30 -4z"/>
<path d="M6005 3648 c-14 -21 -14 -23 2 -27 18 -3 46 26 37 40 -9 15 -22 10
-39 -13z"/>
<path d="M6190 3595 l-23 -25 47 4 c55 4 63 10 46 31 -18 22 -43 18 -70 -10z"/>
<path d="M6400 3590 c0 -13 5 -18 14 -14 8 3 12 12 9 20 -8 21 -23 17 -23 -6z"/>
<path d="M6093 3570 c-29 -12 -29 -36 -1 -51 18 -10 24 -8 40 11 14 17 16 26
7 36 -13 16 -16 16 -46 4z"/>
<path d="M6750 3570 c0 -5 5 -10 10 -10 6 0 10 5 10 10 0 6 -4 10 -10 10 -5 0
-10 -4 -10 -10z"/>
<path d="M5930 3565 c0 -4 8 -20 17 -38 l17 -32 6 25 c7 27 -5 50 -26 50 -8 0
-14 -2 -14 -5z"/>
<path d="M6370 3552 c0 -19 12 -42 22 -42 14 0 5 43 -9 48 -7 2 -13 -1 -13 -6z"/>
<path d="M6342 3449 c15 -79 16 -104 7 -115 -9 -12 -9 -20 1 -39 15 -28 18
-29 55 -15 30 11 25 30 -8 31 -19 1 -18 2 6 9 50 15 117 -15 117 -52 0 -14 6
-19 22 -16 23 3 41 30 53 81 6 23 4 27 -13 27 -12 0 -24 -4 -27 -10 -21 -34
-109 36 -180 143 -21 31 -41 57 -45 57 -4 0 2 -45 12 -101z"/>
<path d="M6280 3529 c0 -5 5 -7 10 -4 6 3 10 8 10 11 0 2 -4 4 -10 4 -5 0 -10
-5 -10 -11z"/>
<path d="M6808 3533 c-22 -6 -23 -17 -2 -37 19 -20 35 -20 60 -1 19 15 19 15
0 30 -20 15 -27 16 -58 8z"/>
<path d="M5816 3511 c-9 -10 -16 -25 -16 -35 0 -9 -5 -27 -11 -39 -10 -18 -8
-24 15 -42 14 -11 26 -31 26 -43 0 -12 5 -31 12 -41 10 -17 6 -25 -37 -63
l-49 -45 74 8 c77 9 90 4 90 -33 0 -11 10 -18 27 -20 35 -4 43 -34 14 -54 -12
-9 -21 -21 -21 -28 0 -29 -45 -56 -95 -56 -41 0 -53 4 -70 26 -18 23 -24 25
-42 15 -17 -9 -25 -8 -37 5 -21 21 -20 34 3 34 20 0 35 25 25 42 -4 7 -32 8
-75 4 -77 -8 -109 -2 -109 20 0 8 -4 14 -9 14 -5 0 -12 12 -16 27 -3 15 -20
42 -36 60 -23 27 -27 38 -19 53 17 31 12 37 -48 54 -74 20 -70 21 -74 -11 -2
-18 -10 -29 -23 -31 -37 -7 -45 -23 -45 -89 l0 -64 28 19 c34 24 104 22 132
-3 16 -14 17 -21 8 -32 -8 -10 -14 -11 -22 -3 -17 17 -36 11 -36 -10 0 -22
-12 -25 -41 -10 -34 19 -40 0 -13 -36 19 -25 34 -34 55 -34 16 0 29 -4 29 -10
0 -5 -4 -10 -10 -10 -5 0 -10 -7 -10 -15 0 -26 16 -16 33 20 19 40 45 45 73
14 16 -17 16 -22 4 -29 -8 -6 -18 -10 -22 -10 -5 0 -8 -12 -8 -26 0 -24 1 -24
21 -10 26 18 65 4 73 -27 7 -28 -1 -37 -30 -37 -31 0 -57 -46 -33 -61 8 -5 21
-6 29 -3 41 17 48 15 66 -16 16 -27 23 -31 48 -26 16 3 36 6 45 6 11 0 28 22
46 60 16 33 36 67 45 75 15 13 19 13 38 -5 20 -19 27 -41 23 -81 -2 -23 34
-51 61 -47 17 2 24 11 28 38 8 47 35 85 71 100 27 12 34 10 84 -24 30 -20 57
-36 59 -36 3 0 -3 21 -12 46 -17 46 -17 46 7 65 l24 20 -43 44 c-32 33 -41 47
-33 57 41 52 9 93 -67 86 -41 -4 -58 -1 -83 16 -30 21 -33 28 -54 146 -12 69
-22 126 -22 126 -5 12 -33 9 -45 -5z"/>
<path d="M6690 3511 c0 -19 26 -48 36 -39 7 8 -14 58 -26 58 -5 0 -10 -8 -10
-19z"/>
<path d="M6934 3517 c-8 -21 15 -52 29 -38 6 6 4 17 -6 32 -14 20 -17 20 -23
6z"/>
<path d="M3849 3499 c-7 -5 -27 -9 -42 -9 -25 0 -27 -2 -17 -20 6 -11 17 -20
24 -20 7 0 21 -9 32 -21 l19 -21 17 22 c10 12 18 31 18 41 0 23 -31 41 -51 28z"/>
<path d="M6181 3486 c-25 -26 -22 -60 6 -70 20 -8 33 3 61 53 l23 41 -34 0
c-23 0 -41 -8 -56 -24z"/>
<path d="M6268 3448 l-23 -23 24 -3 c26 -4 57 20 47 37 -11 17 -24 13 -48 -11z"/>
<path d="M6834 3433 c-4 -20 -2 -43 3 -52 16 -26 57 -25 88 2 33 28 29 57 -7
57 -13 0 -32 7 -42 15 -29 22 -34 19 -42 -22z"/>
<path d="M3534 3445 c-11 -8 -41 -14 -71 -15 -40 0 -53 -4 -53 -15 0 -25 65
-30 104 -7 30 18 39 19 65 9 38 -14 62 2 41 28 -16 19 -60 19 -86 0z"/>
<path d="M6034 3446 c-19 -15 -18 -15 6 -40 14 -14 52 -34 85 -44 47 -14 61
-22 63 -40 3 -19 -1 -22 -27 -22 -39 0 -47 -14 -16 -28 20 -9 28 -7 51 11 16
12 39 27 52 32 23 10 18 13 -64 46 -84 33 -89 36 -92 67 -4 36 -25 42 -58 18z"/>
<path d="M6505 3421 c-3 -6 -4 -15 -1 -20 8 -13 48 -1 43 13 -5 15 -34 20 -42
7z"/>
<path d="M5666 3405 c-19 -14 -18 -15 8 -42 23 -22 29 -25 37 -13 13 22 7 64
-11 67 -8 2 -24 -4 -34 -12z"/>
<path d="M6290 3376 c0 -9 7 -16 16 -16 9 0 14 5 12 12 -6 18 -28 21 -28 4z"/>
<path d="M6002 3358 c-25 -25 -4 -79 28 -71 16 4 19 11 14 32 -9 38 -27 54
-42 39z"/>
<path d="M4470 3334 c0 -9 5 -14 12 -12 18 6 21 28 4 28 -9 0 -16 -7 -16 -16z"/>
<path d="M4250 3322 c0 -19 18 -42 32 -42 12 0 9 35 -4 48 -17 17 -28 15 -28
-6z"/>
<path d="M5560 3320 c0 -5 8 -25 17 -44 13 -29 14 -40 5 -61 -11 -25 -11 -26
10 -20 13 4 33 18 45 31 27 29 44 30 68 4 10 -11 20 -18 22 -16 7 7 -23 60
-46 80 -18 16 -23 17 -37 5 -15 -12 -19 -11 -32 9 -14 22 -52 31 -52 12z"/>
<path d="M5750 3315 c-9 -10 -10 -19 -4 -25 13 -13 49 13 40 28 -10 16 -21 15
-36 -3z"/>
<path d="M6811 3299 c-17 -50 -15 -62 12 -54 12 4 38 10 57 13 32 7 33 8 16
22 -9 8 -25 23 -34 33 -24 25 -39 21 -51 -14z"/>
<path d="M4600 3297 c0 -8 -9 -22 -21 -33 -19 -17 -19 -19 -2 -25 10 -4 24 -2
31 3 14 12 16 68 2 68 -5 0 -10 -6 -10 -13z"/>
<path d="M3595 3281 c-8 -15 3 -31 21 -31 9 0 14 7 12 17 -4 20 -24 28 -33 14z"/>
<path d="M4876 3264 c-9 -23 -7 -36 3 -30 12 8 21 46 11 46 -4 0 -11 -7 -14
-16z"/>
<path d="M6987 3260 c-7 -26 14 -53 36 -44 22 8 22 27 -1 47 -24 22 -29 21
-35 -3z"/>
<path d="M6223 3245 c-6 -17 22 -44 47 -45 8 0 21 9 27 20 11 16 10 21 -6 30
-29 15 -61 12 -68 -5z"/>
<path d="M6399 3234 l-24 -12 29 -12 c37 -14 71 -9 71 9 0 21 -47 31 -76 15z"/>
<path d="M4870 3205 c0 -8 4 -15 10 -15 5 0 7 7 4 15 -4 8 -8 15 -10 15 -2 0
-4 -7 -4 -15z"/>
<path d="M6185 3181 c-46 -6 -50 -8 -47 -31 4 -42 57 -73 88 -52 13 8 28 93
17 90 -5 0 -30 -4 -58 -7z"/>
<path d="M5765 3170 c-7 -12 20 -60 35 -60 5 0 12 5 15 10 9 15 41 12 55 -4 9
-12 17 -13 36 -4 13 6 24 14 24 18 0 4 -28 15 -62 25 -35 9 -70 19 -79 22 -9
3 -20 0 -24 -7z"/>
<path d="M6330 3161 c-11 -8 -4 -14 34 -30 l48 -21 -7 -50 c-9 -64 -1 -76 32
-50 14 11 40 20 57 20 18 0 40 6 51 13 28 21 9 39 -39 35 l-41 -3 0 37 c0 20
-3 39 -6 43 -12 11 -114 16 -129 6z"/>
<path d="M4791 3097 c-15 -19 -7 -24 29 -19 25 3 28 7 19 18 -14 18 -33 18
-48 1z"/>
<path d="M6306 3085 c-20 -30 -20 -39 -2 -54 12 -10 18 -7 31 19 27 52 2 83
-29 35z"/>
<path d="M4532 3058 c5 -15 28 -18 29 -3 0 6 -7 12 -17 13 -10 3 -15 -1 -12
-10z"/>
<path d="M4351 3046 c-20 -24 10 -36 42 -16 l28 17 -23 7 c-32 8 -34 8 -47 -8z"/>
<path d="M5270 3049 c0 -5 18 -18 40 -29 39 -20 40 -20 40 -1 0 11 -5 23 -12
27 -17 11 -68 13 -68 3z"/>
<path d="M6213 3043 c-7 -2 -13 -9 -13 -15 0 -14 43 -6 48 10 4 12 -12 15 -35
5z"/>
<path d="M4661 3017 c-21 -26 10 -65 38 -47 17 10 10 54 -10 58 -9 1 -21 -4
-28 -11z"/>
<path d="M5358 2999 c-20 -11 -24 -34 -7 -45 15 -9 31 10 27 34 -2 17 -7 19
-20 11z"/>
<path d="M4915 2963 c-94 -22 -95 -22 -95 -58 0 -19 -4 -37 -10 -40 -5 -3 -10
-22 -10 -41 l0 -35 48 6 c98 13 91 6 91 95 0 44 -1 79 -2 79 -1 -1 -11 -3 -22
-6z"/>
<path d="M4712 2919 c2 -6 8 -10 13 -10 5 0 11 4 13 10 2 6 -4 11 -13 11 -9 0
-15 -5 -13 -11z"/>
<path d="M5270 2834 l0 -97 25 27 c13 14 30 26 37 26 9 0 9 -3 0 -12 -27 -27
-1 -39 32 -15 20 15 14 57 -8 57 -6 0 -27 25 -45 55 -18 30 -35 55 -37 55 -2
0 -4 -43 -4 -96z"/>
<path d="M5383 2888 c-18 -11 -33 -23 -33 -28 0 -14 59 -32 85 -26 21 5 26 12
23 33 -4 36 -35 45 -75 21z"/>
<path d="M6026 2885 c-5 -19 -2 -33 10 -46 22 -25 30 -24 38 4 4 15 -2 29 -18
45 l-23 24 -7 -27z"/>
<path d="M5745 2822 c-30 -47 -30 -47 -102 -56 -40 -5 -73 -12 -73 -15 0 -8
58 -41 72 -41 5 0 21 9 35 20 14 11 41 20 60 20 77 0 114 46 77 98 -22 32 -35
27 -69 -26z"/>
<path d="M4422 2808 c20 -30 63 -32 63 -3 0 16 -8 21 -39 23 -39 3 -39 3 -24
-20z"/>
<path d="M5486 2815 c-3 -10 -2 -23 4 -29 15 -15 24 1 13 26 -9 20 -10 20 -17
3z"/>
<path d="M4898 2729 c-35 -20 -16 -56 22 -44 13 4 20 15 20 31 0 25 -14 30
-42 13z"/>
<path d="M5270 2674 c0 -8 5 -12 10 -9 6 4 8 11 5 16 -9 14 -15 11 -15 -7z"/>
</g>
</svg>
