<svg id="Ebene_1" data-name="Ebene 1" xmlns="http://www.w3.org/2000/svg" viewBox="0 0 85 43"><defs><style>.cls-1{fill:#fff;}.cls-2{fill:#1a5dad;}</style></defs><title>dachser</title><g id="Ebene_2" data-name="Ebene 2"><rect class="cls-1" width="85" height="43"/></g><path class="cls-2" d="M29.28,17.82v7.32a1.88,1.88,0,0,1-1.34.09c-.3-1,0-2.05-.2-3.09a8.19,8.19,0,0,0-2.48-.06v3a1.61,1.61,0,0,1-1.5.11V17.9c.41-.32.85-.19,1.33-.1.33.84,0,1.75.24,2.65a10,10,0,0,0,2.34.15c.32-.93,0-1.83.21-2.71C28.28,17.58,28.72,17.71,29.28,17.82Z"/><path class="cls-2" d="M35.74,25.24V17.8h4.83a2.57,2.57,0,0,1,.09,1.33H37.28v1.5h2.83a1.3,1.3,0,0,1,.08,1.45H37.35a3.16,3.16,0,0,0-.05,1.78h3.32a2.11,2.11,0,0,1,0,1.38Z"/><path class="cls-2" d="M59.75,20.73l2.75,4.49H60.62l-1.87-3.13c-1.41.72-.58,2.05-.92,3.08-.39.27-.84.08-1.36.12V17.83a2,2,0,0,1,1.44,0v2.84l2.39-2.85a5.24,5.24,0,0,1,1.91-.1Z"/><path class="cls-2" d="M33.79,23.29c-.23-1-1.08-1-1.77-1.22-1-.34-2-.68-2.14-2a2.24,2.24,0,0,1,2.33-2.52c1.75-.09,2.67.7,2.7,2.31a1.91,1.91,0,0,1-1.17.1c-.37-.6-.75-1.32-1.69-1a.77.77,0,0,0-.57,1.17,8.44,8.44,0,0,0,2.2.82,2.06,2.06,0,0,1,1.56,2.16,2.15,2.15,0,0,1-1.57,2.19c-2.24.69-4.17-.54-4-2.42.36-.3.78-.1,1.18-.14C31.85,24.39,32.71,24.58,33.79,23.29Z"/><path class="cls-2" d="M17,22.11a5.86,5.86,0,0,1,.64-3.05,3.07,3.07,0,0,1,3.47-1.43,2.5,2.5,0,0,1,1.93,2.57c-.35.24-.74.07-1.15.15-.46-.76-.9-1.61-2-1.27s-1.19,1.13-1.29,2a2.59,2.59,0,0,0,.94,2.71c.91.6,1.69.13,2.31-1.32a2.09,2.09,0,0,1,1.33,0c-.2,1.67-.92,2.65-2.12,2.93-1.44.33-2.55-.19-3.59-1.71C16.72,23.32,17.37,22.57,17,22.11Z"/><path class="cls-2" d="M73.31,23.86v1.37H68.72V17.86a1.63,1.63,0,0,1,1.42,0v6Z"/><path class="cls-2" d="M79.15,22.34c0-.57-.54-.8-.77-1.22,1.08-1.69.64-3.22-1-3.37-1.16-.1-2.33,0-3.55,0V25.3h2.43a10.54,10.54,0,0,0,1.12-.08,1.82,1.82,0,0,0,1.78-1.5ZM75.32,19.2A3.37,3.37,0,0,1,77,19.12a.89.89,0,0,1,.23,1.42,3,3,0,0,1-2,.14Zm2,4.61a5.51,5.51,0,0,1-2,0V22h1.87C77.92,22.56,78,23.14,77.34,23.81Z"/><path class="cls-2" d="M46.57,23.37a2.17,2.17,0,0,0-.72-1.62c1.54-1.66.67-4-.87-4-1.24,0-2.49,0-3.8,0v7.45a1.64,1.64,0,0,0,1.51-.14V22.34a5.89,5.89,0,0,1,2,.17c.76.77.29,1.88.8,2.77.42-.06.88.2,1.28-.15C46.68,24.53,46.61,24,46.57,23.37Zm-1.64-2.55a3.22,3.22,0,0,1-2.2.26,4.29,4.29,0,0,1,0-1.92,5.34,5.34,0,0,1,1.95,0A1.2,1.2,0,0,1,44.93,20.82Z"/><path class="cls-2" d="M5.83,17.9v7.4c1.94-.11,4,.55,5.35-1.4a1,1,0,0,0,.19-.17,1.85,1.85,0,0,0,.21-.33,1.17,1.17,0,0,0,0-.26.66.66,0,0,0-.11-.24C12.18,18.11,9.91,17.16,5.83,17.9Zm3.88,5.26c-.58.87-1.49.75-2.44.64V19.21c1.07-.11,2.05-.2,2.54.83A3,3,0,0,1,9.71,23.16Z"/><path class="cls-2" d="M67.76,19.22a2.89,2.89,0,0,0-2.6-1.68,2.81,2.81,0,0,0-2.8,1.56,4.84,4.84,0,0,0,.15,5,2.66,2.66,0,0,0,2.31,1.29c2.11.08,3.43-1.41,3.44-3.89A4.42,4.42,0,0,0,67.76,19.22ZM66.42,23.1A1.47,1.47,0,0,1,65,24a1.44,1.44,0,0,1-1.39-.88,3.6,3.6,0,0,1-.16-2.79A1.6,1.6,0,0,1,65,19a1.57,1.57,0,0,1,1.61,1.3,11.94,11.94,0,0,1,.21,1.22A3.43,3.43,0,0,1,66.42,23.1Z"/><path class="cls-2" d="M53.4,23.46c.22-.61.6-1.1.43-1.8-.57-.15-1.08-.16-1.35.63l-.62-.89c1.12-1.27,1.36-2.36.66-3.16a1.72,1.72,0,0,0-2.28-.4c-1,.51-1.09,1.4-.45,3.09-1.35,1.26-1.66,2.67-.81,3.73s2,1,3.53,0c.47.82,1.21.7,2.09.56Zm-2.68.66c-1.23-.67-1.25-1.16-.07-2a3.92,3.92,0,0,1,1,1.34C51.51,23.94,51.11,24,50.72,24.12Zm.44-3.79c-.58-.62-.95-1.13,0-1.7C52,19.21,51.76,19.72,51.16,20.33Z"/><path class="cls-2" d="M17.25,24.17c-.24-.4.09-1-.45-1.29l-1.7-5.06a2.48,2.48,0,0,0-1.55,0c-.62,1.71-1.24,3.38-1.85,5.06a.29.29,0,0,0-.11.22c0,.09,0,.17,0,.25s-.15.2-.21.31,0,0,0,.08a.25.25,0,0,0,.06.16c0,.44-.43.83-.17,1.32a1.74,1.74,0,0,0,1.34-.1l.53-1.47h2.23c.48.48.29,1.2.8,1.6a2.11,2.11,0,0,0,1.33-.11Zm-3.7-1.84a6.23,6.23,0,0,1,.82-2.41L15,22.16C14.55,22.5,14.1,22.33,13.55,22.33Z"/></svg>