<svg id="Ebene_1" data-name="Ebene 1" xmlns="http://www.w3.org/2000/svg" viewBox="0 0 85 43"><defs><style>.cls-1{fill:#fff;}.cls-2{fill:#1a5dad;}.cls-3{fill:#231f20;}</style></defs><title>dachser</title><g id="Ebene_2" data-name="Ebene 2"><rect class="cls-1" width="85" height="43"/></g><g id="layer1"><path id="path1109" class="cls-2" d="M6.25,23h5c3.55,0,5.28-2.88,5.28-6.75,0-4.44-2.26-6.61-5.28-6.61h-5ZM8.81,12.14h1.83c2.54,0,3.35,1.72,3.35,4.42,0,3-1.42,4-2.9,4H8.81Z"/><path id="path1111" class="cls-2" d="M15.59,23h2.59l.91-3h4.35l.88,3H27L22.63,9.67H20ZM21.27,13h0l1.46,4.91h-3Z"/><path id="path1113" class="cls-2" d="M34.5,14.16A2.62,2.62,0,0,0,32,11.82c-2.29,0-3.16,2.25-3.16,4.59s.87,4.47,3.16,4.47c1.57,0,2.45-1.23,2.64-3h2.48c-.26,3.33-2.27,5.46-5.12,5.46-3.6,0-5.72-3.09-5.72-6.94S28.36,9.35,32,9.35a5,5,0,0,1,5,4.81Z"/><path id="path1115" class="cls-2" d="M38,9.67h2.56V14.8h4.71V9.67H47.8V23H45.24V17.27H40.53V23H38Z"/><path id="path1117" class="cls-2" d="M50.94,18.6a2.31,2.31,0,0,0,2.57,2.47c.9,0,2.27-.3,2.27-1.67S54,17.72,52.32,17.19s-3.47-1.29-3.47-3.8a4.06,4.06,0,0,1,4.35-4c2.43,0,4.66,1.22,4.66,4.31H55.39c-.09-1.61-1.08-2-2.3-2a1.56,1.56,0,0,0-1.76,1.52c0,1,.55,1.16,3.47,2,.85.24,3.45.86,3.45,3.9,0,2.45-1.68,4.28-4.84,4.28-2.57,0-5-1.46-4.95-4.75Z"/><path id="path1119" class="cls-2" d="M59.12,9.67h8.7v2.47H61.68V15h5.63v2.29H61.68v3.27H68V23H59.12Z"/><path id="path1121" class="cls-2" d="M68.73,23h2.56V17.81h2.56c1.28,0,1.76.62,1.93,2a17.53,17.53,0,0,0,.41,3.2h2.56a8.18,8.18,0,0,1-.49-3.16c-.08-1.35-.44-2.75-1.69-3.13v0a3.36,3.36,0,0,0,1.84-3.35A3.43,3.43,0,0,0,75,9.67H68.73ZM71.29,12h2.8c1.14,0,1.76.56,1.76,1.86s-.62,1.9-1.76,1.9h-2.8Z"/><path id="path1123" class="cls-3" d="M6.25,26.56H7.47v5.56H6.25Z"/><path id="path1125" class="cls-3" d="M8.45,28.1H9.5v.56h0A1.41,1.41,0,0,1,10.76,28c1.18,0,1.47.66,1.47,1.66v2.47h-1.1V29.85c0-.66-.2-1-.71-1s-.86.33-.86,1.15v2.11H8.45Z"/><path id="path1127" class="cls-3" d="M14.48,28.1h.81v.74h-.81v2c0,.37.09.47.46.47a2.07,2.07,0,0,0,.35,0v.86a4.45,4.45,0,0,1-.65,0c-.68,0-1.27-.16-1.27-1V28.84H12.7V28.1h.67V26.89h1.11Z"/><path id="path1129" class="cls-3" d="M19.66,30.38a2,2,0,1,0-4-.27,2,2,0,0,0,2.06,2.12,1.8,1.8,0,0,0,1.88-1.35h-1a.91.91,0,0,1-.87.52c-.62,0-1-.32-1-1Zm-2.91-.7a.87.87,0,0,1,.92-.86c.53,0,.78.3.88.86Z"/><path id="path1131" class="cls-3" d="M20.36,26.56h1.11v5.56H20.36Z"/><path id="path1133" class="cls-3" d="M22.37,26.56h1.11v5.56H22.37Z"/><path id="path1135" class="cls-3" d="M25.49,27.47H24.38v-.91h1.11Zm-1.11.63h1.11v4H24.38Z"/><path id="path1137" class="cls-3" d="M30.23,28.1H29.18v.53h0A1.25,1.25,0,0,0,28,28a1.8,1.8,0,0,0-1.73,2c0,1.11.51,2,1.72,2a1.36,1.36,0,0,0,1.2-.63h0v.53c0,.58-.27,1-.89,1a.74.74,0,0,1-.82-.55h-1.1c.05.92,1,1.29,1.77,1.29,1.86,0,2.09-1.12,2.09-1.78Zm-2,3.07c-.68,0-.9-.63-.9-1.2s.27-1.15.9-1.15.94.58.94,1.24a1,1,0,0,1-.94,1.11"/><path id="path1139" class="cls-3" d="M34.94,30.38a2,2,0,1,0-4-.27,2,2,0,0,0,2,2.12,1.81,1.81,0,0,0,1.89-1.35h-1a.9.9,0,0,1-.87.52c-.61,0-1-.32-1-1ZM32,29.68a.88.88,0,0,1,.92-.86c.54,0,.78.3.88.86Z"/><path id="path1141" class="cls-3" d="M35.59,28.1h1v.56h0A1.41,1.41,0,0,1,37.9,28c1.17,0,1.47.66,1.47,1.66v2.47H38.26V29.85c0-.66-.19-1-.7-1s-.86.33-.86,1.15v2.11H35.59Z"/><path id="path1143" class="cls-3" d="M41.61,28.1h.81v.74h-.81v2c0,.37.1.47.47.47a1.87,1.87,0,0,0,.34,0v.86a4.22,4.22,0,0,1-.64,0c-.68,0-1.27-.16-1.27-1V28.84h-.67V28.1h.67V26.89h1.1Z"/><path id="path1145" class="cls-3" d="M45.24,26.56h1.22V31.1h2.71v1H45.24Z"/><path id="path1147" class="cls-3" d="M49.62,30.11a2.08,2.08,0,1,0,4.16,0,2.08,2.08,0,1,0-4.16,0m1.1,0c0-.64.23-1.29,1-1.29s1,.65,1,1.29-.23,1.29-1,1.29-1-.65-1-1.29"/><path id="path1149" class="cls-3" d="M58.37,28.1h-1v.53h0A1.26,1.26,0,0,0,56.1,28a1.8,1.8,0,0,0-1.72,2c0,1.11.51,2,1.72,2a1.36,1.36,0,0,0,1.2-.63h0v.53c0,.58-.27,1-.89,1a.74.74,0,0,1-.82-.55h-1.1c.05.92,1,1.29,1.77,1.29,1.86,0,2.09-1.12,2.09-1.78Zm-2,3.07c-.68,0-.9-.63-.9-1.2s.27-1.15.9-1.15.94.58.94,1.24a1,1,0,0,1-.94,1.11"/><path id="path1151" class="cls-3" d="M60.4,27.47H59.29v-.91H60.4Zm-1.11.63H60.4v4H59.29Z"/><path id="path1153" class="cls-3" d="M62.13,30.81c0,.49.41.68.85.68s.72-.12.72-.51-.46-.45-1.25-.63-1.28-.36-1.28-1.07c0-1,.89-1.29,1.75-1.29s1.69.29,1.78,1.28H63.65c0-.43-.36-.54-.76-.54s-.62,0-.62.37.63.45,1.26.6,1.28.38,1.28,1.13c0,1.06-.92,1.4-1.84,1.4s-1.85-.35-1.9-1.42Z"/><path id="path1155" class="cls-3" d="M66.81,28.1h.81v.74h-.81v2c0,.37.1.47.47.47a1.87,1.87,0,0,0,.34,0v.86a4.4,4.4,0,0,1-.64,0c-.68,0-1.27-.16-1.27-1V28.84H65V28.1h.67V26.89h1.1Z"/><path id="path1157" class="cls-3" d="M69.53,27.47H68.42v-.91h1.11Zm-1.11.63h1.11v4H68.42Z"/><path id="path1159" class="cls-3" d="M73,29.51a.75.75,0,0,0-.82-.69c-.71,0-.94.72-.94,1.31s.22,1.27.91,1.27a.85.85,0,0,0,.88-.82h1.07a1.8,1.8,0,0,1-1.94,1.65,2,2,0,0,1-2-2.06A2,2,0,0,1,72.23,28a1.71,1.71,0,0,1,1.89,1.52Z"/><path id="path1161" class="cls-3" d="M75.73,30.81c0,.49.41.68.85.68s.73-.12.73-.51-.46-.45-1.26-.63c-.64-.14-1.28-.36-1.28-1.07,0-1,.89-1.29,1.76-1.29s1.69.29,1.77,1.28h-1c0-.43-.36-.54-.76-.54-.24,0-.61,0-.61.37s.62.45,1.25.6,1.28.38,1.28,1.13c0,1.06-.92,1.4-1.84,1.4s-1.84-.35-1.89-1.42Z"/></g></svg>