<svg id="Ebene_1" data-name="Ebene 1" xmlns="http://www.w3.org/2000/svg" xmlns:xlink="http://www.w3.org/1999/xlink" viewBox="0 0 85 43"><defs><style>.cls-1{fill:none;}.cls-2,.cls-5{fill:#fff;}.cls-3{clip-path:url(#clip-path);}.cls-4{opacity:0.05;}.cls-5,.cls-6{stroke:#000;stroke-miterlimit:10;}.cls-7{fill:#4d8814;}</style><clipPath id="clip-path"><rect class="cls-1" width="85" height="43"/></clipPath></defs><title>selbstabholung</title><g id="Ebene_2" data-name="Ebene 2"><rect class="cls-2" width="85" height="43"/></g><g class="cls-3"><g class="cls-4"><polygon class="cls-5" points="19.57 7.98 52.26 -9.45 86.13 8.66 86.02 38.22 52.08 57.22 19.46 38.66 19.57 7.98"/><polygon class="cls-6" points="63.18 -3.61 30.99 14.27 30.57 26.39 42.73 33 42.96 21.63 76.57 3.55 63.18 -3.61"/><line class="cls-5" x1="19.57" y1="7.98" x2="30.99" y2="14.27"/><polyline class="cls-5" points="42.96 21.63 51.94 26.85 86.13 8.66"/><line class="cls-5" x1="51.94" y1="26.85" x2="52.08" y2="57.22"/></g></g><path class="cls-7" d="M5.58,24.4V23.32a1.47,1.47,0,0,0,.34.24,3.12,3.12,0,0,0,.42.18,3.69,3.69,0,0,0,.45.11,2.12,2.12,0,0,0,.42,0,1.73,1.73,0,0,0,1-.22A.74.74,0,0,0,8.51,23a.59.59,0,0,0-.11-.38,1,1,0,0,0-.3-.31,4.49,4.49,0,0,0-.45-.26l-.56-.26a5.59,5.59,0,0,1-.6-.35A2,2,0,0,1,6,21.08a1.55,1.55,0,0,1-.32-.48,1.64,1.64,0,0,1,.08-1.4,1.82,1.82,0,0,1,.53-.54A2.57,2.57,0,0,1,7,18.35a3.56,3.56,0,0,1,.86-.11,3.4,3.4,0,0,1,1.44.23v1A2.3,2.3,0,0,0,8,19.11a2.5,2.5,0,0,0-.47.05,1.65,1.65,0,0,0-.41.14,1.08,1.08,0,0,0-.3.26.68.68,0,0,0-.11.38.72.72,0,0,0,.09.37.94.94,0,0,0,.25.28,2.74,2.74,0,0,0,.42.25L8,21.1a5.3,5.3,0,0,1,.62.36,3.18,3.18,0,0,1,.52.42,1.78,1.78,0,0,1,.35.51,1.39,1.39,0,0,1,.13.63,1.46,1.46,0,0,1-.71,1.34,2.24,2.24,0,0,1-.76.3,3.71,3.71,0,0,1-.9.1l-.39,0a4.11,4.11,0,0,1-.47-.07l-.46-.11A1.08,1.08,0,0,1,5.58,24.4Z"/><path class="cls-7" d="M14.12,24.65H10.59v-6.3H14v.89H11.63V21H13.8v.88H11.63v1.87h2.49Z"/><path class="cls-7" d="M18.55,24.65H15.06v-6.3h1v5.42h2.44Z"/><path class="cls-7" d="M19.28,24.65v-6.3h2a2.35,2.35,0,0,1,1.45.4,1.23,1.23,0,0,1,.53,1,1.48,1.48,0,0,1-.3.93,1.57,1.57,0,0,1-.84.56v0a1.64,1.64,0,0,1,1,.48,1.47,1.47,0,0,1,.39,1.06,1.57,1.57,0,0,1-.64,1.31,2.54,2.54,0,0,1-1.61.5Zm1-5.46V21H21a1.28,1.28,0,0,0,.86-.26.9.9,0,0,0,.31-.72c0-.54-.36-.81-1.09-.81Zm0,2.63v2h.9a1.34,1.34,0,0,0,.9-.27.94.94,0,0,0,.32-.75c0-.65-.45-1-1.36-1Z"/><path class="cls-7" d="M24.25,24.4V23.32a1.72,1.72,0,0,0,.34.24,3.25,3.25,0,0,0,.43.18,3.69,3.69,0,0,0,.45.11,2,2,0,0,0,.41,0,1.71,1.71,0,0,0,1-.22.72.72,0,0,0,.32-.64.65.65,0,0,0-.1-.38,1.26,1.26,0,0,0-.3-.31,4.72,4.72,0,0,0-.46-.26l-.56-.26c-.21-.11-.41-.23-.6-.35a2.28,2.28,0,0,1-.48-.39,1.55,1.55,0,0,1-.32-.48,1.64,1.64,0,0,1,.08-1.4,1.94,1.94,0,0,1,.53-.54,2.52,2.52,0,0,1,.75-.31,4,4,0,0,1,2.29.12v1a2.3,2.3,0,0,0-1.38-.39,2.4,2.4,0,0,0-.46.05,1.73,1.73,0,0,0-.42.14.92.92,0,0,0-.29.26.62.62,0,0,0-.12.38.72.72,0,0,0,.09.37.85.85,0,0,0,.26.28,2.22,2.22,0,0,0,.41.25c.16.08.35.17.57.26a6.27,6.27,0,0,1,.62.36,3.57,3.57,0,0,1,.51.42,1.6,1.6,0,0,1,.35.51,1.39,1.39,0,0,1,.13.63,1.57,1.57,0,0,1-.19.81,1.47,1.47,0,0,1-.52.53,2.24,2.24,0,0,1-.76.3,3.71,3.71,0,0,1-.9.1l-.38,0a4,4,0,0,1-.48-.07l-.45-.11A1.15,1.15,0,0,1,24.25,24.4Z"/><path class="cls-7" d="M33.3,19.24H31.49v5.41h-1V19.24H28.64v-.89H33.3Z"/><path class="cls-7" d="M38.57,24.65H37.42l-.57-1.6H34.37l-.54,1.6H32.69l2.36-6.3h1.17Zm-2-2.46-.88-2.51a2.47,2.47,0,0,1-.08-.4h0a3.59,3.59,0,0,1-.09.4l-.86,2.51Z"/><path class="cls-7" d="M39.25,24.65v-6.3h2a2.35,2.35,0,0,1,1.45.4,1.23,1.23,0,0,1,.53,1,1.48,1.48,0,0,1-.3.93,1.57,1.57,0,0,1-.84.56v0a1.66,1.66,0,0,1,1,.48,1.47,1.47,0,0,1,.39,1.06,1.57,1.57,0,0,1-.64,1.31,2.54,2.54,0,0,1-1.61.5Zm1-5.46V21H41a1.28,1.28,0,0,0,.86-.26.9.9,0,0,0,.31-.72c0-.54-.37-.81-1.09-.81Zm0,2.63v2h.9a1.34,1.34,0,0,0,.9-.27.94.94,0,0,0,.32-.75c0-.65-.45-1-1.36-1Z"/><path class="cls-7" d="M49.57,24.65h-1V21.92h-3v2.73h-1v-6.3h1V21h3V18.35h1Z"/><path class="cls-7" d="M53.54,24.76a2.83,2.83,0,0,1-2.18-.89,3.22,3.22,0,0,1-.82-2.3,3.41,3.41,0,0,1,.84-2.42,2.93,2.93,0,0,1,2.26-.91,2.79,2.79,0,0,1,2.14.88,3.26,3.26,0,0,1,.81,2.3,3.42,3.42,0,0,1-.83,2.44A2.86,2.86,0,0,1,53.54,24.76Zm.05-5.6a1.76,1.76,0,0,0-1.41.65,2.57,2.57,0,0,0-.54,1.7,2.59,2.59,0,0,0,.53,1.69,1.69,1.69,0,0,0,1.38.64A1.78,1.78,0,0,0,55,23.23a2.61,2.61,0,0,0,.52-1.71A2.65,2.65,0,0,0,55,19.78,1.72,1.72,0,0,0,53.59,19.16Z"/><path class="cls-7" d="M61.06,24.65H57.57v-6.3h1v5.42h2.44Z"/><path class="cls-7" d="M66.49,22.1c0,1.77-.84,2.66-2.52,2.66s-2.41-.85-2.41-2.56V18.35h1V22c0,1.23.48,1.85,1.44,1.85s1.39-.59,1.39-1.79v-3.7h1Z"/><path class="cls-7" d="M73.13,24.65H72L69,20a1.85,1.85,0,0,1-.19-.37h0a5.41,5.41,0,0,1,0,.87v4.13h-1v-6.3H69l2.91,4.52a2.94,2.94,0,0,1,.24.39h0a5.35,5.35,0,0,1,0-.85V18.35h1Z"/><path class="cls-7" d="M79.43,24.22a4.5,4.5,0,0,1-2.19.54A3.06,3.06,0,0,1,75,23.89a3.16,3.16,0,0,1-.86-2.31,3.25,3.25,0,0,1,.94-2.4,3.33,3.33,0,0,1,2.41-.94,4.6,4.6,0,0,1,1.77.31v1.08a3.08,3.08,0,0,0-1.73-.49,2.22,2.22,0,0,0-1.65.67,2.35,2.35,0,0,0-.64,1.72,2.45,2.45,0,0,0,.55,1.7,1.9,1.9,0,0,0,1.5.63,2.48,2.48,0,0,0,1.13-.25v-1.5H77.06v-.88h2.37Z"/></svg>