<svg id="Ebene_1" data-name="Ebene 1" xmlns="http://www.w3.org/2000/svg" viewBox="0 0 85 43"><defs><style>.cls-1{fill:#fff;}.cls-2{fill:#f19300;}.cls-3{fill:#1a171b;}.cls-4{fill:#1c191d;}.cls-5{fill:#201d21;}.cls-6{fill:#1e1b1f;}</style></defs><title>systemalliance</title><g id="Ebene_2" data-name="Ebene 2"><rect class="cls-1" width="85" height="43"/></g><path class="cls-2" d="M25.63,33.55c-.06-.08-.17-.07-.25-.1a1.68,1.68,0,0,1-1-2.29.17.17,0,0,0-.06-.26l-6.49-5.76c-.19-.17-.19-.17,0-.36s.27-.31.4-.46l1.1,1,5.6,5a.21.21,0,0,0,.28,0,1.7,1.7,0,1,1,1.2,3.16c-.05,0-.12,0-.15.07Z"/><path class="cls-2" d="M15.42,5.45c.07.07.17.06.25.08A1.86,1.86,0,0,1,17,7.31,1.82,1.82,0,0,1,15.6,9.05c-.14,0-.18.09-.18.24q0,4.43,0,8.85c0,.14,0,.22-.19.18a.88.88,0,0,0-.28,0c-.16,0-.18,0-.18-.17q0-4.42,0-8.85c0-.15,0-.21-.19-.26a1.82,1.82,0,0,1-1.32-1.78,1.85,1.85,0,0,1,1.38-1.75c.05,0,.12,0,.16-.06Z"/><path class="cls-2" d="M5.5,31.15s0-.07.07-.11a.84.84,0,0,1,1-.46.18.18,0,0,0,.23,0l3.1-3.28,2.29-2.42c.07-.08.11-.12.2,0s.24.17.24.26-.15.18-.23.27l-3,3.21-2.2,2.33a.14.14,0,0,0,0,.17.84.84,0,0,1-.46,1.11.85.85,0,0,1-1.12-.5s0,0,0-.05Z"/><path class="cls-3" d="M79.5,23.84H76.22c-.08,0-.11,0-.11-.1v-3c0-.1,0-.12.12-.12h3.12c.09,0,.11,0,.12.12,0,.44,0,.44-.42.44H77c-.13,0-.17,0-.16.16a1.7,1.7,0,0,1,0,.39c0,.15,0,.18.19.18h1.22c.12,0,.17,0,.17.17,0,.41,0,.41-.41.41H77c-.13,0-.16,0-.16.17a4.17,4.17,0,0,1,0,.5c0,.11,0,.14.15.14H79.5Z"/><path class="cls-3" d="M79.5,29.08a1.13,1.13,0,0,1-1.52.38.63.63,0,0,1-.27-.45c0-.08,0-.13.11-.12H78c.12,0,.17,0,.19.14a.34.34,0,0,0,.34.26.5.5,0,0,0,.5-.17.26.26,0,0,0-.12-.41,3.76,3.76,0,0,0-.48-.13,1.7,1.7,0,0,1-.32-.1.58.58,0,0,1-.11-1,1.19,1.19,0,0,1,1.22,0,.58.58,0,0,1,.17.18c.06.11.13.26,0,.32s-.25,0-.38,0,0-.07,0-.1a.31.31,0,0,0-.33-.25.4.4,0,0,0-.45.17c-.09.18,0,.33.2.39l.59.16a.71.71,0,0,1,.49.39Z"/><path class="cls-2" d="M11.08,16.64a2,2,0,0,1-.2.92c-.07.14,0,.2.07.29.5.43,1,.88,1.48,1.31.12.1.12.16,0,.26a2.11,2.11,0,0,0-.35.38c-.08.11-.13.11-.23,0l-1.45-1.29a.22.22,0,0,0-.34,0,2.2,2.2,0,0,1-2.51,0,2.24,2.24,0,1,1,3.52-1.83Z"/><path class="cls-2" d="M22.46,13.13a1.26,1.26,0,0,1,1.17.79,1.31,1.31,0,0,1-.29,1.37,1.23,1.23,0,0,1-1.37.25c-.19-.09-.27,0-.38.11l-3.54,3.76c-.12.13-.18.1-.29,0s-.21-.21,0-.43l3.54-3.76a.17.17,0,0,0,0-.24A1.25,1.25,0,0,1,22.46,13.13Z"/><path class="cls-2" d="M15.43,26.84c0,.23,0,.47,0,.71s0,.18.16.22a1.4,1.4,0,0,1,1,1.19,1.35,1.35,0,0,1-.67,1.41,1.45,1.45,0,1,1-1.26-2.59.21.21,0,0,0,.16-.24c0-.48,0-1,0-1.44,0-.13,0-.18.16-.16h.15c.34,0,.34,0,.34.35Z"/><path class="cls-3" d="M15,23.84H13.75c-.11,0-.16,0-.14-.14a1.62,1.62,0,0,0,0-.22c0-.26,0-.26.26-.26h2.34c.15,0,.18,0,.17-.17a3.09,3.09,0,0,1,0-.43c0-.12,0-.15-.15-.15H14.42a1.34,1.34,0,0,1-.35,0,.65.65,0,0,1-.52-.55,2.18,2.18,0,0,1,0-.72.72.72,0,0,1,.75-.61h2.51c.09,0,.11,0,.12.11,0,.47,0,.47-.45.47-.71,0-1.41,0-2.12,0-.12,0-.17,0-.16.16s-.07.41,0,.51.33,0,.5,0c.5,0,1,0,1.5,0a.77.77,0,0,1,.83.84c0,.14,0,.28,0,.42a.71.71,0,0,1-.75.74C15.89,23.85,15.46,23.84,15,23.84Z"/><path class="cls-3" d="M24.36,23.84H23.07c-.11,0-.14,0-.13-.14s-.06-.36,0-.45.29,0,.44,0c.72,0,1.43,0,2.14,0,.14,0,.18,0,.17-.17s.08-.44,0-.54-.35,0-.54,0H23.71a1.12,1.12,0,0,1-.62-.18c-.33-.22-.35-1.35,0-1.57a1,1,0,0,1,.51-.17h2.48c.11,0,.14,0,.13.13s.05.3,0,.4-.25,0-.38,0c-.71,0-1.42,0-2.14,0-.15,0-.19,0-.18.19a1.15,1.15,0,0,1,0,.37c0,.11,0,.14.14.14h1.88a.75.75,0,0,1,.84.85,3.62,3.62,0,0,1,0,.57.7.7,0,0,1-.75.58C25.2,23.85,24.78,23.84,24.36,23.84Z"/><path class="cls-3" d="M66.61,21.61c0,.7,0,1.38,0,2.06,0,.15,0,.19-.17.17s-.38.07-.49,0,0-.31,0-.48V20.75c0-.14,0-.17.17-.19a.81.81,0,0,1,.64.24c.73.63,1.48,1.25,2.22,1.87a1.59,1.59,0,0,1,.13.13c.06,0,0-.09,0-.13,0-.66,0-1.32,0-2,0-.1,0-.12.13-.12s.41-.06.53,0,0,.34,0,.51c0,.86,0,1.71,0,2.57,0,.13,0,.16-.17.17a.84.84,0,0,1-.65-.24C68.2,22.94,67.41,22.29,66.61,21.61Z"/><path class="cls-3" d="M34.21,23.84H32.65c-.1,0-.14,0-.14-.14q0-1.5,0-3c0-.12.05-.14.16-.14h3c.12,0,.16,0,.16.16,0,.4,0,.4-.4.4h-2c-.12,0-.17,0-.16.15a3.38,3.38,0,0,1,0,.45c0,.1,0,.13.13.13h1.29c.11,0,.14,0,.14.15,0,.43,0,.43-.42.43h-1c-.11,0-.15,0-.14.14a4.86,4.86,0,0,1,0,.54c0,.11,0,.13.14.13h2.28c.15,0,.21,0,.2.19,0,.42,0,.42-.44.42Z"/><path class="cls-3" d="M73.43,23.84a8,8,0,0,1-1.08,0,1.21,1.21,0,0,1-.67-.41,2,2,0,0,1-.06-2.3,1.46,1.46,0,0,1,1.23-.53h1.57c.11,0,.15,0,.15.15,0,.45,0,.45-.43.45H72.92a.7.7,0,0,0-.64.36,1.25,1.25,0,0,0-.13,1.22.72.72,0,0,0,.72.48H74.4c.14,0,.18,0,.17.17s.06.34,0,.43-.28,0-.42,0S73.7,23.84,73.43,23.84Z"/><path class="cls-3" d="M22,20.57l-1.11,1.18a2.4,2.4,0,0,1-.27.28.82.82,0,0,0-.32.81c0,.29,0,.58,0,.88,0,.1,0,.13-.13.12h-.54c-.09,0-.11,0-.11-.12,0-.39,0-.78,0-1.17a.39.39,0,0,0-.11-.29L17.94,20.7s-.05-.07-.11-.13h1c.07,0,.1.06.14.11.31.34.62.69.92,1,.09.09.13.08.2,0,.28-.31.57-.62.84-.94a.47.47,0,0,1,.44-.2C21.55,20.59,21.75,20.57,22,20.57Z"/><path class="cls-3" d="M29.4,20.57h1.71c.13,0,.18,0,.17.16,0,.43,0,.43-.43.43s-.63,0-.94,0c-.12,0-.14,0-.14.14,0,.79,0,1.58,0,2.37,0,.13,0,.19-.17.18a1.69,1.69,0,0,0-.45,0c-.12,0-.16,0-.16-.16,0-.78,0-1.56,0-2.34,0-.14,0-.2-.19-.2-.39,0-.78,0-1.18,0-.1,0-.13,0-.14-.13,0-.46,0-.46.45-.46Z"/><path class="cls-3" d="M50.23,22.21c0-.49,0-1,0-1.48,0-.14.05-.17.17-.16h.43c.14,0,.18,0,.18.17,0,.77,0,1.54,0,2.31,0,.16,0,.19.2.18h2c.11,0,.18,0,.16.15s.07.35,0,.44-.29,0-.43,0H50.41c-.15,0-.18-.05-.18-.19C50.24,23.18,50.23,22.69,50.23,22.21Z"/><path class="cls-3" d="M54.39,22.21c0-.5,0-1,0-1.48,0-.13,0-.17.16-.16s.47-.08.58,0,0,.37,0,.57q0,.95,0,1.89c0,.13,0,.17.16.16h1.91c.11,0,.16,0,.15.14s.06.35,0,.45-.28,0-.43,0H54.56c-.15,0-.18-.05-.18-.18C54.39,23.18,54.39,22.69,54.39,22.21Z"/><path class="cls-3" d="M43.27,27.51c0-.32,0-.64,0-1,0-.12,0-.15.15-.15.29,0,.29,0,.29.29,0,.62,0,1.24,0,1.86a1,1,0,0,1-1,1,1.87,1.87,0,0,1-.58,0,1.08,1.08,0,0,1-.89-1.1c0-.65,0-1.3,0-1.94,0-.09,0-.12.1-.12.33,0,.33,0,.33.31v1.64a.81.81,0,0,0,1.09.83.73.73,0,0,0,.55-.7v-1Z"/><path class="cls-3" d="M59.18,22.23v1.48c0,.11,0,.14-.14.14h-.53c-.09,0-.11,0-.11-.11V20.68c0-.1,0-.11.13-.11H59c.11,0,.15,0,.14.14Z"/><path class="cls-3" d="M69.65,29.61a1.22,1.22,0,0,1-.46-.09.65.65,0,0,1-.3-.27c0-.1-.13-.25-.06-.33s.25,0,.38,0,0,.06.05.1a.51.51,0,0,0,.82.18.27.27,0,0,0-.1-.46,3.9,3.9,0,0,0-.46-.12l-.32-.1a.57.57,0,0,1-.14-1,1.15,1.15,0,0,1,1.28,0l.11.12c.08.1.16.26.09.34s-.26,0-.39,0,0-.06,0-.09a.32.32,0,0,0-.32-.26c-.18,0-.36,0-.46.17s0,.32.18.38.5.13.74.22a.59.59,0,0,1,.12,1,1,1,0,0,1-.44.17A2.66,2.66,0,0,1,69.65,29.61Z"/><path class="cls-3" d="M45.19,27.65a.85.85,0,0,1,1-.28.62.62,0,0,1,.43.58c0,.5,0,1,0,1.48,0,.09,0,.12-.12.11h0c-.32,0-.27,0-.27-.26s0-.79,0-1.19a.42.42,0,0,0-.41-.46.55.55,0,0,0-.59.37,1.29,1.29,0,0,0,0,.39c0,.33,0,.66,0,1,0,.12,0,.17-.16.15h-.16c-.07,0-.11,0-.1-.09v-2c0-.09,0-.11.1-.1h0C45.17,27.37,45.17,27.37,45.19,27.65Z"/><path class="cls-3" d="M58.86,28c0-.47,0-.94,0-1.41,0-.12,0-.18.16-.16a.24.24,0,0,0,.12,0c.12,0,.16,0,.16.16,0,.81,0,1.63,0,2.44,0,.13,0,.16.16.16h1.16c.18,0,.14.1.14.2s0,.19-.15.19c-.53,0-1.07,0-1.6,0-.11,0-.14,0-.14-.14Z"/><path class="cls-3" d="M75.52,28.46a1.36,1.36,0,0,0,.11.56.47.47,0,0,0,.49.28.42.42,0,0,0,.38-.36c0-.12.19-.17.37-.12s0,.14,0,.2a.75.75,0,0,1-.69.57.84.84,0,0,1-.95-.41,1.43,1.43,0,0,1,0-1.43,1,1,0,0,1,1.29-.33.68.68,0,0,1,.28.3c0,.1.13.23.06.31s-.22,0-.34,0,0-.06-.07-.11c-.07-.24-.18-.34-.39-.34a.45.45,0,0,0-.49.3,1.6,1.6,0,0,0,0,.21C75.54,28.24,75.53,28.35,75.52,28.46Z"/><path class="cls-3" d="M72.14,26.79v.46c0,.08,0,.13.11.12a1.62,1.62,0,0,0,.22,0c.14,0,.18,0,.17.17s0,.14-.13.14c-.37,0-.37,0-.37.36V29c0,.26.09.34.35.32.06,0,.15-.05.12.07s.09.23-.1.24h0c-.49,0-.8,0-.76-.66,0-.37,0-.73,0-1.09,0-.16,0-.2-.19-.18s-.19,0-.18-.17,0-.15.14-.13.25,0,.23-.21S71.72,26.87,72.14,26.79Z"/><path class="cls-3" d="M50,26.79c0,.16,0,.31,0,.46s0,.13.12.12a1.41,1.41,0,0,0,.21,0c.16,0,.18,0,.18.17s0,.14-.15.14c-.36,0-.36,0-.36.35V29c0,.26.09.35.35.33.06,0,.15-.05.13.08s.08.23-.11.23h-.09c-.47,0-.71,0-.7-.65,0-.36,0-.71,0-1.07,0-.17,0-.26-.22-.22s-.15,0-.16-.15.05-.17.17-.15.21,0,.21-.19S49.59,26.87,50,26.79Z"/><path class="cls-4" d="M47.9,28.45c0-.31,0-.62,0-.93,0-.13,0-.17.16-.15h.1c.13,0,.16,0,.16.15,0,.62,0,1.24,0,1.86,0,.14,0,.17-.17.17s-.25,0-.25-.26Z"/><path class="cls-4" d="M67.8,28.46c0,.31,0,.62,0,.93,0,.12,0,.17-.16.15H67.5c-.09,0-.12,0-.12-.12V27.48c0-.09,0-.11.11-.11.31,0,.31,0,.31.29Z"/><path class="cls-4" d="M73.63,28.46c0-.32,0-.63,0-.95,0-.12,0-.16.15-.14H74c.07,0,.1,0,.1.09q0,1,0,2c0,.08,0,.11-.11.1h-.16c-.12,0-.16,0-.16-.15C73.63,29.08,73.63,28.77,73.63,28.46Z"/><path class="cls-5" d="M73.83,26.87c-.24,0-.24,0-.24-.22s0-.24.29-.24.21,0,.21.26S74.09,26.87,73.83,26.87Z"/><path class="cls-6" d="M67.59,26.87c-.25,0-.25,0-.25-.24s0-.22.29-.22.2,0,.2.27S67.83,26.87,67.59,26.87Z"/><path class="cls-6" d="M48.11,26.87c-.24,0-.24,0-.24-.24s0-.2.28-.22.21.11.21.25S48.35,26.87,48.11,26.87Z"/><path class="cls-3" d="M41.7,21c0-.38,0-.37-.39-.38a.39.39,0,0,0-.38.19c-.44.59-.9,1.18-1.36,1.78-.42-.54-.86-1.06-1.25-1.62a.73.73,0,0,0-.75-.36c-.13,0-.16,0-.16.17,0,.88,0,1.76,0,2.64,0,.16-.06.36,0,.45s.3,0,.45,0,.15,0,.15-.14c0-.64,0-1.27,0-1.91v-.2l1.31,1.76c.11.15.21.15.32,0l1.13-1.5a2.2,2.2,0,0,0,.15-.26s0-.06,0-.05,0,.08,0,.12c0,.69,0,1.38,0,2.07,0,.1,0,.12.12.11a3.05,3.05,0,0,1,.43,0c.13,0,.17,0,.17-.17C41.69,22.77,41.7,21.86,41.7,21Z"/><path class="cls-3" d="M49,23.72l-1.51-2.64c-.1-.18-.17-.41-.32-.5s-.4,0-.6,0a.2.2,0,0,0-.2.12l-1,1.71-.83,1.46h.68c.08,0,.11,0,.14-.09s.19-.35.28-.52a.17.17,0,0,1,.17-.12c.62,0,1.23,0,1.84,0a.17.17,0,0,1,.18.11,5.21,5.21,0,0,0,.28.52c0,.05,0,.11.12.1h.8ZM46.1,22.5l.71-1.3.69,1.3Z"/><path class="cls-3" d="M64.72,23.7c-.5-.88-1-1.76-1.51-2.64-.09-.17-.16-.4-.31-.48s-.38,0-.57,0a.23.23,0,0,0-.24.14l-1.68,3a.22.22,0,0,0-.07.16,2.14,2.14,0,0,0,.72,0c.18-.08.22-.37.33-.55,0,0,0,0,0,0a.17.17,0,0,1,.19-.12c.6,0,1.21,0,1.82,0a.17.17,0,0,1,.18.11l.28.52s0,.1.12.1h.8A.87.87,0,0,0,64.72,23.7Zm-2.91-1.19.71-1.31.69,1.31Z"/><path class="cls-3" d="M66,27.37c-.1,0-.14,0-.13.13a.74.74,0,0,1,0,.15c-.2-.22-.28-.28-.44-.32a.94.94,0,0,0-1.09.5,1.5,1.5,0,0,0-.08,1,.8.8,0,0,0,.74.66.89.89,0,0,0,.86-.32,1.68,1.68,0,0,1-.09.65c-.11.25-.33.28-.57.27a.39.39,0,0,1-.41-.3s0-.09-.06-.09-.29-.05-.37,0,0,.22,0,.33a.47.47,0,0,0,.15.19A1.31,1.31,0,0,0,66,30.1a.76.76,0,0,0,.15-.26,1.4,1.4,0,0,0,.08-.49c0-.56,0-1.12,0-1.68C66.25,27.36,66.26,27.37,66,27.37Zm-.23,1.51a.51.51,0,0,1-.5.31.54.54,0,0,1-.51-.3,1.09,1.09,0,0,1-.1-.5.91.91,0,0,1,.1-.46.54.54,0,0,1,.51-.32.52.52,0,0,1,.5.32A1.16,1.16,0,0,1,65.72,28.88Z"/><path class="cls-3" d="M56.12,29.27v-.15c0-.84,0-1.69,0-2.53,0-.16-.05-.19-.19-.18s-.25,0-.24.18,0,.67,0,1a.92.92,0,0,0-1.58.34,1.73,1.73,0,0,0,0,.93.87.87,0,0,0,1.07.7.79.79,0,0,0,.52-.36,1.49,1.49,0,0,1,0,.17c0,.12,0,.15.15.15C56.14,29.54,56.14,29.55,56.12,29.27Zm-.41-.85a1.35,1.35,0,0,1-.08.52.54.54,0,0,1-.51.37A.51.51,0,0,1,54.6,29a1.39,1.39,0,0,1,0-1,.49.49,0,0,1,.5-.34.51.51,0,0,1,.51.32A1.08,1.08,0,0,1,55.71,28.42Z"/><path class="cls-3" d="M51.8,28.54h1.07c.37,0,.37,0,.33-.38a.86.86,0,0,0-.82-.85.93.93,0,0,0-1.05.64,1.62,1.62,0,0,0,0,.95,1,1,0,0,0,1.64.47.81.81,0,0,0,.17-.24c.12-.24.1-.26-.16-.27s-.23,0-.26.18a.31.31,0,0,1-.26.23.58.58,0,0,1-.75-.66C51.7,28.52,51.75,28.54,51.8,28.54Zm-.11-.4a.55.55,0,0,1,.54-.53.53.53,0,0,1,.54.51c0,.09,0,.13-.11.13s-.29,0-.43,0-.29,0-.43,0S51.68,28.23,51.69,28.14Z"/><path class="cls-3" d="M62.61,27.34a1.16,1.16,0,1,0,.75,1.12A1,1,0,0,0,62.61,27.34Zm.31,1.12a1.31,1.31,0,0,1-.05.39.58.58,0,0,1-.58.45.57.57,0,0,1-.6-.46,1.35,1.35,0,0,1,0-.82.62.62,0,0,1,1.16,0A1.3,1.3,0,0,1,62.92,28.46Z"/></svg>