<svg id="Ebene_1" data-name="Ebene 1" xmlns="http://www.w3.org/2000/svg" xmlns:xlink="http://www.w3.org/1999/xlink" viewBox="0 0 85 43"><defs><style>.cls-1{fill:none;}.cls-2{fill:#fff;}.cls-3{clip-path:url(#clip-path);}.cls-4{fill:url(#Unbenannter_Verlauf_2);}</style><clipPath id="clip-path"><rect class="cls-1" width="85" height="43"/></clipPath><radialGradient id="Unbenannter_Verlauf_2" cx="22" cy="43" r="58.91" gradientTransform="matrix(1, 0, 0, -1, 0, 44)" gradientUnits="userSpaceOnUse"><stop offset="0" stop-color="#9dd5f6"/><stop offset="0.07" stop-color="#98d3f5"/><stop offset="0.16" stop-color="#89cef3"/><stop offset="0.25" stop-color="#70c6ef"/><stop offset="0.35" stop-color="#4ebbea"/><stop offset="0.45" stop-color="#23ade3"/><stop offset="0.5" stop-color="#0da6e0"/><stop offset="1" stop-color="#2e77bc"/></radialGradient></defs><title>Zeichenfläche 1</title><g id="Ebene_2" data-name="Ebene 2"><rect class="cls-2" width="85" height="43"/></g><g class="cls-3"><path class="cls-4" d="M73.7-10H10.93V53H73.7V32.21a2.38,2.38,0,0,0,.37-1.39,2.16,2.16,0,0,0-.37-1.38"/><path class="cls-2" d="M16.59,17.26l-1.21-2.94-1.2,2.94m29-1.17a1.6,1.6,0,0,1-.87.15H40.17V14.6h2.18a1.79,1.79,0,0,1,.83.14.66.66,0,0,1,.37.65A.75.75,0,0,1,43.19,16.09Zm15.29,1.17-1.22-2.94L56,17.26ZM30,20.45H28.17V14.67L25.6,20.45H24.05l-2.56-5.79v5.79H17.9l-.68-1.65H13.55l-.69,1.65H11l3.16-7.39h2.62l3,7v-7h2.88l2.31,5,2.12-5H30v7.39Zm7.21,0h-5.9V13.06h5.9V14.6H33.06v1.33h4v1.52h-4v1.47h4.13Zm8.31-5.4a2.08,2.08,0,0,1-1.25,2,2.14,2.14,0,0,1,.88.62A2.14,2.14,0,0,1,45.42,19v1.45H43.64v-.93a2.21,2.21,0,0,0-.28-1.44c-.25-.26-.65-.32-1.28-.32h-1.9v2.69H38.41V13.06h4.06a4.13,4.13,0,0,1,2.13.36A1.72,1.72,0,0,1,45.5,15.05Zm2.82,5.4h-1.8V13.06h1.8Zm20.89,0h-2.5l-3.35-5.54v5.54H59.77l-.69-1.65H55.42l-.67,1.65H52.69a3.69,3.69,0,0,1-2.56-.82,3.73,3.73,0,0,1-1-2.82,3.92,3.92,0,0,1,1-2.88,3.56,3.56,0,0,1,2.67-.87h1.71v1.59H52.85a1.71,1.71,0,0,0-1.36.43,2.45,2.45,0,0,0-.5,1.68,2.54,2.54,0,0,0,.48,1.73,1.72,1.72,0,0,0,1.23.38h.79L56,13.07h2.64l3,7v-7H64.3l3.1,5.14V13.07h1.81v7.38ZM10.93,21.9h3l.68-1.64h1.52l.68,1.64h5.93V20.64l.53,1.26h3.08l.53-1.28V21.9H41.63V19.2h.29c.2,0,.26,0,.26.36V21.9h7.62v-.63a6,6,0,0,0,2.83.63h3.21l.69-1.64H58l.67,1.64h6.18V20.34l.94,1.56h5V11.6h-4.9v1.22l-.69-1.22h-5v1.22l-.63-1.22H52.74a6.15,6.15,0,0,0-3,.6v-.6H45.1v.6a2.92,2.92,0,0,0-2-.6H26l-1.15,2.66L23.65,11.6H18.26v1.22l-.59-1.22H13.06l-2.13,4.9v5.4Z"/><path class="cls-2" d="M73.7,27.34H70.48a1.22,1.22,0,0,0-.71.13.63.63,0,0,0,.13,1.09,2.11,2.11,0,0,0,.68.08l1,0a2.82,2.82,0,0,1,2,.6,1.29,1.29,0,0,1,.16.18m0,2.77a2.73,2.73,0,0,1-2.39.94H67.9V31.57h3.39a1,1,0,0,0,.72-.18.66.66,0,0,0,.2-.48.6.6,0,0,0-.21-.49.87.87,0,0,0-.62-.17c-1.66-.05-3.73.05-3.73-2.28,0-1.07.68-2.2,2.54-2.2H73.7V24.3H70.43a3.7,3.7,0,0,0-2.2.6v-.6H63.4a3.35,3.35,0,0,0-2.11.6v-.6H52.66v.6a4.6,4.6,0,0,0-2.37-.6H44.6v.6a4.08,4.08,0,0,0-2.49-.6H35.74l-1.45,1.58L32.92,24.3H23.41V34.6h9.33l1.5-1.6,1.42,1.6h5.75V32.18H42a5.72,5.72,0,0,0,2.45-.36V34.6h4.75V31.92h.23c.29,0,.32,0,.32.3V34.6H64.14a4.06,4.06,0,0,0,2.4-.66v.66h4.57a6.18,6.18,0,0,0,2.59-.47V32.21Zm-7-2.95a2,2,0,0,1,.53,1.56c0,1.59-1,2.33-2.77,2.33H61V31.57H64.4a1.05,1.05,0,0,0,.73-.18.66.66,0,0,0,.2-.48.63.63,0,0,0-.21-.49.9.9,0,0,0-.63-.17c-1.65-.05-3.72.05-3.72-2.28,0-1.07.68-2.2,2.53-2.2h3.53v1.57H63.6a1.22,1.22,0,0,0-.71.13A.62.62,0,0,0,63,28.56a2.21,2.21,0,0,0,.69.08l1,0A2.79,2.79,0,0,1,66.66,29.26ZM50.74,28.8a1.68,1.68,0,0,1-.87.15H47.73V27.3H49.9a1.69,1.69,0,0,1,.84.13.7.7,0,0,1,.37.66A.8.8,0,0,1,50.74,28.8Zm1.07.92a2,2,0,0,1,.86.62A2.11,2.11,0,0,1,53,31.69v1.46H51.19v-.92c0-.45.05-1.1-.28-1.45s-.65-.32-1.3-.32H47.73v2.69H46V25.77H50a4.35,4.35,0,0,1,2.12.35,1.72,1.72,0,0,1,.91,1.64A2.06,2.06,0,0,1,51.81,29.72ZM54,25.77h5.88V27.3H55.79v1.34h4v1.51h-4v1.46h4.13v1.53H54ZM42.13,29.18H39.85V27.3h2.3c.64,0,1.08.26,1.08.9S42.81,29.18,42.13,29.18Zm-4,3.3-2.7-3,2.7-2.91Zm-7-.87H26.76V30.15h3.87V28.64H26.76V27.3h4.42l1.93,2.15Zm14-3.41c0,2.05-1.53,2.48-3.08,2.48h-2.2v2.47H36.42l-2.17-2.44L32,33.15H25V25.77h7.1l2.17,2.42,2.24-2.42h5.64C43.55,25.77,45.13,26.16,45.13,28.2Z"/></g></svg>