<svg id="Ebene_1" data-name="Ebene 1" xmlns="http://www.w3.org/2000/svg" xmlns:xlink="http://www.w3.org/1999/xlink" viewBox="0 0 85 43"><defs><style>.cls-1{fill:none;}.cls-2,.cls-5{fill:#fff;}.cls-3{clip-path:url(#clip-path);}.cls-4{opacity:0.05;}.cls-5{stroke:#000;stroke-miterlimit:10;stroke-width:3px;}.cls-6{font-size:40px;font-family:MyriadPro-Regular, Myriad Pro;}.cls-7{fill:#4d8814;}</style><clipPath id="clip-path"><rect class="cls-1" width="85" height="43"/></clipPath></defs><title>bar</title><rect class="cls-2" width="85" height="43"/><g class="cls-3"><g class="cls-4"><rect class="cls-5" x="48.24" y="6.67" width="42.07" height="78.92" transform="translate(-9.96 20.65) rotate(-15.84)"/><path d="M64.6,29.73A17.1,17.1,0,0,1,82.53,35.4L75,9,44.66,17.59l7.61,26.84A17.1,17.1,0,0,1,64.6,29.73Z"/><text class="cls-6" transform="translate(53.57 37.32) rotate(74.16)">€</text><rect class="cls-5" x="36.33" y="5.71" width="42.07" height="78.92" transform="translate(-15.04 35.76) rotate(-30.81)"/><path d="M48.62,30.53a17.1,17.1,0,0,1,18.78.84L53.33,7.79,26.22,24l14.29,24A17.08,17.08,0,0,1,48.62,30.53Z"/><path d="M74.32,43A17.09,17.09,0,0,1,47,58.77l14.29,24L88.38,66.56Z"/><text class="cls-6" transform="translate(39.85 40.74) rotate(59.19)">€</text><rect class="cls-5" x="26.51" y="7.53" width="42.07" height="78.92" transform="translate(-19.24 49.96) rotate(-47.21)"/><path d="M35,35.42a17.08,17.08,0,0,1,18.25-4.5L33.12,12.26,11.67,35.43l20.47,19A17.07,17.07,0,0,1,35,35.42Z"/><path d="M63.18,40.09A17.09,17.09,0,0,1,41.42,63l20.47,19L83.34,58.75Z"/><text class="cls-6" transform="matrix(0.73, 0.68, -0.68, 0.73, 29.62, 47.65)">€</text></g></g><path class="cls-7" d="M10.71,25.14v-7h2.22a2.61,2.61,0,0,1,1.61.45,1.4,1.4,0,0,1,.59,1.16,1.62,1.62,0,0,1-.34,1,1.84,1.84,0,0,1-.93.63v0A1.82,1.82,0,0,1,15,22a1.66,1.66,0,0,1,.43,1.18,1.77,1.77,0,0,1-.71,1.45,2.81,2.81,0,0,1-1.79.56Zm1.15-6.07v2h.76a1.46,1.46,0,0,0,1-.29,1,1,0,0,0,.34-.8q0-.9-1.2-.9Zm0,2.92v2.22h1a1.51,1.51,0,0,0,1-.3,1,1,0,0,0,.35-.83c0-.72-.5-1.09-1.51-1.09Z"/><path class="cls-7" d="M22.5,25.14H21.23l-.63-1.79H17.84l-.6,1.79H16l2.62-7H19.9Zm-2.21-2.73-1-2.8a3.87,3.87,0,0,1-.1-.44h0a3.65,3.65,0,0,1-.09.44l-1,2.8Z"/><path class="cls-7" d="M28.87,25.14H27.51L26.4,23.26a4.73,4.73,0,0,0-.3-.44,2.09,2.09,0,0,0-.29-.3.87.87,0,0,0-.33-.17,1.18,1.18,0,0,0-.39-.06h-.47v2.85H23.46v-7h2.31a3.21,3.21,0,0,1,.9.12,2.17,2.17,0,0,1,.73.36,1.64,1.64,0,0,1,.48.59,1.9,1.9,0,0,1,.17.82,2.17,2.17,0,0,1-.11.69,1.86,1.86,0,0,1-.31.55,1.94,1.94,0,0,1-.49.41,2.45,2.45,0,0,1-.64.26v0a1.76,1.76,0,0,1,.33.24l.27.27a2.81,2.81,0,0,1,.25.31l.28.4Zm-4.25-6.06v2.27h1a1.57,1.57,0,0,0,.49-.08,1.28,1.28,0,0,0,.39-.24,1,1,0,0,0,.26-.38,1.35,1.35,0,0,0,.1-.5,1,1,0,0,0-.32-.79,1.32,1.32,0,0,0-.91-.28Z"/><path class="cls-7" d="M34.46,18.64l-3.84,5.52h3.79v1H29V24.6l3.85-5.48H29.3v-1h5.16Z"/><path class="cls-7" d="M41.31,25.14H40l-.63-1.79H36.65L36,25.14H34.77l2.63-7h1.31ZM39.1,22.41l-1-2.8c0-.09-.06-.23-.09-.44h0a2.24,2.24,0,0,1-.1.44l-1,2.8Z"/><path class="cls-7" d="M47.89,25.14H46.73v-3h-3.3v3H42.27v-7h1.16v2.95h3.3V18.13h1.16Z"/><path class="cls-7" d="M53.5,25.14H49.62v-7h1.17v6H53.5Z"/><path class="cls-7" d="M59.73,22.3c0,2-.93,2.95-2.79,2.95s-2.68-.94-2.68-2.83V18.13h1.16v4.05c0,1.37.54,2.06,1.61,2.06s1.54-.66,1.54-2V18.13h1.16Z"/><path class="cls-7" d="M67.31,25.14H66L62.7,20a2.63,2.63,0,0,1-.21-.41h0a6.66,6.66,0,0,1,0,1v4.59H61.38v-7h1.35l3.23,5c.14.21.23.35.27.43h0a5.34,5.34,0,0,1,0-.94V18.13h1.11Z"/><path class="cls-7" d="M74.51,24.66a5,5,0,0,1-2.43.59,3.41,3.41,0,0,1-2.52-1,3.49,3.49,0,0,1-1-2.56,3.59,3.59,0,0,1,1.05-2.67,3.65,3.65,0,0,1,2.67-1,5,5,0,0,1,2,.34v1.2A3.38,3.38,0,0,0,72.37,19a2.39,2.39,0,0,0-1.83.74,2.6,2.6,0,0,0-.72,1.91,2.74,2.74,0,0,0,.61,1.89,2.13,2.13,0,0,0,1.67.69A2.57,2.57,0,0,0,73.35,24V22.31H71.88v-1h2.63Z"/></svg>