<svg id="Ebene_1" data-name="Ebene 1" xmlns="http://www.w3.org/2000/svg" viewBox="0 0 85 43"><defs><style>.cls-1{fill:#fff;}.cls-2{fill:#74b730;}.cls-3{fill:#5c5c5c;}.cls-4{fill:#c1c1c1;}</style></defs><title>Zeichenfläche 1</title><g id="Ebene_2" data-name="Ebene 2"><rect class="cls-1" width="85" height="43"/></g><g id="Barzahlen_filialen"><path class="cls-2" d="M21.79,19.48V15.61a2.56,2.56,0,0,0-.05-.62,1.85,1.85,0,0,0-.52-1.36c-1.15-1.15-2.25-2.35-3.4-3.55A2.21,2.21,0,0,0,16,9.34H10.4a2.19,2.19,0,0,0-1.77.74l-3.4,3.55A1.85,1.85,0,0,0,4.71,15a2.56,2.56,0,0,0,0,.62v3.87a12.32,12.32,0,0,0-.06,1.41V21a3.65,3.65,0,0,0,.74,2.41c0,.1.1.15.15.26.32.47.68,1,1.15,1.72,1.72,2.56,3.5,5.17,5.22,7.73.58.84.94,1.2,1.31,1.2s.78-.36,1.31-1.2c1.77-2.56,3.5-5.17,5.22-7.73.47-.73.89-1.25,1.15-1.72A2.26,2.26,0,0,1,21,23.4,4,4,0,0,0,21.74,21v-.1A11.94,11.94,0,0,0,21.79,19.48Zm-7.52,4.8A46,46,0,0,1,9,24.34V19H9V14.62c0-.63.21-.94.84-1a15.1,15.1,0,0,1,6.68-.27c.42.11.84.11.74.79-.16.94-.37,1.25-1.05,1.15a13.08,13.08,0,0,0-4.28-.06c-.63.11-1,.32-1,1,.06,1.72,0,6.16,0,6.16s2.36,0,3.09-.1a2.41,2.41,0,0,0,1.41-.73A1.66,1.66,0,0,0,15.94,20c-.16-.68-.68-.89-1.31-1a5.62,5.62,0,0,0-2.09-.06c-.36.06-.73.11-.78-.41s-.21-1,.42-1.15a6.12,6.12,0,0,1,5,.68,2.15,2.15,0,0,1,.94,1.77C18.34,22.09,16.83,23.92,14.27,24.28Z"/><path class="cls-3" d="M27.85,14.52A11.1,11.1,0,0,1,30,14.36a4,4,0,0,1,2.3.52,1.7,1.7,0,0,1,.84,1.52,1.86,1.86,0,0,1-1.36,1.72h0a2,2,0,0,1,1.62,2,2.15,2.15,0,0,1-.79,1.68,4.35,4.35,0,0,1-3,.73,11.89,11.89,0,0,1-1.78-.11Zm1.46,3.18H30c1,0,1.57-.47,1.57-1.15S31,15.46,30.1,15.46a3.44,3.44,0,0,0-.84,0V17.7Zm0,3.66c.21,0,.42.05.79.05.94,0,1.77-.36,1.77-1.36s-.78-1.3-1.83-1.3h-.73Z"/><path class="cls-3" d="M38,22.46l-.1-.63h-.05a2.1,2.1,0,0,1-1.73.78,1.73,1.73,0,0,1-1.83-1.72c0-1.46,1.31-2.2,3.45-2.2v-.1c0-.37-.15-1-1.2-1A3,3,0,0,0,35,18l-.26-.94a4.11,4.11,0,0,1,2.09-.53A2.18,2.18,0,0,1,39.18,19V21.1a5.49,5.49,0,0,0,.11,1.41H38Zm-.21-2.83c-1,0-2,.21-2,1.1a.76.76,0,0,0,.83.84,1.21,1.21,0,0,0,1.15-.79.67.67,0,0,0,.05-.31Z"/><path class="cls-3" d="M40.75,18.54c0-.79,0-1.36,0-1.88H42L42,17.75h.05a1.68,1.68,0,0,1,1.56-1.25,1,1,0,0,1,.37.05v1.36c-.1,0-.26-.05-.42-.05a1.29,1.29,0,0,0-1.3,1.1c0,.15-.06.26-.06.47v3H40.75Z"/><path class="cls-3" d="M44.51,21.62l2.2-2.77.83-1H44.72V16.71h4.6v.89l-2.14,2.71c-.26.37-.58.68-.84,1h3.08v1.15H44.51Z"/><path class="cls-3" d="M53.71,22.46l-.11-.63h-.05a2.09,2.09,0,0,1-1.72.78A1.73,1.73,0,0,1,50,20.89c0-1.46,1.3-2.2,3.45-2.2v-.1c0-.37-.16-1-1.21-1a2.93,2.93,0,0,0-1.56.42l-.26-.94a4.06,4.06,0,0,1,2.08-.53A2.18,2.18,0,0,1,54.91,19V21.1a6,6,0,0,0,.1,1.41h-1.3Zm-.21-2.83c-1,0-2,.21-2,1.1a.77.77,0,0,0,.84.84,1.23,1.23,0,0,0,1.15-.79.67.67,0,0,0,0-.31Z"/><path class="cls-3" d="M56.47,14h1.47v3.45h0a1.85,1.85,0,0,1,.73-.68,2,2,0,0,1,1-.26c1,0,2,.68,2,2.51V22.4H60.24V19.16c0-.83-.32-1.46-1.1-1.46a1.19,1.19,0,0,0-1.15.84,1.05,1.05,0,0,0-.05.42V22.4H56.47Z"/><path class="cls-3" d="M63.32,14h1.46v8.47H63.32Z"/><path class="cls-3" d="M67.39,20a1.58,1.58,0,0,0,1.78,1.51,4.7,4.7,0,0,0,1.62-.26l.21,1a5.47,5.47,0,0,1-2,.37,2.73,2.73,0,0,1-3-2.93A2.88,2.88,0,0,1,68.8,16.5a2.54,2.54,0,0,1,2.51,2.82,2.29,2.29,0,0,1,0,.63ZM70,19a1.24,1.24,0,0,0-1.2-1.41A1.46,1.46,0,0,0,67.39,19Z"/><path class="cls-3" d="M72.51,18.38c0-.68,0-1.2-.05-1.72h1.31l0,.89h.05a2.07,2.07,0,0,1,1.83-1c1,0,2,.68,2,2.51v3.45H76.27V19.22c0-.84-.31-1.47-1.09-1.47a1.25,1.25,0,0,0-1.15.84,1.27,1.27,0,0,0-.06.47v3.4H72.51V18.38Z"/><path class="cls-4" d="M31.45,28a1.89,1.89,0,0,1-1.88,2.15,1.87,1.87,0,0,1-1.83-2.09A1.87,1.87,0,1,1,31.45,28Zm-3.18.11c0,.89.47,1.67,1.3,1.67s1.31-.78,1.31-1.72-.42-1.67-1.31-1.67S28.27,27.21,28.27,28.15Z"/><path class="cls-4" d="M32.13,28v-.78h.47l0,.47h0a1.16,1.16,0,0,1,1-.58c.42,0,1,.27,1,1.26v1.77h-.52V28.46c0-.47-.16-.89-.68-.89a.81.81,0,0,0-.73.53,2,2,0,0,0,0,.26v1.77h-.53V28Z"/><path class="cls-4" d="M35.48,25.85H36v4.28h-.52Z"/><path class="cls-4" d="M37.51,26.37a.32.32,0,0,1-.36.32.31.31,0,0,1-.32-.32.3.3,0,0,1,.32-.31A.31.31,0,0,1,37.51,26.37Zm-.57,3.76V27.21h.52v2.92Z"/><path class="cls-4" d="M38.35,28v-.78h.47l0,.47h0a1.14,1.14,0,0,1,1-.58c.42,0,1,.27,1,1.26v1.77h-.52V28.46c0-.47-.16-.89-.68-.89a.8.8,0,0,0-.73.53,1.71,1.71,0,0,0-.06.26v1.77H38.4V28Z"/><path class="cls-4" d="M42,28.78a.94.94,0,0,0,1,1,1.75,1.75,0,0,0,.83-.16l.11.37a2.34,2.34,0,0,1-1,.16,1.38,1.38,0,0,1-1.47-1.47,1.41,1.41,0,0,1,1.36-1.56A1.23,1.23,0,0,1,44,28.51v.27Zm1.56-.37c0-.37-.15-.89-.73-.89s-.78.52-.83.89Z"/><path class="cls-4" d="M46,30.13V25.8h.52v1.83h0a1.11,1.11,0,0,1,1-.53,1.36,1.36,0,0,1,1.26,1.52,1.41,1.41,0,0,1-1.31,1.57,1,1,0,0,1-1-.58h0v.47H46ZM46.55,29v.21a.83.83,0,0,0,.78.63c.58,0,.89-.47.89-1.15s-.31-1.1-.89-1.1a.93.93,0,0,0-.83.68c0,.06,0,.16,0,.21V29Z"/><path class="cls-4" d="M51.09,30.13,51,29.77h0a1.1,1.1,0,0,1-.89.42.84.84,0,0,1-.88-.84c0-.73.62-1.1,1.77-1.1V28.2a.6.6,0,0,0-.68-.68,2,2,0,0,0-.78.21l-.1-.36a1.76,1.76,0,0,1,.94-.27c.88,0,1.09.63,1.09,1.21V29.4a2.65,2.65,0,0,0,.05.68h-.47ZM51,28.67c-.57,0-1.25.11-1.25.68a.46.46,0,0,0,.52.52A.83.83,0,0,0,51,29.4s.05-.1.05-.15v-.58Z"/><path class="cls-4" d="M52.4,28.15v-.94h.47v.57h0a.88.88,0,0,1,.84-.62h.15v.52h-.15a.78.78,0,0,0-.74.68v1.83h-.52v-2Z"/><path class="cls-4" d="M55.64,30.13V25.8h.52v1.83h0a1.11,1.11,0,0,1,1-.53,1.35,1.35,0,0,1,1.26,1.52,1.41,1.41,0,0,1-1.31,1.57,1,1,0,0,1-1-.58h0v.47h-.47ZM56.21,29v.21a.84.84,0,0,0,.79.63c.57,0,.89-.47.89-1.15a1,1,0,0,0-.89-1.1,1,1,0,0,0-.84.68c0,.06,0,.16,0,.21V29Z"/><path class="cls-4" d="M59.45,28.78a.94.94,0,0,0,1,1,1.77,1.77,0,0,0,.84-.16l.11.37a2.4,2.4,0,0,1-1,.16,1.37,1.37,0,0,1-1.46-1.47,1.4,1.4,0,0,1,1.36-1.56,1.23,1.23,0,0,1,1.2,1.35v.27ZM61,28.41c0-.37-.16-.89-.73-.89s-.79.52-.84.89Z"/><path class="cls-4" d="M61.86,29.82l1.3-1.72c.11-.16.26-.32.37-.47H62v-.42h2.25v.31L62.9,29.25c-.1.15-.26.31-.37.47h1.73v.41h-2.4v-.31Z"/><path class="cls-4" d="M66.4,30.13l-.05-.36h0a1.12,1.12,0,0,1-.89.42.84.84,0,0,1-.89-.84c0-.73.63-1.1,1.78-1.1V28.2a.6.6,0,0,0-.68-.68,2.05,2.05,0,0,0-.79.21l-.1-.36a1.79,1.79,0,0,1,.94-.27c.89,0,1.1.63,1.1,1.21V29.4a2.65,2.65,0,0,0,.05.68H66.4Zm-.1-1.46c-.58,0-1.26.11-1.26.68a.46.46,0,0,0,.52.52.86.86,0,0,0,.74-.47s0-.1,0-.15v-.58Z"/><path class="cls-4" d="M67.71,25.85h.52v1.83h0a1.27,1.27,0,0,1,.36-.37,1.07,1.07,0,0,1,.53-.15c.41,0,1,.26,1,1.25v1.72h-.52V28.46c0-.47-.16-.89-.68-.89a.8.8,0,0,0-.73.53.39.39,0,0,0,0,.26v1.77h-.53V25.85Z"/><path class="cls-4" d="M71.05,25.85h.52v4.28h-.52Z"/><path class="cls-4" d="M72.77,28.78a.94.94,0,0,0,1,1,1.75,1.75,0,0,0,.83-.16l.11.37a2.4,2.4,0,0,1-1,.16,1.37,1.37,0,0,1-1.46-1.47,1.4,1.4,0,0,1,1.36-1.56,1.23,1.23,0,0,1,1.2,1.35v.27Zm1.57-.37c0-.37-.16-.89-.73-.89s-.79.52-.84.89Z"/><path class="cls-4" d="M75.54,28v-.78H76l0,.47h0a1.15,1.15,0,0,1,1-.58c.41,0,1,.27,1,1.26v1.77h-.52V28.46c0-.47-.16-.89-.68-.89a.8.8,0,0,0-.73.53,2,2,0,0,0,0,.26v1.77h-.53V28Z"/></g></svg>