<svg id="Ebene_1" data-name="Ebene 1" xmlns="http://www.w3.org/2000/svg" xmlns:xlink="http://www.w3.org/1999/xlink" viewBox="0 0 85 43"><defs><style>.cls-1{fill:#fff;}.cls-2{fill:url(#Unbenannter_Verlauf_4);}.cls-3{fill:url(#Unbenannter_Verlauf_3);}.cls-4{fill:url(#Unbenannter_Verlauf_3-2);}.cls-5{fill:url(#Unbenannter_Verlauf_4-2);}</style><linearGradient id="Unbenannter_Verlauf_4" x1="14.82" y1="17.77" x2="13.05" y2="23.98" gradientTransform="matrix(1, 0, 0, -1, -1.18, 42)" gradientUnits="userSpaceOnUse"><stop offset="0" stop-color="#2561ac"/><stop offset="1" stop-color="#398ccb"/></linearGradient><linearGradient id="Unbenannter_Verlauf_3" x1="12.76" y1="15.25" x2="7.49" y2="20.52" gradientTransform="matrix(1, 0, 0, -1, -1.18, 42)" gradientUnits="userSpaceOnUse"><stop offset="0" stop-color="#333"/><stop offset="1" stop-color="#666"/></linearGradient><linearGradient id="Unbenannter_Verlauf_3-2" x1="36.72" y1="15" x2="36.72" y2="25.99" xlink:href="#Unbenannter_Verlauf_3"/><linearGradient id="Unbenannter_Verlauf_4-2" x1="65.77" y1="15" x2="65.77" y2="25.99" xlink:href="#Unbenannter_Verlauf_4"/></defs><title>Zeichenfläche 1</title><g id="Ebene_2" data-name="Ebene 2"><rect class="cls-1" width="85" height="43"/></g><g id="arrow_up" data-name="arrow up"><path class="cls-2" d="M9.54,16.22A1.53,1.53,0,0,0,8.92,16a1.13,1.13,0,0,0-.58.09.33.33,0,0,0-.21.34.56.56,0,0,0,.31.4,1.53,1.53,0,0,0,.66.23A1.07,1.07,0,0,0,9.7,17a.34.34,0,0,0,.17-.36A.75.75,0,0,0,9.54,16.22Zm2.35.79a1,1,0,0,0-.34-.43,1.46,1.46,0,0,0-.58-.26c-.42-.09-.71.07-.64.37a.9.9,0,0,0,.35.43,1.62,1.62,0,0,0,.61.28C11.73,17.49,12,17.31,11.89,17Zm1.75.49a1.21,1.21,0,0,0-.33-.44,1.5,1.5,0,0,0-.52-.29c-.36-.11-.59,0-.49.34a1.14,1.14,0,0,0,.34.45,1.48,1.48,0,0,0,.54.31C13.56,18,13.75,17.81,13.64,17.5Zm.66.58a1.37,1.37,0,0,0,.46.32c.3.11.44-.06.33-.36a1.42,1.42,0,0,0-.3-.45,1.54,1.54,0,0,0-.45-.3c-.31-.12-.48,0-.36.33A1.33,1.33,0,0,0,14.3,18.08Zm-2.3,0a1.42,1.42,0,0,0-.61-.31.74.74,0,0,0-.55.08.4.4,0,0,0-.14.43,1,1,0,0,0,.37.54,1.39,1.39,0,0,0,.65.33.62.62,0,0,0,.54-.09.43.43,0,0,0,.1-.45A1.07,1.07,0,0,0,12,18.05Zm2.16,1a1.38,1.38,0,0,0-.86-.86c-.38-.11-.62.09-.51.47a1.5,1.5,0,0,0,.9.9C14.07,19.69,14.27,19.46,14.16,19.08Zm1.45.51a1.41,1.41,0,0,0-.29-.52,1.24,1.24,0,0,0-.45-.33c-.3-.11-.48.08-.37.45a1.72,1.72,0,0,0,.32.55,1.17,1.17,0,0,0,.45.34C15.57,20.18,15.71,20,15.61,19.59Zm-1.29.78A1.1,1.1,0,0,0,13.8,20a.43.43,0,0,0-.45.1.65.65,0,0,0-.1.54,1.57,1.57,0,0,0,.34.65,1,1,0,0,0,.54.37.39.39,0,0,0,.43-.15.7.7,0,0,0,.08-.54A1.42,1.42,0,0,0,14.32,20.37ZM15.69,22c.29.08.45-.21.37-.63a1.46,1.46,0,0,0-.26-.58.89.89,0,0,0-.43-.34c-.3-.1-.48.16-.39.6a1.62,1.62,0,0,0,.28.61A.79.79,0,0,0,15.69,22Zm.68,1.42a1.39,1.39,0,0,0-.21-.62.73.73,0,0,0-.4-.33.33.33,0,0,0-.35.17,1,1,0,0,0-.09.6,1.53,1.53,0,0,0,.23.66.59.59,0,0,0,.4.31.35.35,0,0,0,.34-.21A1,1,0,0,0,16.37,23.46Z"/></g><g id="arrow_down" data-name="arrow down"><path class="cls-3" d="M5.9,18.44a1.26,1.26,0,0,0,.73.21,1.27,1.27,0,0,0,.74-.21.6.6,0,0,0,.28-.5.62.62,0,0,0-.32-.48,1.28,1.28,0,0,0-.7-.19,1.31,1.31,0,0,0-.7.19.63.63,0,0,0-.31.48A.57.57,0,0,0,5.9,18.44Zm-.08,2.2a1.33,1.33,0,0,0,1.63,0A.81.81,0,0,0,7.76,20a.88.88,0,0,0-.35-.64,1.26,1.26,0,0,0-.78-.25,1.23,1.23,0,0,0-.77.25.85.85,0,0,0-.35.64A.81.81,0,0,0,5.82,20.64Zm2.93.06a1.38,1.38,0,0,0,.8.34.93.93,0,0,0,.72-.21.66.66,0,0,0,.21-.62,1,1,0,0,0-.38-.65,1.32,1.32,0,0,0-.74-.33,1,1,0,0,0-.71.19.69.69,0,0,0-.27.6A1.06,1.06,0,0,0,8.75,20.7ZM6.63,23.79a1.23,1.23,0,0,0,.88-.35,1.08,1.08,0,0,0,.34-.82,1.12,1.12,0,0,0-.37-.79,1.25,1.25,0,0,0-1.69,0,1.09,1.09,0,0,0,0,1.61A1.22,1.22,0,0,0,6.63,23.79Zm3.1.06a1,1,0,0,0,1-1.07,1.22,1.22,0,0,0-.37-.79,1.25,1.25,0,0,0-.79-.37,1,1,0,0,0-.77.26.94.94,0,0,0-.3.77,1.27,1.27,0,0,0,.37.83A1.25,1.25,0,0,0,9.73,23.85Zm2.63.15a.7.7,0,0,0,.6-.27,1,1,0,0,0,.19-.71,1.38,1.38,0,0,0-.33-.75,1.06,1.06,0,0,0-.65-.37.66.66,0,0,0-.62.21.93.93,0,0,0-.21.72,1.32,1.32,0,0,0,.34.79A1,1,0,0,0,12.36,24Zm-5.73.49a1.23,1.23,0,0,0-1.25,1.25A1.25,1.25,0,0,0,6.63,27a1.26,1.26,0,0,0,1.26-1.26,1.25,1.25,0,0,0-1.26-1.25Zm3.12,0a1.11,1.11,0,0,0-.82.34,1.3,1.3,0,0,0,0,1.75,1.1,1.1,0,0,0,1.62,0,1.25,1.25,0,0,0,0-1.69A1.08,1.08,0,0,0,9.75,24.53Zm2.64.09a.81.81,0,0,0-.65.31,1.33,1.33,0,0,0,0,1.63.81.81,0,0,0,.65.31.88.88,0,0,0,.64-.35,1.32,1.32,0,0,0,.25-.78A1.29,1.29,0,0,0,13,25,.85.85,0,0,0,12.39,24.62Zm2.53.42a.64.64,0,0,0-.49-.31.56.56,0,0,0-.49.28,1.39,1.39,0,0,0,0,1.47.58.58,0,0,0,.49.28.62.62,0,0,0,.49-.32,1.28,1.28,0,0,0,.19-.7A1.31,1.31,0,0,0,14.92,25Z"/></g><g id="BILL"><path class="cls-4" d="M28.4,21.36v-.07a2.35,2.35,0,0,0,2-2.53C30.42,16,27.49,16,26.53,16H21.89V27h4.53c1.14,0,4.31,0,4.31-2.95A2.49,2.49,0,0,0,28.4,21.36Zm-3.61-3.19h1.57c.83,0,1.2.22,1.2,1.07s-.44,1.06-1.2,1.06H24.79Zm1.76,6.67H24.79V22.46h1.63c.9,0,1.41.25,1.41,1.19A1.16,1.16,0,0,1,26.55,24.84Zm20.51-.16V16H44V27h4.7l.45-2.32ZM39.4,16h-3V27h7.11V24.68H39.4V16ZM31.88,27h3V16h-3Z"/></g><g id="PAY"><path class="cls-5" d="M59.71,19c0-2-1.39-3-3.63-3H51.65L49.56,27h3l.71-3.72h2.08A4.1,4.1,0,0,0,59.71,19ZM55.23,21H53.68l.54-2.79h1.29c.87,0,1.3.29,1.3,1.25A1.5,1.5,0,0,1,55.23,21Zm7.7-5L56.78,27H60l1.2-2.26h4L65.43,27h3l-1.7-11Zm-.61,6.59,1.46-3a13.08,13.08,0,0,0,.57-1.37h.08a13.45,13.45,0,0,0,.09,1.4l.37,3ZM76.14,16l-2.27,3.27a7.21,7.21,0,0,0-.66,1.22h-.08a10.46,10.46,0,0,0-.28-1.4l-1-3.09H68.61L71.29,23,70.52,27h3L74.29,23,79.62,16Z"/></g></svg>