<svg xmlns="http://www.w3.org/2000/svg" xmlns:xlink="http://www.w3.org/1999/xlink" viewBox="0 0 85 43"><defs><style>.cls-1{fill:none;}.cls-2,.cls-5{fill:#fff;}.cls-3{clip-path:url(#clip-path);}.cls-4{opacity:0.05;}.cls-5{stroke:#000;stroke-miterlimit:10;stroke-width:3px;}.cls-6{font-size:40px;font-family:MyriadPro-Regular, Myriad Pro;}.cls-7{fill:#4d8814;}</style><clipPath id="clip-path"><rect class="cls-1" width="85" height="43"/></clipPath></defs><title>cashondelivery</title><g id="Ebene_1" data-name="Ebene 1"><g id="Ebene_2" data-name="Ebene 2"><rect class="cls-2" width="85" height="43"/></g><g class="cls-3"><g class="cls-4"><rect class="cls-5" x="48.24" y="6.67" width="42.07" height="78.92" transform="translate(-9.96 20.65) rotate(-15.84)"/><path d="M64.6,29.73A17.1,17.1,0,0,1,82.53,35.4L75,9,44.66,17.59l7.61,26.84A17.1,17.1,0,0,1,64.6,29.73Z"/><text class="cls-6" transform="translate(53.57 37.32) rotate(74.16)">€</text><rect class="cls-5" x="36.33" y="5.71" width="42.07" height="78.92" transform="translate(-15.04 35.76) rotate(-30.81)"/><path d="M48.62,30.53a17.1,17.1,0,0,1,18.78.84L53.33,7.79,26.22,24l14.29,24A17.08,17.08,0,0,1,48.62,30.53Z"/><path d="M74.32,43A17.09,17.09,0,0,1,47,58.77l14.29,24L88.38,66.56Z"/><text class="cls-6" transform="translate(39.85 40.74) rotate(59.19)">€</text><rect class="cls-5" x="26.51" y="7.53" width="42.07" height="78.92" transform="translate(-19.24 49.96) rotate(-47.21)"/><path d="M35,35.42a17.08,17.08,0,0,1,18.25-4.5L33.12,12.26,11.67,35.43l20.47,19A17.07,17.07,0,0,1,35,35.42Z"/><path d="M63.18,40.09A17.09,17.09,0,0,1,41.42,63l20.47,19L83.34,58.75Z"/><text class="cls-6" transform="matrix(0.73, 0.68, -0.68, 0.73, 29.62, 47.65)">€</text></g></g></g><g id="Ebene_2-2" data-name="Ebene 2"><path class="cls-7" d="M26.23,19.77a4.32,4.32,0,0,1-2,.41,3.18,3.18,0,0,1-2.44-1,3.5,3.5,0,0,1-.92-2.52,3.7,3.7,0,0,1,1-2.71,3.54,3.54,0,0,1,2.61-1,4.35,4.35,0,0,1,1.69.29v1.15A3,3,0,0,0,24.67,14a2.45,2.45,0,0,0-1.85.73,2.66,2.66,0,0,0-.7,1.94,2.53,2.53,0,0,0,.66,1.84,2.27,2.27,0,0,0,1.73.69,3.14,3.14,0,0,0,1.72-.47Z"/><path class="cls-7" d="M33.31,20.06H32l-.63-1.78H28.65L28,20.06H26.77l2.63-7h1.31ZM31.1,17.33l-1-2.79c0-.09-.06-.24-.09-.44h0a2.66,2.66,0,0,1-.1.44l-1,2.79Z"/><path class="cls-7" d="M34,19.78v-1.2a1.84,1.84,0,0,0,.38.27,3.9,3.9,0,0,0,.47.2,4.54,4.54,0,0,0,.5.12,2.6,2.6,0,0,0,.46,0A2,2,0,0,0,36.85,19a.8.8,0,0,0,.36-.71.77.77,0,0,0-.12-.43,1.29,1.29,0,0,0-.33-.33,3.09,3.09,0,0,0-.51-.29l-.62-.3c-.24-.12-.46-.25-.67-.38a3.31,3.31,0,0,1-.53-.43,2,2,0,0,1-.36-.54,1.86,1.86,0,0,1-.13-.7,1.59,1.59,0,0,1,.23-.85,1.67,1.67,0,0,1,.58-.6,2.71,2.71,0,0,1,.83-.36,4.26,4.26,0,0,1,1-.11,3.77,3.77,0,0,1,1.6.25v1.15a2.55,2.55,0,0,0-1.54-.43,2.21,2.21,0,0,0-.51.05,1.4,1.4,0,0,0-.46.16.92.92,0,0,0-.33.29.7.7,0,0,0-.13.42.89.89,0,0,0,.1.41,1.19,1.19,0,0,0,.29.31,3.11,3.11,0,0,0,.46.27l.62.29a7.38,7.38,0,0,1,.69.4,3.4,3.4,0,0,1,.58.47,2.35,2.35,0,0,1,.39.56,1.76,1.76,0,0,1,.14.71,1.62,1.62,0,0,1-.79,1.49,2.5,2.5,0,0,1-.84.33,4.64,4.64,0,0,1-1,.11l-.43,0a5.24,5.24,0,0,1-.53-.08,3.81,3.81,0,0,1-.51-.12A1.71,1.71,0,0,1,34,19.78Z"/><path class="cls-7" d="M45.34,20.06H44.17V17H40.88v3H39.71v-7h1.17V16h3.29V13.06h1.17Z"/><path class="cls-7" d="M52.7,20.18a3.16,3.16,0,0,1-2.42-1,3.61,3.61,0,0,1-.91-2.56A3.79,3.79,0,0,1,50.3,14a3.23,3.23,0,0,1,2.51-1,3.08,3.08,0,0,1,2.38,1,3.61,3.61,0,0,1,.9,2.55,3.85,3.85,0,0,1-.92,2.71A3.23,3.23,0,0,1,52.7,20.18ZM52.76,14a1.94,1.94,0,0,0-1.57.72,2.86,2.86,0,0,0-.6,1.89,2.87,2.87,0,0,0,.58,1.88,1.92,1.92,0,0,0,1.54.71,2,2,0,0,0,1.58-.68,2.81,2.81,0,0,0,.59-1.9,3,3,0,0,0-.57-1.94A1.9,1.9,0,0,0,52.76,14Z"/><path class="cls-7" d="M63.31,20.06H62L58.7,14.91a1.71,1.71,0,0,1-.21-.4h0a6.5,6.5,0,0,1,0,1v4.59H57.38v-7h1.35l3.23,5a2.94,2.94,0,0,1,.26.43h0a6.47,6.47,0,0,1-.05-.94V13.06h1.12Z"/><path class="cls-7" d="M21.4,30.06v-7h2q3.87,0,3.87,3.41a3.4,3.4,0,0,1-1.07,2.61,4.14,4.14,0,0,1-2.88,1Zm1.16-6v5h.92a2.59,2.59,0,0,0,1.91-.68,2.55,2.55,0,0,0,.68-1.9A2.21,2.21,0,0,0,23.53,24Z"/><path class="cls-7" d="M32.5,30.06H28.57v-7h3.78v1H29.73v2h2.41v1H29.73v2.07H32.5Z"/><path class="cls-7" d="M37.62,30.06H33.75v-7h1.16v6h2.71Z"/><path class="cls-7" d="M39.83,30.06h-1.2v-7h1.2Z"/><path class="cls-7" d="M47,23.06l-2.52,7H43.23l-2.48-7H42l1.73,5.31a3,3,0,0,1,.13.59h0a3.19,3.19,0,0,1,.14-.6l1.77-5.3Z"/><path class="cls-7" d="M51.9,30.06H48v-7h3.77v1H49.13v2h2.41v1H49.13v2.07H51.9Z"/><path class="cls-7" d="M58.55,30.06H57.19l-1.11-1.88a3.35,3.35,0,0,0-.3-.44,1.66,1.66,0,0,0-.29-.3,1,1,0,0,0-.33-.17,1.54,1.54,0,0,0-.39-.05H54.3v2.84H53.14v-7h2.31a3.16,3.16,0,0,1,.9.12,2,2,0,0,1,.73.35,1.73,1.73,0,0,1,.48.59,2,2,0,0,1,.17.83,1.9,1.9,0,0,1-.11.68,1.74,1.74,0,0,1-.31.55,1.94,1.94,0,0,1-.49.41,2.17,2.17,0,0,1-.64.27v0a1.74,1.74,0,0,1,.33.23c.1.09.18.18.27.27a2.81,2.81,0,0,1,.25.31l.28.4ZM54.3,24v2.28h1a1.33,1.33,0,0,0,.49-.09,1,1,0,0,0,.39-.24.92.92,0,0,0,.26-.38,1.15,1.15,0,0,0,.1-.5,1,1,0,0,0-.32-.79,1.32,1.32,0,0,0-.91-.28Z"/><path class="cls-7" d="M64.1,23.06l-2.3,4.46v2.54H60.64V27.54l-2.23-4.48h1.32l1.38,3s.06.17.14.41h0a2.57,2.57,0,0,1,.16-.41l1.44-3Z"/></g></svg>