<svg id="Ebene_1" data-name="Ebene 1" xmlns="http://www.w3.org/2000/svg" xmlns:xlink="http://www.w3.org/1999/xlink" viewBox="0 0 85 43"><defs><style>.cls-1{fill:#fff;}.cls-2{fill:url(#Unbenannter_Verlauf_2);}.cls-3{fill:url(#Unbenannter_Verlauf_2-2);}.cls-4{fill:#ff8000;}.cls-5{fill:gray;}</style><linearGradient id="Unbenannter_Verlauf_2" x1="-107.63" y1="33.66" x2="-91.46" y2="33.66" gradientTransform="matrix(1.16, 0, 0, -1.16, 161.84, 53.97)" gradientUnits="userSpaceOnUse"><stop offset="0" stop-color="#ff8000"/><stop offset="0.27" stop-color="#ff8101"/><stop offset="0.48" stop-color="#ff8507"/><stop offset="0.75" stop-color="#fd9d2e"/><stop offset="0.85" stop-color="#fca73f"/><stop offset="0.92" stop-color="#fbaf4c"/><stop offset="0.98" stop-color="#fab85a"/><stop offset="1" stop-color="#fabe64"/></linearGradient><linearGradient id="Unbenannter_Verlauf_2-2" x1="-115.63" y1="33.81" x2="-109.02" y2="33.81" xlink:href="#Unbenannter_Verlauf_2"/></defs><title>clickandbuy</title><g id="Ebene_2" data-name="Ebene 2"><rect class="cls-1" width="85" height="43"/></g><path id="path7283" class="cls-2" d="M54.93,12.9,48.44,6.41a2.87,2.87,0,0,0-4.06,0,3.15,3.15,0,0,0-.84,2,3.15,3.15,0,0,0,.84,2L46,12H39.9A2.9,2.9,0,0,0,37,14.93a3.16,3.16,0,0,0,.85,2,3.16,3.16,0,0,0,2,.84H46l-1.58,1.58a3.15,3.15,0,0,0-.84,2,2.88,2.88,0,0,0,4.9,2L54.92,17a3.14,3.14,0,0,0,.84-2,3.17,3.17,0,0,0-.83-2"/><path id="path7285" class="cls-3" d="M31.57,10.93a4.19,4.19,0,0,1,2.7,1.12,4.2,4.2,0,0,1,1.12,2.71,4.19,4.19,0,0,1-1.12,2.7,3.8,3.8,0,0,1-5.41,0,4.19,4.19,0,0,1-1.12-2.7,4.21,4.21,0,0,1,1.12-2.71,4.2,4.2,0,0,1,2.71-1.12"/><path id="path4056" class="cls-4" d="M21.28,35.24a6.37,6.37,0,0,1-1,.1,2,2,0,0,1-2.19-2.2V31.52a2,2,0,0,1,2.19-2.2,5.24,5.24,0,0,1,1,.11.22.22,0,0,1,.22.23v.7c0,.13-.08.2-.22.19a7.92,7.92,0,0,0-.93-.07c-.75,0-1,.44-1,1.07v1.56c0,.65.26,1.08,1,1.08a7.26,7.26,0,0,0,.93-.07c.13,0,.21,0,.21.17V35a.23.23,0,0,1-.22.24"/><path id="path4058" class="cls-4" d="M23.36,35.23h-.83a.21.21,0,0,1-.22-.22V27.23a.22.22,0,0,1,.22-.23h.83a.22.22,0,0,1,.22.23V35a.21.21,0,0,1-.22.22"/><path id="path4060" class="cls-4" d="M25.62,35.23h-.83a.21.21,0,0,1-.22-.22V29.66a.21.21,0,0,1,.22-.22h.83a.21.21,0,0,1,.22.22V35a.21.21,0,0,1-.22.22m0-6.95h-.83a.21.21,0,0,1-.22-.22v-.83a.22.22,0,0,1,.22-.23h.83a.22.22,0,0,1,.22.23v.83a.21.21,0,0,1-.22.22"/><path id="path4062" class="cls-4" d="M30,35.24a6.33,6.33,0,0,1-1,.1,2,2,0,0,1-2.19-2.2V31.52A2,2,0,0,1,29,29.32a5.07,5.07,0,0,1,1,.11.22.22,0,0,1,.22.23v.7c0,.13-.08.2-.22.19a7.65,7.65,0,0,0-.92-.07c-.76,0-1,.44-1,1.07v1.56c0,.65.27,1.08,1,1.08a7.47,7.47,0,0,0,.93-.07c.12,0,.2,0,.2.17V35c0,.12,0,.21-.22.24"/><path id="path4064" class="cls-4" d="M35.2,35.23h-.94A.38.38,0,0,1,34,35L32.4,32l1.44-2.33a.38.38,0,0,1,.3-.22h.93a.14.14,0,0,1,.13.22L33.77,32l1.58,3a.15.15,0,0,1-.15.22m-3.09,0h-.83a.21.21,0,0,1-.22-.22V27.23a.22.22,0,0,1,.22-.23h.83a.22.22,0,0,1,.22.23V35a.21.21,0,0,1-.22.22"/><path id="path4066" class="cls-5" d="M38.64,32.81h-1c-.63,0-.88.26-.88.76s.25.7.76.7A2.41,2.41,0,0,0,38.64,34Zm1.06,2.42h-.78A.21.21,0,0,1,38.7,35V34.9a2.61,2.61,0,0,1-1.4.44,1.58,1.58,0,0,1-1.79-1.73c0-1.2.73-1.79,2-1.79.39,0,1,.05,1.11.07v-.46c0-.6-.26-.93-1-.93a8.4,8.4,0,0,0-1.55.2.17.17,0,0,1-.22-.19v-.7a.25.25,0,0,1,.22-.25,6.27,6.27,0,0,1,1.73-.24c1.54,0,2.05.72,2.05,2.11V35a.22.22,0,0,1-.22.22"/><path id="path4068" class="cls-5" d="M45.08,35.23h-.83A.21.21,0,0,1,44,35v-3.6c0-.55-.16-.9-.78-.9a2.53,2.53,0,0,0-1.08.34V35a.21.21,0,0,1-.22.22h-.83A.21.21,0,0,1,40.9,35V29.66a.21.21,0,0,1,.22-.22h.78a.22.22,0,0,1,.22.22v.17a2.44,2.44,0,0,1,1.49-.51c1.26,0,1.69.77,1.69,2V35a.21.21,0,0,1-.22.22"/><path id="path4070" class="cls-5" d="M49.18,30.67a2.64,2.64,0,0,0-1-.23c-.64,0-.88.41-.88,1v1.79c0,.58.24,1,.88,1a2.36,2.36,0,0,0,1-.27Zm1.06,4.56h-.78a.21.21,0,0,1-.22-.22v-.07a2.5,2.5,0,0,1-1.3.4c-1.28,0-1.88-.78-1.88-2v-2c0-1.24.6-2,1.88-2a2.77,2.77,0,0,1,1.24.31v-2.4A.22.22,0,0,1,49.4,27h.84a.22.22,0,0,1,.22.23V35a.22.22,0,0,1-.22.22"/><path id="path4072" class="cls-4" d="M54.57,31.43c0-.58-.23-1-.87-1a2.41,2.41,0,0,0-1,.27v3.42h.89a.85.85,0,0,0,1-1Zm-.85,3.8H51.66a.21.21,0,0,1-.22-.22V27.23a.22.22,0,0,1,.22-.23h.84a.22.22,0,0,1,.22.23v2.45A2.39,2.39,0,0,1,54,29.32c1.28,0,1.87.79,1.87,2V33.2a1.86,1.86,0,0,1-2.12,2"/><path id="path4074" class="cls-4" d="M61,35.23h-.78A.22.22,0,0,1,60,35v-.18a2.38,2.38,0,0,1-1.49.51c-1.26,0-1.69-.76-1.69-2V29.66a.21.21,0,0,1,.22-.22h.83a.21.21,0,0,1,.22.22v3.6c0,.54.16.89.78.89A2.43,2.43,0,0,0,60,33.82V29.66a.22.22,0,0,1,.22-.22H61a.21.21,0,0,1,.22.22V35a.21.21,0,0,1-.22.22"/><path id="path4076" class="cls-4" d="M64.33,37.22c0,.12-.11.21-.24.21h-.94a.16.16,0,0,1-.17-.22l.66-1.94L61.8,29.66a.16.16,0,0,1,.17-.22h.92a.26.26,0,0,1,.25.21l1.18,3.67,1.24-3.67a.29.29,0,0,1,.26-.21h.91a.16.16,0,0,1,.17.23Z"/></svg>