<svg id="Ebene_1" data-name="Ebene 1" xmlns="http://www.w3.org/2000/svg" viewBox="0 0 85 43"><defs><style>.cls-1{fill:#fff;}.cls-2{fill:#002f86;}.cls-3{fill:#99999a;}.cls-4{fill:#009cde;}</style></defs><title>Zeichenfläche 1</title><g id="Ebene_2" data-name="Ebene 2"><rect class="cls-1" width="85" height="43"/></g><path class="cls-2" d="M12.73,21.24a5.26,5.26,0,0,1-2.31.43,3.87,3.87,0,0,1-2.91-1.09,4,4,0,0,1-1.06-2.9,4.28,4.28,0,0,1,1.19-3.14,4.19,4.19,0,0,1,3.1-1.2,5.79,5.79,0,0,1,2,.3v1.75a3.48,3.48,0,0,0-1.85-.49,2.45,2.45,0,0,0-1.83.72,2.64,2.64,0,0,0-.69,1.93A2.62,2.62,0,0,0,9,19.41a2.33,2.33,0,0,0,1.77.69,3.84,3.84,0,0,0,2-.51Z"/><path class="cls-2" d="M20.77,21.53H18.69l-1.26-2.07a3.84,3.84,0,0,0-.27-.42,1.72,1.72,0,0,0-.26-.32.94.94,0,0,0-.27-.2.67.67,0,0,0-.31-.07h-.49v3.08H14v-8h2.88c1.95,0,2.93.73,2.93,2.19a2.11,2.11,0,0,1-.13.77,2.41,2.41,0,0,1-.36.65,2.46,2.46,0,0,1-.57.49,3,3,0,0,1-.75.33v0a1.29,1.29,0,0,1,.35.18,3,3,0,0,1,.33.3q.15.16.3.36c.09.13.18.25.26.38Zm-4.94-6.7v2.25h.78a1.32,1.32,0,0,0,.94-.34,1.13,1.13,0,0,0,.36-.85c0-.7-.42-1.06-1.26-1.06Z"/><path class="cls-2" d="M26.24,21.53H21.41v-8h4.64V15H23.22v1.79h2.63v1.48H23.22v1.84h3Z"/><path class="cls-2" d="M27.41,21.53v-8h2.85c2.86,0,4.29,1.3,4.29,3.92a4,4,0,0,1-1.17,3,4.35,4.35,0,0,1-3.12,1.12ZM29.23,15v5.11h.89A2.42,2.42,0,0,0,32,19.35a2.67,2.67,0,0,0,.68-1.93A2.46,2.46,0,0,0,32,15.61,2.54,2.54,0,0,0,30.11,15Z"/><path class="cls-2" d="M37.59,21.53H35.78v-8h1.81Z"/><path class="cls-2" d="M45,15h-2.3v6.58H40.84V15H38.56V13.48H45Z"/><path class="cls-2" d="M54.76,21.24a5.24,5.24,0,0,1-2.3.43,3.88,3.88,0,0,1-2.92-1.09,4,4,0,0,1-1.06-2.9,4.28,4.28,0,0,1,1.19-3.14,4.19,4.19,0,0,1,3.1-1.2,5.75,5.75,0,0,1,2,.3v1.75a3.45,3.45,0,0,0-1.84-.49,2.42,2.42,0,0,0-1.83.72,2.6,2.6,0,0,0-.7,1.93,2.58,2.58,0,0,0,.66,1.86,2.33,2.33,0,0,0,1.77.69,3.83,3.83,0,0,0,1.94-.51Z"/><path class="cls-2" d="M63.13,21.53h-2l-.57-1.79H57.71l-.56,1.79h-2l2.93-8h2.15Zm-3-3.19-.86-2.7a3.38,3.38,0,0,1-.14-.73h0a3.57,3.57,0,0,1-.14.71l-.88,2.72Z"/><path class="cls-2" d="M70.77,21.53H68.69l-1.25-2.07L67.17,19a3.23,3.23,0,0,0-.26-.32.86.86,0,0,0-.28-.2.64.64,0,0,0-.31-.07h-.49v3.08H64v-8h2.87c2,0,2.93.73,2.93,2.19a2.11,2.11,0,0,1-.13.77,2,2,0,0,1-.36.65,2.46,2.46,0,0,1-.57.49,2.92,2.92,0,0,1-.74.33v0a1.24,1.24,0,0,1,.34.18,2.3,2.3,0,0,1,.33.3q.15.16.3.36c.09.13.18.25.26.38Zm-4.94-6.7v2.25h.79a1.34,1.34,0,0,0,.94-.34,1.16,1.16,0,0,0,.36-.85c0-.7-.43-1.06-1.27-1.06Z"/><path class="cls-2" d="M71.41,21.53v-8h2.85c2.86,0,4.29,1.3,4.29,3.92a4,4,0,0,1-1.17,3,4.35,4.35,0,0,1-3.12,1.12ZM73.22,15v5.11h.9A2.42,2.42,0,0,0,76,19.35a2.67,2.67,0,0,0,.67-1.93A2.46,2.46,0,0,0,76,15.61,2.56,2.56,0,0,0,74.11,15Z"/><path class="cls-3" d="M47.7,28.26c0,.2-.07.38-.07.38H47.2c.17-1.13.36-2.27.54-3.4h.44c-.06.42-.13.83-.2,1.29a1.18,1.18,0,0,1,.69-.37,1,1,0,0,1,1.19.86,1.49,1.49,0,0,1-1.12,1.68A.89.89,0,0,1,47.7,28.26Zm.12-.7v.1a.66.66,0,0,0,.92.61,1,1,0,0,0,.67-1.09.65.65,0,0,0-.75-.62A1,1,0,0,0,47.82,27.56Z"/><path class="cls-3" d="M46.07,25.23c-.06.38-.11.73-.16,1.09-.12.73-.26,1.59-.37,2.32h-.43c0-.1,0-.19,0-.31l-.09.08a1.17,1.17,0,0,1-1.24.23,1,1,0,0,1-.58-1,1.56,1.56,0,0,1,.59-1.25,1.07,1.07,0,0,1,1.58.15l.15-.88c0-.13,0-.34.08-.47ZM44.22,28.3h.26l.12,0a1,1,0,0,0,.58-1.46.6.6,0,0,0-.54-.27,1,1,0,0,0-.91,1.24A.62.62,0,0,0,44.22,28.3Z"/><path class="cls-3" d="M35.36,26.23c.08.63.17,1.25.25,1.87.17-.39.34-.78.5-1.17.09-.2.22-.5.3-.7h.46l-.09.2c-.32.69-.7,1.52-1,2.21h-.45c-.09-.6-.17-1.19-.26-1.82A1.16,1.16,0,0,1,35,27l-.75,1.66h-.45c-.11-.8-.23-1.6-.34-2.41h.44c.07.6.14,1.22.22,1.85l.07-.14c.23-.51.54-1.19.76-1.71Z"/><path class="cls-3" d="M28.11,28.62c.18-1.13.36-2.25.54-3.41a13,13,0,0,1,1.4.07c.57.08.82.55.71,1.17a1.19,1.19,0,0,1-1.22,1c-.24,0-.49,0-.76,0-.06.4-.13.8-.19,1.19ZM28.84,27c.25,0,.48,0,.71,0a.79.79,0,0,0,.74-.9.51.51,0,0,0-.45-.49c-.25,0-.51,0-.77,0C29,26.1,28.92,26.56,28.84,27Z"/><path class="cls-3" d="M43,27.59H41.17a.63.63,0,0,0,.6.74,1.48,1.48,0,0,0,1-.23l0,.37a3.45,3.45,0,0,1-.33.16,1.64,1.64,0,0,1-.82.08,1,1,0,0,1-.86-.9,1.47,1.47,0,0,1,1-1.61,1.77,1.77,0,0,1,.56,0,.89.89,0,0,1,.79,1A3.8,3.8,0,0,1,43,27.59Zm-1.78-.38h1.39a.55.55,0,0,0-.36-.66A.88.88,0,0,0,41.23,27.21Z"/><path class="cls-3" d="M39,27.59H37.16a.63.63,0,0,0,.6.74,1.5,1.5,0,0,0,1-.23l0,.37-.33.16a1.64,1.64,0,0,1-.82.08,1,1,0,0,1-.86-.9,1.46,1.46,0,0,1,1-1.61,1.77,1.77,0,0,1,.56,0,.89.89,0,0,1,.79,1C39,27.29,39,27.43,39,27.59Zm-1.78-.38h1.39a.56.56,0,0,0-.36-.66A.87.87,0,0,0,37.22,27.21Z"/><path class="cls-3" d="M30.7,27.59a1.42,1.42,0,0,1,1.69-1.41,1.05,1.05,0,0,1,.85,1.07,1.44,1.44,0,0,1-1.45,1.47A1.06,1.06,0,0,1,30.7,27.59Zm.45,0a.7.7,0,0,0,1.11.63,1,1,0,0,0,.51-1,.64.64,0,0,0-.7-.6A1,1,0,0,0,31.15,27.57Z"/><path class="cls-3" d="M49.88,29.69l.33-.57a2.27,2.27,0,0,0,.32-.58,1.92,1.92,0,0,0-.13-.64c-.13-.5-.25-1-.37-1.52,0,0,0-.1,0-.15h.45L50.87,28l.09-.16c.27-.49.62-1.12.88-1.62h.48a1,1,0,0,1-.08.15l-1.87,3.3Z"/><path class="cls-3" d="M39.56,26.24H40c0,.11,0,.22-.05.36a.83.83,0,0,1,.89-.36l-.06.37a.82.82,0,0,0-1,.82l-.09.59c0,.2-.07.39-.1.6h-.44l.18-1.19C39.43,27,39.49,26.65,39.56,26.24Z"/><path id="path14519" class="cls-2" d="M67.71,25.22h-.9a.26.26,0,0,0-.21.11l-1.24,1.83-.52-1.75a.28.28,0,0,0-.25-.19h-.88a.15.15,0,0,0-.15.2l1,2.91-.93,1.31a.15.15,0,0,0,.13.24h.89a.24.24,0,0,0,.21-.11l3-4.31a.15.15,0,0,0-.13-.24m-6,1.74a1,1,0,0,1-1,.85.74.74,0,0,1-.6-.24.71.71,0,0,1-.14-.63,1,1,0,0,1,1-.86.71.71,0,0,1,.74.88M63,25.22h-.9a.16.16,0,0,0-.15.13l0,.25-.06-.09a1.29,1.29,0,0,0-1.06-.37,2,2,0,0,0-2,1.79,1.69,1.69,0,0,0,.33,1.37,1.4,1.4,0,0,0,1.13.46,1.7,1.7,0,0,0,1.23-.51l0,.24a.16.16,0,0,0,.16.18h.8a.26.26,0,0,0,.26-.22l.48-3.05a.16.16,0,0,0-.15-.18m-5.36,0c-.1.67-.61.67-1.11.67h-.28l.2-1.25a.16.16,0,0,1,.15-.13h.13c.34,0,.66,0,.82.19a.61.61,0,0,1,.09.52m-.22-1.74H55.52a.26.26,0,0,0-.26.21l-.75,4.78a.16.16,0,0,0,.15.18h.89a.26.26,0,0,0,.26-.22l.2-1.29a.27.27,0,0,1,.26-.22h.59A1.92,1.92,0,0,0,59,25.17a1.45,1.45,0,0,0-.24-1.2,1.72,1.72,0,0,0-1.36-.47"/><path id="path14523" class="cls-4" d="M77.3,23.63l-.76,4.86a.15.15,0,0,0,.15.18h.77a.24.24,0,0,0,.25-.22l.76-4.77a.16.16,0,0,0-.16-.18h-.86a.15.15,0,0,0-.15.13M75,27a1,1,0,0,1-1,.85.74.74,0,0,1-.6-.24.78.78,0,0,1-.14-.63,1,1,0,0,1,1-.86.78.78,0,0,1,.6.25A.78.78,0,0,1,75,27m1.24-1.74h-.89a.17.17,0,0,0-.16.13l0,.25-.06-.09a1.26,1.26,0,0,0-1-.37,2,2,0,0,0-2,1.79,1.66,1.66,0,0,0,.33,1.37,1.39,1.39,0,0,0,1.12.46,1.71,1.71,0,0,0,1.24-.51l0,.24a.15.15,0,0,0,.15.18h.81a.26.26,0,0,0,.25-.22l.49-3.05a.16.16,0,0,0-.16-.18m-5.35,0c-.11.67-.62.67-1.11.67h-.28l.19-1.25a.17.17,0,0,1,.16-.13H70c.33,0,.65,0,.81.19a.65.65,0,0,1,.1.52m-.22-1.74H68.82a.26.26,0,0,0-.26.21l-.76,4.78a.16.16,0,0,0,.16.18h1a.17.17,0,0,0,.18-.15l.22-1.35a.26.26,0,0,1,.25-.22h.59a1.91,1.91,0,0,0,2.12-1.77A1.43,1.43,0,0,0,72,24a1.75,1.75,0,0,0-1.36-.47"/></svg>