<svg id="Ebene_1" data-name="Ebene 1" xmlns="http://www.w3.org/2000/svg" viewBox="0 0 85 43"><defs><style>.cls-1{fill:#fff;}.cls-2{fill:#002f86;}.cls-3{fill:#99999a;}.cls-4{fill:#009cde;}</style></defs><title>Zeichenfläche 1</title><g id="Ebene_2" data-name="Ebene 2"><rect class="cls-1" width="85" height="43"/></g><path class="cls-2" d="M5.82,21.57v-8H8.68q4.29,0,4.29,3.92a4,4,0,0,1-1.17,3,4.31,4.31,0,0,1-3.12,1.12ZM7.64,15v5.1h.9a2.45,2.45,0,0,0,1.85-.71,2.7,2.7,0,0,0,.67-1.92,2.41,2.41,0,0,0-.67-1.81A2.52,2.52,0,0,0,8.53,15Z"/><path class="cls-2" d="M16.12,21.57H14.3v-8h1.82Z"/><path class="cls-2" d="M24.7,21.57H22.62L21.37,19.5l-.27-.42a3.23,3.23,0,0,0-.26-.32.86.86,0,0,0-.28-.2.64.64,0,0,0-.31-.07h-.49v3.08H18v-8h2.87c2,0,2.93.73,2.93,2.19a2.2,2.2,0,0,1-.13.78,2,2,0,0,1-.36.64,2.46,2.46,0,0,1-.57.49A2.92,2.92,0,0,1,22,18v0a1.24,1.24,0,0,1,.34.18,3.08,3.08,0,0,1,.33.3l.3.36c.1.13.18.26.26.38Zm-4.94-6.69v2.24h.79a1.29,1.29,0,0,0,.94-.34,1.12,1.12,0,0,0,.35-.85q0-1-1.26-1Z"/><path class="cls-2" d="M30.28,21.57H25.46v-8H30.1V15H27.27v1.79H29.9v1.47H27.27V20.1h3Z"/><path class="cls-2" d="M37.35,21.28a5.24,5.24,0,0,1-2.3.43,3.88,3.88,0,0,1-2.92-1.09,4,4,0,0,1-1.06-2.9,4.26,4.26,0,0,1,1.19-3.13,4.16,4.16,0,0,1,3.1-1.21,5.75,5.75,0,0,1,2,.3v1.75a3.54,3.54,0,0,0-1.84-.49,2.42,2.42,0,0,0-1.83.72,2.62,2.62,0,0,0-.7,1.93,2.58,2.58,0,0,0,.66,1.86,2.32,2.32,0,0,0,1.77.69,3.83,3.83,0,0,0,1.94-.51Z"/><path class="cls-2" d="M44.41,15h-2.3v6.57H40.29V15H38V13.52h6.4Z"/><path class="cls-2" d="M48.66,21.57v-8h2.86q4.29,0,4.29,3.92a4,4,0,0,1-1.18,3,4.3,4.3,0,0,1-3.11,1.12ZM50.48,15v5.1h.9a2.45,2.45,0,0,0,1.85-.71,2.7,2.7,0,0,0,.67-1.92,2.45,2.45,0,0,0-.67-1.81A2.52,2.52,0,0,0,51.36,15Z"/><path class="cls-2" d="M62,21.57H57.14v-8h4.65V15H59v1.79h2.63v1.47H59V20.1h3Z"/><path class="cls-2" d="M63.26,21.57v-8h2.93a3.7,3.7,0,0,1,2.08.49,1.6,1.6,0,0,1,.72,1.4,1.68,1.68,0,0,1-.44,1.14,2.27,2.27,0,0,1-1.13.67v0a2.23,2.23,0,0,1,1.38.63,1.78,1.78,0,0,1,.51,1.29,2.14,2.14,0,0,1-.79,1.75,3.33,3.33,0,0,1-2.16.65Zm1.82-6.72v1.91h.8a1.34,1.34,0,0,0,.88-.27.94.94,0,0,0,.32-.75c0-.59-.44-.89-1.32-.89Zm0,3.26v2.12h1a1.5,1.5,0,0,0,1-.29,1,1,0,0,0,.35-.79.88.88,0,0,0-.35-.76,1.51,1.51,0,0,0-1-.28Z"/><path class="cls-2" d="M72.45,21.57H70.64v-8h1.81Z"/><path class="cls-2" d="M79.94,15h-2.3v6.57H75.82V15H73.53V13.52h6.41Z"/><path class="cls-3" d="M46.75,28.26l-.06.38h-.44l.54-3.4h.45c-.07.42-.13.83-.2,1.29a1.15,1.15,0,0,1,.69-.37,1,1,0,0,1,1.19.86A1.5,1.5,0,0,1,47.8,28.7.91.91,0,0,1,46.75,28.26Zm.13-.7v.1a.66.66,0,0,0,.91.61,1,1,0,0,0,.68-1.09.66.66,0,0,0-.76-.62A1,1,0,0,0,46.88,27.56Z"/><path class="cls-3" d="M45.13,25.23c-.06.38-.11.73-.17,1.09-.11.73-.25,1.59-.36,2.32h-.44c0-.1,0-.19.05-.31l-.09.08a1.17,1.17,0,0,1-1.24.23,1,1,0,0,1-.58-1,1.56,1.56,0,0,1,.59-1.25,1.07,1.07,0,0,1,1.58.15c.05-.3.1-.59.14-.88,0-.13.06-.34.09-.47ZM43.27,28.3h.26l.12,0a1,1,0,0,0,.58-1.46.57.57,0,0,0-.53-.27,1,1,0,0,0-.92,1.24A.64.64,0,0,0,43.27,28.3Z"/><path class="cls-3" d="M34.41,26.23c.09.63.17,1.25.26,1.87.16-.39.33-.78.5-1.17.08-.2.22-.5.29-.7h.47a1.59,1.59,0,0,0-.09.2c-.32.69-.7,1.52-1,2.21h-.45c-.09-.6-.17-1.19-.26-1.82L34,27c-.23.51-.53,1.15-.75,1.66h-.45c-.12-.8-.23-1.6-.35-2.41h.45c.07.6.14,1.22.21,1.85a1.15,1.15,0,0,0,.08-.14c.23-.51.53-1.19.75-1.71Z"/><path class="cls-3" d="M27.17,28.62c.18-1.13.36-2.25.54-3.41a13,13,0,0,1,1.4.07c.56.08.82.55.7,1.17a1.17,1.17,0,0,1-1.21,1c-.25,0-.5,0-.76,0-.07.4-.13.8-.19,1.19ZM27.9,27c.25,0,.48,0,.7,0a.78.78,0,0,0,.74-.9.51.51,0,0,0-.44-.49c-.26,0-.51,0-.78,0C28.05,26.1,28,26.56,27.9,27Z"/><path class="cls-3" d="M42.07,27.59H40.23a.63.63,0,0,0,.6.74,1.5,1.5,0,0,0,1-.23l0,.37-.33.16a1.64,1.64,0,0,1-.82.08,1,1,0,0,1-.86-.9,1.46,1.46,0,0,1,1-1.61,1.77,1.77,0,0,1,.56,0,.89.89,0,0,1,.79,1A3.8,3.8,0,0,1,42.07,27.59Zm-1.78-.38h1.39a.56.56,0,0,0-.36-.66A.87.87,0,0,0,40.29,27.21Z"/><path class="cls-3" d="M38.06,27.59H36.21a.64.64,0,0,0,.61.74,1.5,1.5,0,0,0,1-.23l0,.37s-.16.09-.32.16a1.66,1.66,0,0,1-.82.08,1,1,0,0,1-.87-.9,1.47,1.47,0,0,1,1-1.61,1.75,1.75,0,0,1,.56,0,.89.89,0,0,1,.79,1C38.1,27.29,38.08,27.43,38.06,27.59Zm-1.79-.38h1.39a.54.54,0,0,0-.36-.66A.88.88,0,0,0,36.27,27.21Z"/><path class="cls-3" d="M29.76,27.59a1.42,1.42,0,0,1,1.69-1.41,1.05,1.05,0,0,1,.85,1.07,1.45,1.45,0,0,1-1.45,1.47A1.06,1.06,0,0,1,29.76,27.59Zm.45,0a.7.7,0,0,0,1.11.63,1,1,0,0,0,.5-1,.64.64,0,0,0-.7-.6A1,1,0,0,0,30.21,27.57Z"/><path class="cls-3" d="M48.94,29.69l.33-.57a2.21,2.21,0,0,0,.31-.58,1.7,1.7,0,0,0-.13-.64c-.12-.5-.24-1-.37-1.52l0-.15h.45c.13.58.28,1.16.42,1.78l.1-.16.88-1.62h.47a.52.52,0,0,1-.07.15c-.6,1.05-1.28,2.24-1.87,3.3Z"/><path class="cls-3" d="M38.62,26.24H39c0,.11,0,.22,0,.36a.85.85,0,0,1,.89-.36c0,.13,0,.25-.05.37a.81.81,0,0,0-.95.82c0,.2-.06.39-.1.59s-.06.39-.09.6h-.45c.07-.4.13-.79.19-1.19S38.55,26.65,38.62,26.24Z"/><path id="path14519" class="cls-2" d="M66.77,25.22h-.9a.24.24,0,0,0-.21.11l-1.24,1.83-.53-1.75a.26.26,0,0,0-.24-.19h-.89a.15.15,0,0,0-.14.2l1,2.91-.93,1.31a.15.15,0,0,0,.13.24h.9a.26.26,0,0,0,.21-.11l3-4.31a.15.15,0,0,0-.12-.24m-6,1.74a1,1,0,0,1-1,.85.75.75,0,0,1-.6-.24.78.78,0,0,1-.14-.63,1,1,0,0,1,1-.86.76.76,0,0,1,.6.25.78.78,0,0,1,.15.63M62,25.22h-.89a.15.15,0,0,0-.15.13l0,.25-.07-.09a1.26,1.26,0,0,0-1-.37,2,2,0,0,0-2,1.79,1.66,1.66,0,0,0,.33,1.37,1.39,1.39,0,0,0,1.12.46,1.71,1.71,0,0,0,1.24-.51l0,.24a.15.15,0,0,0,.15.18h.81a.25.25,0,0,0,.25-.22l.49-3.05a.16.16,0,0,0-.16-.18m-5.35,0c-.1.67-.61.67-1.11.67h-.28l.2-1.25a.15.15,0,0,1,.15-.13h.13c.33,0,.65,0,.82.19a.69.69,0,0,1,.09.52m-.22-1.74H54.58a.26.26,0,0,0-.26.21l-.75,4.78a.15.15,0,0,0,.15.18h.89a.25.25,0,0,0,.25-.22l.21-1.29a.27.27,0,0,1,.25-.22h.59A1.91,1.91,0,0,0,58,25.17,1.41,1.41,0,0,0,57.8,24a1.73,1.73,0,0,0-1.36-.47"/><path id="path14523" class="cls-4" d="M76.36,23.63l-.77,4.86a.16.16,0,0,0,.16.18h.77a.26.26,0,0,0,.25-.22l.76-4.77a.16.16,0,0,0-.16-.18h-.86a.15.15,0,0,0-.15.13M74.06,27a1,1,0,0,1-1,.85.69.69,0,0,1-.74-.87,1,1,0,0,1,1-.86.74.74,0,0,1,.59.25.75.75,0,0,1,.15.63m1.25-1.74h-.89a.16.16,0,0,0-.16.13l0,.25-.06-.09a1.27,1.27,0,0,0-1-.37,2.05,2.05,0,0,0-2,1.79,1.7,1.7,0,0,0,.34,1.37,1.39,1.39,0,0,0,1.12.46,1.74,1.74,0,0,0,1.24-.51l0,.24a.15.15,0,0,0,.15.18h.8a.26.26,0,0,0,.26-.22l.48-3.05a.15.15,0,0,0-.15-.18m-5.36,0c-.1.67-.61.67-1.11.67h-.28l.2-1.25a.16.16,0,0,1,.15-.13H69c.34,0,.66,0,.82.19a.61.61,0,0,1,.09.52m-.21-1.74H67.87a.25.25,0,0,0-.25.21l-.76,4.78a.16.16,0,0,0,.15.18h1a.17.17,0,0,0,.18-.15l.21-1.35a.26.26,0,0,1,.26-.22h.59a1.91,1.91,0,0,0,2.12-1.77A1.47,1.47,0,0,0,71.09,24a1.71,1.71,0,0,0-1.35-.47"/></svg>