<svg xmlns="http://www.w3.org/2000/svg" xmlns:xlink="http://www.w3.org/1999/xlink" viewBox="0 0 85 43"><defs><style>.cls-1{fill:none;}.cls-2,.cls-5{fill:#fff;}.cls-3{clip-path:url(#clip-path);}.cls-4{opacity:0.05;}.cls-5{stroke:#000;stroke-miterlimit:10;stroke-width:3px;}.cls-6{font-size:40px;font-family:MyriadPro-Regular, Myriad Pro;}.cls-7{fill:#4d8814;}</style><clipPath id="clip-path"><rect class="cls-1" width="85" height="43"/></clipPath></defs><title>directdebit</title><g id="Ebene_1" data-name="Ebene 1"><g id="Ebene_2" data-name="Ebene 2"><rect class="cls-2" width="85" height="43"/></g><g class="cls-3"><g class="cls-4"><rect class="cls-5" x="48.24" y="6.67" width="42.07" height="78.92" transform="translate(-9.96 20.65) rotate(-15.84)"/><path d="M64.6,29.73A17.1,17.1,0,0,1,82.53,35.4L75,9,44.66,17.59l7.61,26.84A17.1,17.1,0,0,1,64.6,29.73Z"/><text class="cls-6" transform="translate(53.57 37.32) rotate(74.16)">€</text><rect class="cls-5" x="36.33" y="5.71" width="42.07" height="78.92" transform="translate(-15.04 35.76) rotate(-30.81)"/><path d="M48.62,30.53a17.1,17.1,0,0,1,18.78.84L53.33,7.79,26.22,24l14.29,24A17.08,17.08,0,0,1,48.62,30.53Z"/><path d="M74.32,43A17.09,17.09,0,0,1,47,58.77l14.29,24L88.38,66.56Z"/><text class="cls-6" transform="translate(39.85 40.74) rotate(59.19)">€</text><rect class="cls-5" x="26.51" y="7.53" width="42.07" height="78.92" transform="translate(-19.24 49.96) rotate(-47.21)"/><path d="M35,35.42a17.08,17.08,0,0,1,18.25-4.5L33.12,12.26,11.67,35.43l20.47,19A17.07,17.07,0,0,1,35,35.42Z"/><path d="M63.18,40.09A17.09,17.09,0,0,1,41.42,63l20.47,19L83.34,58.75Z"/><text class="cls-6" transform="matrix(0.73, 0.68, -0.68, 0.73, 29.62, 47.65)">€</text></g></g></g><g id="Ebene_2-2" data-name="Ebene 2"><path class="cls-7" d="M11.62,25V18h2q3.87,0,3.87,3.41A3.4,3.4,0,0,1,16.44,24a4.14,4.14,0,0,1-2.88,1Zm1.16-6v5h.92a2.59,2.59,0,0,0,1.91-.67,2.59,2.59,0,0,0,.68-1.91c0-1.64-.85-2.45-2.54-2.45Z"/><path class="cls-7" d="M20,25H18.79V18H20Z"/><path class="cls-7" d="M27.12,25H25.76l-1.12-1.87a5.1,5.1,0,0,0-.29-.45,2.12,2.12,0,0,0-.3-.3,1.41,1.41,0,0,0-.32-.17,1.62,1.62,0,0,0-.4-.05h-.47V25H21.71V18H24a3.28,3.28,0,0,1,.91.12,1.86,1.86,0,0,1,.72.35,1.53,1.53,0,0,1,.48.59,1.81,1.81,0,0,1,.18.83,2.11,2.11,0,0,1-.11.68,1.77,1.77,0,0,1-.32.55,1.74,1.74,0,0,1-.48.41,2.23,2.23,0,0,1-.65.27v0a2.24,2.24,0,0,1,.34.23l.26.27a2.83,2.83,0,0,1,.26.31l.27.4Zm-4.26-6.06v2.28h1a1.39,1.39,0,0,0,.5-.09,1,1,0,0,0,.39-.24,1,1,0,0,0,.26-.38,1.31,1.31,0,0,0,.09-.5,1,1,0,0,0-.32-.79,1.36,1.36,0,0,0-.91-.28Z"/><path class="cls-7" d="M31.86,25H27.93V18h3.78v1H29.09v2H31.5v1H29.09V24h2.77Z"/><path class="cls-7" d="M38,24.71a4.29,4.29,0,0,1-2,.41,3.22,3.22,0,0,1-2.44-1,3.55,3.55,0,0,1-.92-2.53,3.66,3.66,0,0,1,1-2.71,3.51,3.51,0,0,1,2.61-1,4.33,4.33,0,0,1,1.68.29v1.15a3,3,0,0,0-1.56-.42,2.45,2.45,0,0,0-1.85.73,2.66,2.66,0,0,0-.7,1.94,2.57,2.57,0,0,0,.66,1.85,2.32,2.32,0,0,0,1.73.68A3,3,0,0,0,38,23.63Z"/><path class="cls-7" d="M43.81,19h-2v6H40.64V19h-2V18h5.18Z"/><path class="cls-7" d="M47.59,25V18h2q3.87,0,3.87,3.41A3.4,3.4,0,0,1,52.41,24a4.15,4.15,0,0,1-2.89,1Zm1.15-6v5h.93a2.35,2.35,0,0,0,2.59-2.58c0-1.64-.85-2.45-2.55-2.45Z"/><path class="cls-7" d="M58.69,25H54.76V18h3.77v1H55.92v2h2.41v1H55.92V24h2.77Z"/><path class="cls-7" d="M59.93,25V18h2.23a2.69,2.69,0,0,1,1.61.44,1.41,1.41,0,0,1,.59,1.16,1.64,1.64,0,0,1-.34,1,1.77,1.77,0,0,1-.93.62v0a1.85,1.85,0,0,1,1.15.53A1.66,1.66,0,0,1,64.68,23,1.76,1.76,0,0,1,64,24.44a2.76,2.76,0,0,1-1.79.56Zm1.16-6.07v2h.75a1.44,1.44,0,0,0,.95-.28,1,1,0,0,0,.35-.81q0-.9-1.2-.9Zm0,2.93v2.21h1a1.52,1.52,0,0,0,1-.3,1,1,0,0,0,.35-.82c0-.73-.5-1.09-1.51-1.09Z"/><path class="cls-7" d="M67.17,25H66V18h1.2Z"/><path class="cls-7" d="M73.38,19h-2v6H70.21V19h-2V18h5.18Z"/></g></svg>