<svg id="Ebene_1" data-name="Ebene 1" xmlns="http://www.w3.org/2000/svg" xmlns:xlink="http://www.w3.org/1999/xlink" viewBox="0 0 85 43"><defs><style>.cls-1{fill:none;}.cls-2,.cls-5{fill:#fff;}.cls-3{clip-path:url(#clip-path);}.cls-4{opacity:0.05;}.cls-5{stroke:#000;stroke-miterlimit:10;stroke-width:3px;}.cls-6{font-size:40px;font-family:MyriadPro-Regular, Myriad Pro;}.cls-7{fill:#4d8814;}</style><clipPath id="clip-path"><rect class="cls-1" width="85" height="43"/></clipPath></defs><title>finanzierung</title><rect class="cls-2" width="85" height="43"/><g class="cls-3"><g class="cls-4"><rect class="cls-5" x="48.24" y="6.67" width="42.07" height="78.92" transform="translate(-9.96 20.65) rotate(-15.84)"/><path d="M64.6,29.73A17.1,17.1,0,0,1,82.53,35.4L75,9,44.66,17.59l7.61,26.84A17.1,17.1,0,0,1,64.6,29.73Z"/><text class="cls-6" transform="translate(53.57 37.32) rotate(74.16)">€</text><rect class="cls-5" x="36.33" y="5.71" width="42.07" height="78.92" transform="translate(-15.04 35.76) rotate(-30.81)"/><path d="M48.62,30.53a17.1,17.1,0,0,1,18.78.84L53.33,7.79,26.22,24l14.29,24A17.08,17.08,0,0,1,48.62,30.53Z"/><path d="M74.32,43A17.09,17.09,0,0,1,47,58.77l14.29,24L88.38,66.56Z"/><text class="cls-6" transform="translate(39.85 40.74) rotate(59.19)">€</text><rect class="cls-5" x="26.51" y="7.53" width="42.07" height="78.92" transform="translate(-19.24 49.96) rotate(-47.21)"/><path d="M35,35.42a17.08,17.08,0,0,1,18.25-4.5L33.12,12.26,11.67,35.43l20.47,19A17.07,17.07,0,0,1,35,35.42Z"/><path d="M63.18,40.09A17.09,17.09,0,0,1,41.42,63l20.47,19L83.34,58.75Z"/><text class="cls-6" transform="matrix(0.73, 0.68, -0.68, 0.73, 29.62, 47.65)">€</text></g></g><path class="cls-7" d="M11.11,19H8.49v2.1H10.9v1H8.49V25H7.33V18h3.78Z"/><path class="cls-7" d="M13.54,25H12.35V18h1.19Z"/><path class="cls-7" d="M21.2,25H19.93l-3.34-5.15a1.71,1.71,0,0,1-.21-.4h0a6.5,6.5,0,0,1,0,1V25H15.27V18h1.35l3.23,5a3.61,3.61,0,0,1,.26.43h0a6.9,6.9,0,0,1,0-.94V18H21.2Z"/><path class="cls-7" d="M28.69,25H27.41l-.63-1.78H24L23.43,25H22.16l2.62-7h1.31Zm-2.21-2.73-1-2.79a4.49,4.49,0,0,1-.1-.44h0c0,.18-.06.33-.09.44l-1,2.79Z"/><path class="cls-7" d="M35.59,25H34.32L31,19.85a3,3,0,0,1-.21-.4h0a6.5,6.5,0,0,1,0,1V25H29.65V18H31l3.24,5,.26.43h0a6.47,6.47,0,0,1-.05-.94V18h1.12Z"/><path class="cls-7" d="M42.1,18.51,38.26,24h3.79v1H36.63v-.53L40.49,19H36.93V18H42.1Z"/><path class="cls-7" d="M44.38,25H43.19V18h1.19Z"/><path class="cls-7" d="M50,25H46.11V18h3.77v1H47.27v2h2.41v1H47.27V24H50Z"/><path class="cls-7" d="M56.69,25H55.33l-1.11-1.87a3.51,3.51,0,0,0-.3-.45,2.09,2.09,0,0,0-.29-.3,1.29,1.29,0,0,0-.33-.17,1.54,1.54,0,0,0-.39-.05h-.47V25H51.28V18h2.31a3.16,3.16,0,0,1,.9.12,2,2,0,0,1,.73.35,1.84,1.84,0,0,1,.48.59,2,2,0,0,1,.17.83,1.87,1.87,0,0,1-.11.68,1.74,1.74,0,0,1-.31.55,1.94,1.94,0,0,1-.49.41,2.17,2.17,0,0,1-.64.27v0a1.74,1.74,0,0,1,.33.23c.1.09.18.18.27.27a2.81,2.81,0,0,1,.25.31l.28.4Zm-4.25-6.06v2.28h1a1.33,1.33,0,0,0,.49-.09,1,1,0,0,0,.39-.24,1,1,0,0,0,.26-.38,1.31,1.31,0,0,0,.1-.5,1,1,0,0,0-.32-.79,1.37,1.37,0,0,0-.91-.28Z"/><path class="cls-7" d="M62.89,22.17c0,2-.93,2.95-2.79,2.95s-2.68-.95-2.68-2.84V18h1.17v4c0,1.38.53,2.06,1.6,2.06s1.54-.66,1.54-2V18h1.16Z"/><path class="cls-7" d="M70.48,25H69.21l-3.35-5.15a3,3,0,0,1-.21-.4h0a6.5,6.5,0,0,1,0,1V25H64.54V18h1.35l3.23,5c.14.21.23.36.27.43h0a5.27,5.27,0,0,1,0-.94V18h1.12Z"/><path class="cls-7" d="M77.67,24.52a5,5,0,0,1-2.43.6,3.38,3.38,0,0,1-2.52-1,3.47,3.47,0,0,1-1-2.56,3.62,3.62,0,0,1,1-2.67,3.66,3.66,0,0,1,2.68-1,5.14,5.14,0,0,1,2,.34v1.2a3.38,3.38,0,0,0-1.92-.54,2.43,2.43,0,0,0-1.83.74A2.62,2.62,0,0,0,73,21.53a2.77,2.77,0,0,0,.62,1.9,2.11,2.11,0,0,0,1.67.69,2.74,2.74,0,0,0,1.25-.28V22.17H75v-1h2.63Z"/></svg>