<svg id="Ebene_1" data-name="Ebene 1" xmlns="http://www.w3.org/2000/svg" viewBox="0 0 85 43"><defs><style>.cls-1{fill:#fff;}.cls-2{fill:#000268;}.cls-3{fill:#ff0007;}</style></defs><title>Zeichenfläche 1</title><g id="Ebene_2" data-name="Ebene 2"><rect class="cls-1" width="85" height="43"/></g><path id="_92653320" data-name=" 92653320" class="cls-2" d="M6.08,11.46a5.62,5.62,0,0,1,5.64-5.62H73.28a5.62,5.62,0,0,1,5.64,5.62V31.54a5.62,5.62,0,0,1-5.64,5.62H11.72a5.62,5.62,0,0,1-5.64-5.62V11.46Z"/><path id="_92186184" data-name=" 92186184" class="cls-1" d="M8.39,11.65v19.7a3.53,3.53,0,0,0,3.53,3.52H44.17V8.14H11.92a3.52,3.52,0,0,0-3.53,3.51ZM52.51,21.4c0,1.26-.62,2.12-1.65,2.12a1.85,1.85,0,0,1-1.67-2c0-1.18.67-2.06,1.67-2.06A1.75,1.75,0,0,1,52.51,21.4Zm-6,7.2h2.72V24.32h0a2.74,2.74,0,0,0,2.5,1.28c2.34,0,3.6-1.93,3.6-4.26,0-1.9-1.2-4-3.37-4A3.12,3.12,0,0,0,49,19h0V17.55H46.47ZM59,22.93c0-.76.73-1,1.65-1,.41,0,.8,0,1.15,0a1.78,1.78,0,0,1-1.68,1.86C59.52,23.79,59,23.47,59,22.93Zm5.49,2.49a9.73,9.73,0,0,1-.15-1.86V20.63c0-2.4-1.74-3.26-3.75-3.26a8,8,0,0,0-3.14.56l0,1.84A5.16,5.16,0,0,1,60,19.18c1,0,1.78.29,1.8,1.36a8.08,8.08,0,0,0-1.27-.1c-1.45,0-4.07.28-4.07,2.69,0,1.71,1.39,2.47,2.95,2.47a2.67,2.67,0,0,0,2.49-1.42h0c0,.41,0,.82.06,1.24Zm1.22,3.18a8,8,0,0,0,1.7.18c2.49,0,3.08-1.92,3.85-3.9l2.89-7.33H71.46l-1.62,5.14h0l-1.69-5.14H65.18l3.19,8.05A1.37,1.37,0,0,1,67,26.69a3.33,3.33,0,0,1-1.08-.16Z"/><path id="_47303032" data-name=" 47303032" class="cls-3" d="M15,21.42c0-1.07.53-2,1.54-2a1.73,1.73,0,0,1,1.74,1.86,1.84,1.84,0,0,1-1.74,2C15.76,23.34,15,22.64,15,21.42ZM21,17.55H18.48V19h0a3.09,3.09,0,0,0-2.68-1.6c-2.45,0-3.55,1.75-3.55,4.09s1.34,4,3.5,4a3.07,3.07,0,0,0,2.65-1.34h0v.42c0,1.54-.85,2.28-2.42,2.28a5.4,5.4,0,0,1-2.66-.65l-.14,2.15a9.12,9.12,0,0,0,3,.5c3.18,0,4.75-1,4.75-4.28Zm4.6-3.28H22.83v2h2.72ZM22.83,25.42h2.72V17.55H22.83Zm10.29-8a5.22,5.22,0,0,0-.92-.09A2.43,2.43,0,0,0,29.87,19h0V17.55H27.36v7.87h2.72V22.1c0-1.54.72-2.46,2-2.46a3.58,3.58,0,0,1,.92.08Zm4.69,6.24c-1.26,0-1.77-1-1.77-2.21s.51-2.22,1.77-2.22,1.77,1.05,1.77,2.22S39.06,23.7,37.81,23.7Zm0,1.9c2.6,0,4.58-1.51,4.58-4.11s-2-4.12-4.58-4.12-4.58,1.51-4.58,4.12S35.21,25.6,37.81,25.6Z"/></svg>