<svg id="Ebene_1" data-name="Ebene 1" xmlns="http://www.w3.org/2000/svg" viewBox="0 0 85 43"><defs><style>.cls-1{fill:#fff;}</style></defs><title>Zeichenfläche 1</title><rect class="cls-1" width="85" height="43"/><path d="M18.85,13.35h-3.6a9.2,9.2,0,0,1-3.71,7.42l-1.41,1.06,5.51,7.51h4.53l-5.08-6.91A12.73,12.73,0,0,0,18.85,13.35Z"/><rect x="6" y="13.35" width="3.67" height="15.99"/><rect x="21.23" y="13.35" width="3.47" height="15.99"/><path d="M55.1,18a4,4,0,0,0-3.42,1.55V18.28H48.39V29.34h3.34v-5.8A2.33,2.33,0,0,1,54.21,21a2.16,2.16,0,0,1,2.29,2.48v5.84h3.3v-7A4.38,4.38,0,0,0,55.1,18Z"/><path d="M35.17,18.28V19a5.76,5.76,0,0,0-3.28-1,5.84,5.84,0,1,0,0,11.67,5.7,5.7,0,0,0,3.28-1v.71h3.31V18.28Zm-3,8.37a2.84,2.84,0,1,1,3-2.84A2.92,2.92,0,0,1,32.16,26.65Z"/><path d="M43.6,19.72V18.28H40.22V29.34h3.4V24.18c0-1.74,1.89-2.67,3.19-2.67h0V18.28A4.15,4.15,0,0,0,43.6,19.72Z"/><path d="M70.09,18.28V19A5.84,5.84,0,1,0,66.8,29.65a5.75,5.75,0,0,0,3.29-1v.71h3.3V18.28Zm-3,8.37a2.84,2.84,0,1,1,3-2.84A2.92,2.92,0,0,1,67.07,26.65Z"/><path d="M76,18.61a.26.26,0,0,0-.29-.26h-.3v.84h.14v-.31h.16l.13.31H76l-.14-.34A.24.24,0,0,0,76,18.61Zm-.29.13H75.5v-.26h.16c.1,0,.15.05.15.13S75.78,18.74,75.66,18.74Z"/><path d="M75.62,18a.79.79,0,1,0,0,1.58.79.79,0,0,0,0-1.58Zm0,1.44a.63.63,0,0,1-.63-.65.64.64,0,0,1,.63-.64.63.63,0,0,1,.62.64A.64.64,0,0,1,75.62,19.43Z"/><path d="M76.92,25.42A2.08,2.08,0,1,0,79,27.5,2.09,2.09,0,0,0,76.92,25.42Z"/></svg>