<svg id="Ebene_1" data-name="Ebene 1" xmlns="http://www.w3.org/2000/svg" xmlns:xlink="http://www.w3.org/1999/xlink" viewBox="0 0 85 43"><defs><style>.cls-1{fill:none;}.cls-2,.cls-5{fill:#fff;}.cls-3{clip-path:url(#clip-path);}.cls-4{opacity:0.05;}.cls-5{stroke:#000;stroke-miterlimit:10;stroke-width:3px;}.cls-6{font-size:40px;font-family:MyriadPro-Regular, Myriad Pro;}.cls-7{fill:#4d8814;}</style><clipPath id="clip-path"><rect class="cls-1" width="85" height="43"/></clipPath></defs><title>kreditkarte</title><g id="Ebene_2" data-name="Ebene 2"><rect class="cls-2" width="85" height="43"/></g><g class="cls-3"><g class="cls-4"><rect class="cls-5" x="48.24" y="6.67" width="42.07" height="78.92" transform="translate(-9.96 20.65) rotate(-15.84)"/><path d="M64.6,29.73A17.1,17.1,0,0,1,82.53,35.4L75,9,44.66,17.59l7.61,26.84A17.1,17.1,0,0,1,64.6,29.73Z"/><text class="cls-6" transform="translate(53.57 37.32) rotate(74.16)">€</text><rect class="cls-5" x="36.33" y="5.71" width="42.07" height="78.92" transform="translate(-15.04 35.76) rotate(-30.81)"/><path d="M48.62,30.53a17.1,17.1,0,0,1,18.78.84L53.33,7.79,26.22,24l14.29,24A17.08,17.08,0,0,1,48.62,30.53Z"/><path d="M74.32,43A17.09,17.09,0,0,1,47,58.77l14.29,24L88.38,66.56Z"/><text class="cls-6" transform="translate(39.85 40.74) rotate(59.19)">€</text><rect class="cls-5" x="26.51" y="7.53" width="42.07" height="78.92" transform="translate(-19.24 49.96) rotate(-47.21)"/><path d="M35,35.42a17.08,17.08,0,0,1,18.25-4.5L33.12,12.26,11.67,35.43l20.47,19A17.07,17.07,0,0,1,35,35.42Z"/><path d="M63.18,40.09A17.09,17.09,0,0,1,41.42,63l20.47,19L83.34,58.75Z"/><text class="cls-6" transform="matrix(0.73, 0.68, -0.68, 0.73, 29.62, 47.65)">€</text></g></g><path class="cls-7" d="M17.11,25H15.6l-2.44-3.2a1.55,1.55,0,0,1-.17-.25h0V25H11.81V18H13v3.29h0a2.22,2.22,0,0,1,.17-.24L15.51,18H16.9l-2.75,3.36Z"/><path class="cls-7" d="M23.33,25H22l-1.12-1.87a3.52,3.52,0,0,0-.29-.45,2.09,2.09,0,0,0-.29-.3,1.29,1.29,0,0,0-.33-.17,1.6,1.6,0,0,0-.39-.05h-.47V25H17.92V18h2.3a3.23,3.23,0,0,1,.91.12,2,2,0,0,1,.73.35,1.84,1.84,0,0,1,.48.59,2,2,0,0,1,.17.83,2.11,2.11,0,0,1-.11.68,1.74,1.74,0,0,1-.31.55,1.94,1.94,0,0,1-.49.41,2.28,2.28,0,0,1-.64.27v0a2.75,2.75,0,0,1,.33.23l.27.27a2.81,2.81,0,0,1,.25.31l.27.4Zm-4.25-6.06v2.28h1a1.35,1.35,0,0,0,.5-.09,1,1,0,0,0,.39-.24,1,1,0,0,0,.26-.38,1.31,1.31,0,0,0,.09-.5,1,1,0,0,0-.31-.79,1.38,1.38,0,0,0-.92-.28Z"/><path class="cls-7" d="M28.08,25H24.15V18h3.77v1H25.31v2h2.4v1h-2.4V24h2.77Z"/><path class="cls-7" d="M29.32,25V18h2q3.87,0,3.87,3.41A3.37,3.37,0,0,1,34.14,24a4.14,4.14,0,0,1-2.88,1Zm1.16-6v5h.93a2.62,2.62,0,0,0,1.9-.67A2.55,2.55,0,0,0,34,21.44C34,19.8,33.15,19,31.45,19Z"/><path class="cls-7" d="M37.69,25h-1.2V18h1.2Z"/><path class="cls-7" d="M43.9,19h-2v6H40.73V19h-2V18H43.9Z"/><path class="cls-7" d="M50.22,25H48.71l-2.44-3.2a1.31,1.31,0,0,1-.16-.25h0V25H44.93V18h1.16v3.29h0a2,2,0,0,1,.16-.24L48.62,18H50l-2.74,3.36Z"/><path class="cls-7" d="M56.79,25H55.51l-.63-1.78H52.13L51.52,25H50.25l2.63-7h1.3Zm-2.21-2.73-1-2.79a3,3,0,0,1-.09-.44h0a2.66,2.66,0,0,1-.1.44l-1,2.79Z"/><path class="cls-7" d="M63.16,25H61.8l-1.12-1.87a5.1,5.1,0,0,0-.29-.45,2.81,2.81,0,0,0-.29-.3,1.29,1.29,0,0,0-.33-.17,1.6,1.6,0,0,0-.39-.05h-.47V25H57.75V18h2.3a3.23,3.23,0,0,1,.91.12,1.86,1.86,0,0,1,.72.35,1.74,1.74,0,0,1,.49.59,2,2,0,0,1,.17.83,2.11,2.11,0,0,1-.11.68,1.74,1.74,0,0,1-.31.55,1.94,1.94,0,0,1-.49.41,2.28,2.28,0,0,1-.64.27v0a2.75,2.75,0,0,1,.33.23l.27.27.25.31.27.4Zm-4.25-6.06v2.28h1a1.35,1.35,0,0,0,.5-.09,1,1,0,0,0,.39-.24,1,1,0,0,0,.26-.38,1.31,1.31,0,0,0,.09-.5,1,1,0,0,0-.31-.79,1.4,1.4,0,0,0-.92-.28Z"/><path class="cls-7" d="M68.23,19h-2v6H65.06V19h-2V18h5.18Z"/><path class="cls-7" d="M73.19,25H69.26V18H73v1H70.42v2h2.41v1H70.42V24h2.77Z"/></svg>