<svg id="Ebene_1" data-name="Ebene 1" xmlns="http://www.w3.org/2000/svg" viewBox="0 0 85 43"><defs><style>.cls-1{fill:#fff;}.cls-2{fill:#002f86;}.cls-3{fill:#99999a;}.cls-4{fill:#009cde;}</style></defs><title>Zeichenfläche 1</title><g id="Ebene_2" data-name="Ebene 2"><rect class="cls-1" width="85" height="43"/></g><path class="cls-2" d="M11.29,21.57H6.5v-8H8.31V20.1h3Z"/><path class="cls-2" d="M19.71,21.57h-2l-.57-1.79H14.3l-.57,1.79h-2l2.93-8h2.15Zm-3-3.18-.87-2.71a3.32,3.32,0,0,1-.13-.72H15.7a2.9,2.9,0,0,1-.14.7l-.87,2.73Z"/><path class="cls-2" d="M20.35,21.26V19.47a3.41,3.41,0,0,0,1.06.61,3.28,3.28,0,0,0,1.15.2,2.64,2.64,0,0,0,.6-.06,1.29,1.29,0,0,0,.43-.17.69.69,0,0,0,.25-.26.59.59,0,0,0,.09-.32.68.68,0,0,0-.14-.42,1.47,1.47,0,0,0-.36-.34,3.61,3.61,0,0,0-.56-.31l-.69-.29a3.59,3.59,0,0,1-1.4-1,2.11,2.11,0,0,1-.47-1.37,2.34,2.34,0,0,1,.25-1.09,2.22,2.22,0,0,1,.69-.74,3.18,3.18,0,0,1,1-.43,5.28,5.28,0,0,1,1.21-.14,7.45,7.45,0,0,1,1.12.08,4.63,4.63,0,0,1,.89.23v1.68a3.63,3.63,0,0,0-.44-.25,2.84,2.84,0,0,0-.49-.17,4.48,4.48,0,0,0-.5-.11l-.48,0a2.47,2.47,0,0,0-.56.06,1.36,1.36,0,0,0-.42.16.84.84,0,0,0-.27.26.56.56,0,0,0-.1.33.67.67,0,0,0,.11.37,1.41,1.41,0,0,0,.3.3,2.64,2.64,0,0,0,.48.28c.19.09.4.19.63.28a8.82,8.82,0,0,1,.87.43,3.23,3.23,0,0,1,.66.52,2.13,2.13,0,0,1,.42.65,2.28,2.28,0,0,1,.15.86,2.3,2.3,0,0,1-.26,1.13,2.13,2.13,0,0,1-.69.74,2.91,2.91,0,0,1-1,.41,6.11,6.11,0,0,1-1.23.12,7.29,7.29,0,0,1-1.26-.11A3.89,3.89,0,0,1,20.35,21.26Z"/><path class="cls-2" d="M32.82,15h-2.3v6.57H28.7V15H26.42V13.52h6.4Z"/><path class="cls-2" d="M33.53,21.26V19.47a3.65,3.65,0,0,0,1.06.61,3.33,3.33,0,0,0,1.16.2,2.64,2.64,0,0,0,.6-.06,1.15,1.15,0,0,0,.42-.17.72.72,0,0,0,.26-.26.69.69,0,0,0,.08-.32.68.68,0,0,0-.13-.42,1.36,1.36,0,0,0-.37-.34,3.48,3.48,0,0,0-.55-.31l-.69-.29a3.71,3.71,0,0,1-1.41-1,2.1,2.1,0,0,1-.46-1.37A2.05,2.05,0,0,1,34.44,14a3.12,3.12,0,0,1,1-.43,5.36,5.36,0,0,1,1.22-.14,7.22,7.22,0,0,1,1.11.08,4.55,4.55,0,0,1,.9.23v1.68a4.6,4.6,0,0,0-.44-.25,3.17,3.17,0,0,0-.49-.17,4.64,4.64,0,0,0-.51-.11l-.47,0a2.4,2.4,0,0,0-.56.06,1.54,1.54,0,0,0-.43.16.84.84,0,0,0-.27.26.63.63,0,0,0-.09.33.66.66,0,0,0,.1.37,1.27,1.27,0,0,0,.31.3,2.92,2.92,0,0,0,.47.28c.19.09.4.19.64.28a7.65,7.65,0,0,1,.86.43,3.23,3.23,0,0,1,.66.52,2,2,0,0,1,.43.65,2.5,2.5,0,0,1,.14.86,2.3,2.3,0,0,1-.25,1.13,2.16,2.16,0,0,1-.7.74,2.91,2.91,0,0,1-1,.41,5.94,5.94,0,0,1-1.22.12,7.21,7.21,0,0,1-1.26-.11A4,4,0,0,1,33.53,21.26Z"/><path class="cls-2" d="M46.12,21.28a5.24,5.24,0,0,1-2.3.43,3.88,3.88,0,0,1-2.92-1.09,4,4,0,0,1-1.06-2.9A4.23,4.23,0,0,1,41,14.59a4.12,4.12,0,0,1,3.09-1.21,5.75,5.75,0,0,1,2,.3v1.75a3.54,3.54,0,0,0-1.84-.49,2.42,2.42,0,0,0-1.83.72,2.62,2.62,0,0,0-.7,1.93,2.58,2.58,0,0,0,.66,1.86,2.33,2.33,0,0,0,1.77.69,3.83,3.83,0,0,0,1.94-.51Z"/><path class="cls-2" d="M54.49,21.57H52.67V18.29H49.34v3.28H47.52v-8h1.82v3.21h3.33V13.52h1.82Z"/><path class="cls-2" d="M63.09,21.57H61L59.75,19.5a3.84,3.84,0,0,0-.27-.42,1.72,1.72,0,0,0-.26-.32.94.94,0,0,0-.27-.2.68.68,0,0,0-.32-.07h-.48v3.08H56.33v-8h2.88c1.95,0,2.93.73,2.93,2.19a2.2,2.2,0,0,1-.13.78,2.27,2.27,0,0,1-.37.64,2.22,2.22,0,0,1-.56.49,3.16,3.16,0,0,1-.75.33v0a1.29,1.29,0,0,1,.35.18,3,3,0,0,1,.32.3,3.65,3.65,0,0,1,.31.36l.26.38Zm-4.94-6.69v2.24h.78a1.29,1.29,0,0,0,.94-.34,1.13,1.13,0,0,0,.36-.85q0-1-1.26-1Z"/><path class="cls-2" d="M65.65,21.57H63.84v-8h1.81Z"/><path class="cls-2" d="M72.14,15H69.3v2h2.61v1.47H69.3v3.13H67.49v-8h4.65Z"/><path class="cls-2" d="M79.26,15H77v6.57H75.14V15H72.86V13.52h6.4Z"/><path class="cls-3" d="M46.16,28.26c0,.2-.07.38-.07.38h-.43l.54-3.4h.44c-.06.42-.13.83-.2,1.29a1.21,1.21,0,0,1,.69-.37,1,1,0,0,1,1.19.86A1.48,1.48,0,0,1,47.2,28.7.89.89,0,0,1,46.16,28.26Zm.12-.7v.1a.66.66,0,0,0,.92.61,1,1,0,0,0,.67-1.09.65.65,0,0,0-.75-.62A1,1,0,0,0,46.28,27.56Z"/><path class="cls-3" d="M44.53,25.23c-.05.38-.11.73-.16,1.09-.12.73-.26,1.59-.37,2.32h-.43c0-.1,0-.19,0-.31l-.09.08a1.17,1.17,0,0,1-1.24.23,1,1,0,0,1-.58-1,1.56,1.56,0,0,1,.59-1.25,1.08,1.08,0,0,1,1.59.15c0-.3.09-.59.14-.88,0-.13,0-.34.08-.47ZM42.68,28.3h.26l.12,0a1,1,0,0,0,.58-1.46.59.59,0,0,0-.54-.27,1,1,0,0,0-.91,1.24A.62.62,0,0,0,42.68,28.3Z"/><path class="cls-3" d="M33.82,26.23c.08.63.17,1.25.25,1.87.17-.39.34-.78.5-1.17.09-.2.22-.5.3-.7h.46a2,2,0,0,1-.09.2c-.31.69-.7,1.52-1,2.21h-.46c-.09-.6-.17-1.19-.26-1.82a1.16,1.16,0,0,1-.08.16c-.23.51-.52,1.15-.74,1.66h-.46c-.11-.8-.23-1.6-.34-2.41h.44c.07.6.14,1.22.22,1.85l.07-.14c.23-.51.54-1.19.76-1.71Z"/><path class="cls-3" d="M26.57,28.62c.18-1.13.36-2.25.54-3.41a13,13,0,0,1,1.4.07c.57.08.83.55.71,1.17a1.19,1.19,0,0,1-1.22,1c-.24,0-.49,0-.76,0-.06.4-.13.8-.19,1.19ZM27.3,27c.25,0,.48,0,.71,0a.79.79,0,0,0,.74-.9.51.51,0,0,0-.45-.49c-.25,0-.51,0-.77,0C27.45,26.1,27.38,26.56,27.3,27Z"/><path class="cls-3" d="M41.47,27.59H39.63a.63.63,0,0,0,.6.74,1.48,1.48,0,0,0,1-.23l0,.37a3.45,3.45,0,0,1-.33.16,1.64,1.64,0,0,1-.82.08,1,1,0,0,1-.86-.9,1.47,1.47,0,0,1,1-1.61,1.77,1.77,0,0,1,.56,0,.88.88,0,0,1,.79,1A3.8,3.8,0,0,1,41.47,27.59Zm-1.78-.38h1.39a.55.55,0,0,0-.36-.66A.88.88,0,0,0,39.69,27.21Z"/><path class="cls-3" d="M37.46,27.59H35.62a.63.63,0,0,0,.6.74,1.5,1.5,0,0,0,1-.23l0,.37-.33.16a1.64,1.64,0,0,1-.82.08,1,1,0,0,1-.86-.9,1.47,1.47,0,0,1,1-1.61,1.77,1.77,0,0,1,.56,0,.89.89,0,0,1,.79,1C37.5,27.29,37.48,27.43,37.46,27.59Zm-1.78-.38h1.39a.55.55,0,0,0-.36-.66A.87.87,0,0,0,35.68,27.21Z"/><path class="cls-3" d="M29.16,27.59a1.43,1.43,0,0,1,1.7-1.41,1.05,1.05,0,0,1,.84,1.07,1.44,1.44,0,0,1-1.45,1.47A1.06,1.06,0,0,1,29.16,27.59Zm.45,0a.72.72,0,0,0,.35.67.7.7,0,0,0,.76,0,1,1,0,0,0,.51-1,.64.64,0,0,0-.7-.6A1,1,0,0,0,29.61,27.57Z"/><path class="cls-3" d="M48.34,29.69l.33-.57a2.27,2.27,0,0,0,.32-.58,1.92,1.92,0,0,0-.13-.64c-.12-.5-.25-1-.37-1.52,0,0,0-.1,0-.15h.45L49.33,28l.09-.16c.27-.49.62-1.12.88-1.62h.48a1,1,0,0,1-.08.15l-1.87,3.3Z"/><path class="cls-3" d="M38,26.24h.43c0,.11,0,.22-.05.36a.83.83,0,0,1,.89-.36l-.06.37a.82.82,0,0,0-.95.82l-.09.59c0,.2-.07.39-.1.6h-.44l.18-1.19C37.89,27,38,26.65,38,26.24Z"/><path id="path14519" class="cls-2" d="M66.17,25.22h-.9a.26.26,0,0,0-.21.11l-1.24,1.83-.52-1.75a.27.27,0,0,0-.25-.19h-.88a.15.15,0,0,0-.15.2l1,2.91-.93,1.31a.15.15,0,0,0,.13.24h.89a.27.27,0,0,0,.22-.11l3-4.31a.15.15,0,0,0-.13-.24m-6,1.74a1,1,0,0,1-1,.85.69.69,0,0,1-.74-.87,1,1,0,0,1,1-.86.74.74,0,0,1,.59.25.75.75,0,0,1,.15.63m1.25-1.74h-.9a.16.16,0,0,0-.15.13l0,.25-.06-.09a1.29,1.29,0,0,0-1.06-.37,2,2,0,0,0-2,1.79,1.69,1.69,0,0,0,.33,1.37,1.42,1.42,0,0,0,1.13.46,1.7,1.7,0,0,0,1.23-.51l0,.24a.16.16,0,0,0,.16.18h.8a.26.26,0,0,0,.26-.22l.48-3.05a.15.15,0,0,0-.15-.18m-5.36,0c-.1.67-.61.67-1.11.67h-.28l.2-1.25a.16.16,0,0,1,.15-.13h.13c.34,0,.66,0,.82.19a.61.61,0,0,1,.09.52m-.21-1.74H54a.26.26,0,0,0-.26.21L53,28.49a.16.16,0,0,0,.15.18H54a.26.26,0,0,0,.26-.22l.2-1.29a.27.27,0,0,1,.26-.22h.59a1.92,1.92,0,0,0,2.12-1.77A1.45,1.45,0,0,0,57.2,24a1.71,1.71,0,0,0-1.35-.47"/><path id="path14523" class="cls-4" d="M75.76,23.63,75,28.49a.15.15,0,0,0,.15.18h.77a.26.26,0,0,0,.26-.22l.75-4.77a.16.16,0,0,0-.15-.18h-.87a.16.16,0,0,0-.15.13M73.47,27a1,1,0,0,1-1,.85.74.74,0,0,1-.6-.24.78.78,0,0,1-.14-.63,1,1,0,0,1,1-.86.78.78,0,0,1,.6.25.78.78,0,0,1,.15.63m1.24-1.74h-.89a.15.15,0,0,0-.15.13l0,.25-.07-.09a1.26,1.26,0,0,0-1-.37,2,2,0,0,0-2,1.79,1.66,1.66,0,0,0,.33,1.37,1.39,1.39,0,0,0,1.12.46,1.71,1.71,0,0,0,1.24-.51l0,.24a.16.16,0,0,0,.15.18h.81a.25.25,0,0,0,.25-.22l.49-3.05a.16.16,0,0,0-.16-.18m-5.35,0c-.11.67-.62.67-1.11.67H68l.19-1.25a.17.17,0,0,1,.16-.13h.13c.33,0,.65,0,.81.19a.65.65,0,0,1,.1.52m-.22-1.74H67.28a.26.26,0,0,0-.26.21l-.75,4.78a.15.15,0,0,0,.15.18h1a.17.17,0,0,0,.17-.15l.22-1.35A.26.26,0,0,1,68,27h.59a1.91,1.91,0,0,0,2.12-1.77A1.43,1.43,0,0,0,70.5,24a1.75,1.75,0,0,0-1.36-.47"/></svg>