<svg id="Ebene_1" data-name="Ebene 1" xmlns="http://www.w3.org/2000/svg" xmlns:xlink="http://www.w3.org/1999/xlink" viewBox="0 0 85 43"><defs><style>.cls-1{fill:none;}.cls-2,.cls-5{fill:#fff;}.cls-3{clip-path:url(#clip-path);}.cls-4{opacity:0.05;}.cls-5{stroke:#000;stroke-miterlimit:10;stroke-width:3px;}.cls-6{font-size:40px;font-family:MyriadPro-Regular, Myriad Pro;}.cls-7{fill:#4d8814;}</style><clipPath id="clip-path"><rect class="cls-1" width="85" height="43"/></clipPath></defs><title>lastschrift</title><g id="Ebene_2" data-name="Ebene 2"><rect class="cls-2" width="85" height="43"/></g><g class="cls-3"><g class="cls-4"><rect class="cls-5" x="48.24" y="6.67" width="42.07" height="78.92" transform="translate(-9.96 20.65) rotate(-15.84)"/><path d="M64.6,29.73A17.1,17.1,0,0,1,82.53,35.4L75,9,44.66,17.59l7.61,26.84A17.1,17.1,0,0,1,64.6,29.73Z"/><text class="cls-6" transform="translate(53.57 37.32) rotate(74.16)">€</text><rect class="cls-5" x="36.33" y="5.71" width="42.07" height="78.92" transform="translate(-15.04 35.76) rotate(-30.81)"/><path d="M48.62,30.53a17.1,17.1,0,0,1,18.78.84L53.33,7.79,26.22,24l14.29,24A17.08,17.08,0,0,1,48.62,30.53Z"/><path d="M74.32,43A17.09,17.09,0,0,1,47,58.77l14.29,24L88.38,66.56Z"/><text class="cls-6" transform="translate(39.85 40.74) rotate(59.19)">€</text><rect class="cls-5" x="26.51" y="7.53" width="42.07" height="78.92" transform="translate(-19.24 49.96) rotate(-47.21)"/><path d="M35,35.42a17.08,17.08,0,0,1,18.25-4.5L33.12,12.26,11.67,35.43l20.47,19A17.07,17.07,0,0,1,35,35.42Z"/><path d="M63.18,40.09A17.09,17.09,0,0,1,41.42,63l20.47,19L83.34,58.75Z"/><text class="cls-6" transform="matrix(0.73, 0.68, -0.68, 0.73, 29.62, 47.65)">€</text></g></g><path class="cls-7" d="M16.09,25H12.21V18h1.16v6h2.72Z"/><path class="cls-7" d="M23.11,25H21.83l-.63-1.78H18.45L17.84,25H16.57l2.63-7h1.31ZM20.9,22.27l-1-2.79a3,3,0,0,1-.09-.44h0a2.66,2.66,0,0,1-.1.44l-1,2.79Z"/><path class="cls-7" d="M23.75,24.72V23.53a1.94,1.94,0,0,0,.38.26,3.9,3.9,0,0,0,.47.2,4.54,4.54,0,0,0,.5.12,2.68,2.68,0,0,0,.46.05,2,2,0,0,0,1.09-.25A.8.8,0,0,0,27,23.2a.77.77,0,0,0-.12-.43,1.19,1.19,0,0,0-.34-.33,3.3,3.3,0,0,0-.5-.29c-.19-.1-.4-.19-.62-.29l-.67-.39a2.84,2.84,0,0,1-.53-.43,2,2,0,0,1-.36-.54,1.84,1.84,0,0,1-.13-.69A1.69,1.69,0,0,1,24,19a2,2,0,0,1,.59-.6,2.48,2.48,0,0,1,.83-.35,4.61,4.61,0,0,1,2.55.13v1.15a2.55,2.55,0,0,0-1.54-.43,2.21,2.21,0,0,0-.51,0,1.32,1.32,0,0,0-.46.16.85.85,0,0,0-.33.29.72.72,0,0,0-.13.42.89.89,0,0,0,.1.41,1.19,1.19,0,0,0,.29.31,2.15,2.15,0,0,0,.46.27l.62.3a5.68,5.68,0,0,1,.69.4,3.36,3.36,0,0,1,.58.46,2.35,2.35,0,0,1,.39.56,1.8,1.8,0,0,1,.14.71,1.72,1.72,0,0,1-.22.9,1.69,1.69,0,0,1-.57.59,2.6,2.6,0,0,1-.84.34,5.38,5.38,0,0,1-1,.1l-.43,0a4.85,4.85,0,0,1-.53-.08,3.81,3.81,0,0,1-.51-.12A1.52,1.52,0,0,1,23.75,24.72Z"/><path class="cls-7" d="M34,19H32v6H30.83V19h-2V18H34Z"/><path class="cls-7" d="M34.71,24.72V23.53a2.29,2.29,0,0,0,.38.26,3.9,3.9,0,0,0,.47.2l.5.12a2.68,2.68,0,0,0,.46.05,2,2,0,0,0,1.09-.25A.8.8,0,0,0,38,23.2a.77.77,0,0,0-.12-.43,1.29,1.29,0,0,0-.33-.33,3.43,3.43,0,0,0-.51-.29c-.19-.1-.4-.19-.62-.29l-.67-.39a2.84,2.84,0,0,1-.53-.43,2,2,0,0,1-.36-.54,1.84,1.84,0,0,1-.13-.69,1.6,1.6,0,0,1,.23-.86,1.84,1.84,0,0,1,.58-.6,2.56,2.56,0,0,1,.83-.35,4.61,4.61,0,0,1,2.55.13v1.15a2.54,2.54,0,0,0-1.53-.43,2.24,2.24,0,0,0-.52,0,1.4,1.4,0,0,0-.46.16,1,1,0,0,0-.33.29.72.72,0,0,0-.12.42.88.88,0,0,0,.09.41,1.19,1.19,0,0,0,.29.31,2.43,2.43,0,0,0,.46.27l.62.3a6.72,6.72,0,0,1,.7.4,3.7,3.7,0,0,1,.57.46,2.35,2.35,0,0,1,.39.56A2,2,0,0,1,39,24.09a1.82,1.82,0,0,1-.58.59,2.43,2.43,0,0,1-.84.34,5.38,5.38,0,0,1-1,.1l-.43,0A5.24,5.24,0,0,1,35.6,25a3.81,3.81,0,0,1-.51-.12A2,2,0,0,1,34.71,24.72Z"/><path class="cls-7" d="M45.36,24.71a4.29,4.29,0,0,1-2,.41,3.22,3.22,0,0,1-2.44-1A3.55,3.55,0,0,1,40,21.63a3.7,3.7,0,0,1,1-2.71,3.54,3.54,0,0,1,2.61-1,4.35,4.35,0,0,1,1.69.29v1.15a3,3,0,0,0-1.56-.42,2.45,2.45,0,0,0-1.85.73,2.66,2.66,0,0,0-.7,1.94,2.57,2.57,0,0,0,.66,1.85,2.3,2.3,0,0,0,1.73.68,3.06,3.06,0,0,0,1.72-.47Z"/><path class="cls-7" d="M52.31,25H51.15V22h-3.3v3H46.69V18h1.16v2.94h3.3V18h1.16Z"/><path class="cls-7" d="M59.45,25H58.09L57,23.13a5,5,0,0,0-.3-.45,2.09,2.09,0,0,0-.29-.3,1.29,1.29,0,0,0-.33-.17,1.54,1.54,0,0,0-.39-.05H55.2V25H54V18h2.31a3.21,3.21,0,0,1,.9.12,2,2,0,0,1,.73.35,1.73,1.73,0,0,1,.48.59,2,2,0,0,1,.17.83,2.11,2.11,0,0,1-.11.68,1.74,1.74,0,0,1-.31.55,1.94,1.94,0,0,1-.49.41,2.17,2.17,0,0,1-.64.27v0a2.13,2.13,0,0,1,.33.23l.27.27a2.81,2.81,0,0,1,.25.31l.28.4ZM55.2,18.94v2.28h1a1.35,1.35,0,0,0,.5-.09,1,1,0,0,0,.39-.24,1,1,0,0,0,.26-.38,1.31,1.31,0,0,0,.1-.5,1,1,0,0,0-.32-.79,1.38,1.38,0,0,0-.92-.28Z"/><path class="cls-7" d="M61.46,25h-1.2V18h1.2Z"/><path class="cls-7" d="M67,19H64.34v2.1h2.42v1H64.34V25H63.18V18H67Z"/><path class="cls-7" d="M72.79,19h-2v6H69.62V19h-2V18h5.18Z"/></svg>