<svg id="Ebene_1" data-name="Ebene 1" xmlns="http://www.w3.org/2000/svg" viewBox="0 0 85 43"><defs><style>.cls-1{fill:#fff;}.cls-2{fill:#333;}.cls-3{fill:#789ec0;}.cls-4{fill:#336694;}</style></defs><title>payolution</title><g id="Ebene_2" data-name="Ebene 2"><rect class="cls-1" width="85" height="43"/></g><path id="Fill-1" class="cls-2" d="M27.3,28.53l-.13-.44c-.1-.32-.2-.63-.29-1h0c-.1.34-.19.65-.29,1l-.14.44Zm.1.3h-1l-.28.87H25.7l1-2.87h.41l1,2.87h-.39Z"/><path id="Fill-3" class="cls-2" d="M30.17,28.26c.5,0,.74-.18.74-.59s-.25-.55-.74-.55H29.7v1.14Zm-.84-1.43h.88c.64,0,1.07.21,1.07.84s-.44.89-1.07.89H29.7V29.7h-.37Z"/><path id="Fill-5" class="cls-2" d="M32.25,29.47a.87.87,0,0,0,.58-.29v-.59c-.71.09-.95.26-.95.53a.33.33,0,0,0,.37.35m.58-1.12c0-.27-.09-.53-.43-.53a1.2,1.2,0,0,0-.64.22l-.15-.24a1.58,1.58,0,0,1,.84-.28c.52,0,.74.35.74.88v1.3H32.9l0-.25h0a1.22,1.22,0,0,1-.71.3.58.58,0,0,1-.63-.6c0-.46.41-.7,1.31-.8"/><path id="Fill-7" class="cls-2" d="M33.89,30.32c.24,0,.4-.19.48-.46l.05-.15-.85-2.14h.37l.43,1.18c.07.18.15.4.21.6h0c.06-.19.12-.41.18-.6l.38-1.18h.35l-.8,2.31c-.15.42-.37.74-.8.74a.62.62,0,0,1-.25-.05l.07-.28.16,0"/><path id="Fill-9" class="cls-2" d="M35.87,29.22a.93.93,0,0,0,.62.25c.29,0,.43-.14.43-.33s-.26-.31-.49-.4-.64-.26-.64-.62.27-.6.74-.6a1.08,1.08,0,0,1,.66.24L37,28a.81.81,0,0,0-.49-.19c-.27,0-.39.14-.39.31s.23.27.47.36.65.25.65.65-.27.63-.78.63a1.25,1.25,0,0,1-.79-.29Z"/><path id="Fill-11" class="cls-2" d="M38.39,29.47a.92.92,0,0,0,.58-.29v-.59c-.72.09-1,.26-1,.53a.34.34,0,0,0,.38.35M39,28.35c0-.27-.09-.53-.44-.53a1.13,1.13,0,0,0-.63.22l-.15-.24a1.58,1.58,0,0,1,.84-.28c.52,0,.74.35.74.88v1.3H39l0-.25h0a1.16,1.16,0,0,1-.7.3.58.58,0,0,1-.63-.6c0-.46.4-.7,1.31-.8"/><path id="Fill-13" class="cls-2" d="M41,26.87a.69.69,0,0,0-.24-.05c-.2,0-.3.14-.3.41v.34h.45v.3h-.45V29.7h-.36V27.87h-.29v-.28l.29,0v-.34c0-.43.2-.7.63-.7a1,1,0,0,1,.35.07Z"/><path id="Fill-15" class="cls-2" d="M42.58,28.48c0-.44-.19-.68-.52-.68a.68.68,0,0,0-.62.68Zm-.53-1c.54,0,.85.39.85,1,0,.07,0,.14,0,.2H41.45a.7.7,0,0,0,.71.75,1,1,0,0,0,.53-.17l.13.24a1.38,1.38,0,0,1-.71.21,1,1,0,0,1-1-1.11,1,1,0,0,1,1-1.12Z"/><path id="Fill-17" class="cls-2" d="M45.45,26.77a1.06,1.06,0,0,1,.79.36l-.21.23a.77.77,0,0,0-.57-.27c-.55,0-.92.45-.92,1.17s.35,1.17.9,1.17a.84.84,0,0,0,.66-.32l.2.23a1.09,1.09,0,0,1-.87.41c-.72,0-1.26-.55-1.26-1.49a1.33,1.33,0,0,1,1.28-1.49"/><path id="Fill-19" class="cls-2" d="M47.63,29.46c.36,0,.61-.33.61-.82s-.25-.82-.61-.82-.62.33-.62.82.25.82.62.82m0-1.94a1.12,1.12,0,1,1-1,1.12,1,1,0,0,1,1-1.12"/><path id="Fill-21" class="cls-2" d="M49.17,27.57h.3l0,.31h0a.94.94,0,0,1,.66-.36.56.56,0,0,1,.59.41,1,1,0,0,1,.7-.41c.44,0,.65.29.65.83V29.7h-.36V28.4c0-.4-.13-.57-.39-.57a.79.79,0,0,0-.54.33V29.7h-.36V28.4c0-.4-.13-.57-.4-.57a.81.81,0,0,0-.54.33V29.7h-.36Z"/><path id="Fill-23" class="cls-2" d="M53.7,29.45c.35,0,.61-.32.61-.84s-.16-.79-.57-.79a.89.89,0,0,0-.57.29v1.12a.88.88,0,0,0,.53.22Zm-.53.43v.72h-.36v-3h.3l0,.25h0a1.06,1.06,0,0,1,.68-.3c.54,0,.84.42.84,1.09s-.44,1.14-.92,1.14a1,1,0,0,1-.6-.24Z"/><path id="Fill-25" class="cls-2" d="M55.82,29.47a.92.92,0,0,0,.58-.29v-.59c-.72.09-1,.26-1,.53a.34.34,0,0,0,.38.35m.58-1.12c0-.27-.09-.53-.44-.53a1.2,1.2,0,0,0-.64.22l-.14-.24a1.58,1.58,0,0,1,.84-.28c.52,0,.74.35.74.88v1.3h-.3l0-.25h0a1.17,1.17,0,0,1-.71.3.57.57,0,0,1-.62-.6c0-.46.4-.7,1.31-.8"/><path id="Fill-27" class="cls-2" d="M57.44,27.57h.3l0,.31h0a1,1,0,0,1,.72-.36c.45,0,.65.29.65.83V29.7h-.36V28.4c0-.4-.13-.57-.41-.57a.78.78,0,0,0-.58.33V29.7h-.36Z"/><path id="Fill-29" class="cls-2" d="M59.86,30.32c.24,0,.39-.19.48-.46l0-.15-.86-2.14h.38l.43,1.18c.07.18.14.4.21.6h0c.07-.19.13-.41.18-.6l.39-1.18h.35l-.81,2.31c-.14.42-.36.74-.79.74a.62.62,0,0,1-.25-.05l.07-.28.16,0"/><path id="Fill-31" class="cls-3" d="M13.71,17.72l-7.9,3.61s3.1-2.65,1.82-4.84c-.33-.57,6.08,1.23,6.08,1.23"/><path id="Fill-33" class="cls-4" d="M6.37,22.46l7.9-3.61s-3.1,2.66-1.82,4.84c.33.57-6.08-1.23-6.08-1.23"/><path id="Fill-35" class="cls-4" d="M20.27,19.6v-.84c0-.43-.21-.63-.8-.63H18.14v2.12h1.33c.59,0,.8-.21.8-.65Zm-2.13,1.89v1.82H16.6V16.88h2.94c1.7,0,2.25.67,2.25,1.8v1c0,1.16-.63,1.82-2.33,1.82Z"/><path id="Fill-37" class="cls-4" d="M25.7,18,24.76,21h1.88Zm3.2,5.27H27.37L27,22.16H24.4L24,23.31H22.49l2.25-6.43h1.91Z"/><polygon id="Fill-39" class="cls-4" points="31.62 21.46 29.34 16.88 30.89 16.88 32.39 20.02 33.89 16.88 35.45 16.88 33.16 21.46 33.16 23.31 31.62 23.31 31.62 21.46"/><path id="Fill-41" class="cls-4" d="M39.07,18.08c-.9,0-1.22.32-1.22.89v2.25c0,.57.32.89,1.22.89s1.23-.32,1.23-.89V19c0-.57-.32-.89-1.23-.89Zm2.76,3.31c0,1.1-.75,2-2.76,2s-2.76-.94-2.76-2V18.8c0-1.1.76-2,2.76-2s2.76.94,2.76,2Z"/><polygon id="Fill-43" class="cls-4" points="45.1 21.98 47.93 21.98 47.93 23.31 43.56 23.31 43.56 16.88 45.1 16.88 45.1 21.98"/><path id="Fill-45" class="cls-4" d="M54.68,16.88V21.4c0,1-.64,2-2.73,2s-2.72-1-2.72-2V16.88h1.54v4.36c0,.55.28.87,1.18.87s1.19-.32,1.19-.87V16.88Z"/><polygon id="Fill-47" class="cls-4" points="57.88 18.2 55.91 18.2 55.91 16.88 61.38 16.88 61.38 18.2 59.41 18.2 59.41 23.31 57.88 23.31 57.88 18.2"/><polygon id="Fill-49" class="cls-4" points="64.28 23.31 62.74 23.31 62.74 16.88 64.28 16.88 64.28 23.31"/><path id="Fill-51" class="cls-4" d="M68.83,18.08c-.9,0-1.22.32-1.22.89v2.25c0,.57.32.89,1.22.89s1.23-.32,1.23-.89V19c0-.57-.33-.89-1.23-.89Zm2.76,3.31c0,1.1-.75,2-2.76,2s-2.76-.94-2.76-2V18.8c0-1.1.76-2,2.76-2s2.76.94,2.76,2Z"/><polygon id="Fill-53" class="cls-4" points="74.78 18.8 74.78 23.31 73.32 23.31 73.32 16.88 75.19 16.88 77.73 21.4 77.73 16.88 79.19 16.88 79.19 23.31 77.32 23.31 74.78 18.8"/></svg>