<svg id="Ebene_1" data-name="Ebene 1" xmlns="http://www.w3.org/2000/svg" viewBox="0 0 85 43"><defs><style>.cls-1{fill:#fff;}.cls-2{fill:#253b80;}.cls-3{fill:#179bd7;}.cls-4{fill:#222d65;}</style></defs><title>Zeichenfläche 1</title><g id="Ebene_2" data-name="Ebene 2"><rect class="cls-1" width="85" height="43"/></g><path class="cls-2" d="M33.25,16.55H29.19a.56.56,0,0,0-.56.47L27,27.44a.34.34,0,0,0,.33.39h1.94a.56.56,0,0,0,.56-.48l.44-2.81a.57.57,0,0,1,.56-.47H32.1c2.68,0,4.22-1.3,4.63-3.86a3.14,3.14,0,0,0-.52-2.62A3.76,3.76,0,0,0,33.25,16.55Zm.47,3.8c-.22,1.46-1.34,1.46-2.41,1.46h-.62l.43-2.72a.34.34,0,0,1,.34-.29h.28c.73,0,1.42,0,1.78.42A1.37,1.37,0,0,1,33.72,20.35Z"/><path class="cls-2" d="M45.39,20.3h-2a.34.34,0,0,0-.33.29l-.09.54-.13-.19a2.79,2.79,0,0,0-2.3-.82A4.47,4.47,0,0,0,36.25,24,3.68,3.68,0,0,0,37,27a3,3,0,0,0,2.45,1,3.71,3.71,0,0,0,2.69-1.12l-.08.54a.34.34,0,0,0,.33.4h1.75a.58.58,0,0,0,.56-.48l1-6.66A.34.34,0,0,0,45.39,20.3Zm-2.71,3.79A2.17,2.17,0,0,1,40.48,26a1.52,1.52,0,0,1-1.61-1.9,2.18,2.18,0,0,1,2.18-1.87,1.68,1.68,0,0,1,1.3.53A1.73,1.73,0,0,1,42.68,24.09Z"/><path class="cls-2" d="M55.74,20.3h-2a.59.59,0,0,0-.47.25l-2.69,4-1.15-3.81a.57.57,0,0,0-.54-.41H47a.34.34,0,0,0-.32.45l2.15,6.32-2,2.85a.34.34,0,0,0,.28.54h2a.56.56,0,0,0,.46-.24L56,20.84A.34.34,0,0,0,55.74,20.3Z"/><path class="cls-3" d="M62.21,16.55H58.15a.57.57,0,0,0-.56.47L56,27.44a.34.34,0,0,0,.33.39h2.09a.4.4,0,0,0,.39-.34l.46-2.95a.57.57,0,0,1,.56-.47h1.29c2.67,0,4.21-1.3,4.62-3.86a3.14,3.14,0,0,0-.52-2.62A3.76,3.76,0,0,0,62.21,16.55Zm.47,3.8c-.22,1.46-1.34,1.46-2.41,1.46h-.61l.43-2.72a.33.33,0,0,1,.33-.29h.28c.73,0,1.43,0,1.78.42A1.33,1.33,0,0,1,62.68,20.35Z"/><path class="cls-3" d="M74.35,20.3H72.4a.35.35,0,0,0-.33.29l-.09.54-.13-.19a2.77,2.77,0,0,0-2.3-.82A4.47,4.47,0,0,0,65.21,24a3.68,3.68,0,0,0,.73,3,3,3,0,0,0,2.44,1,3.72,3.72,0,0,0,2.7-1.12l-.09.54a.35.35,0,0,0,.33.4h1.75a.57.57,0,0,0,.56-.48l1.05-6.66A.34.34,0,0,0,74.35,20.3Zm-2.71,3.79A2.17,2.17,0,0,1,69.44,26a1.52,1.52,0,0,1-1.61-1.9A2.18,2.18,0,0,1,70,22.18a1.68,1.68,0,0,1,1.3.53A1.7,1.7,0,0,1,71.64,24.09Z"/><path class="cls-3" d="M76.64,16.83,75,27.44a.34.34,0,0,0,.34.39H77a.56.56,0,0,0,.56-.48l1.64-10.41a.33.33,0,0,0-.33-.39H77A.34.34,0,0,0,76.64,16.83Z"/><path class="cls-2" d="M10.13,29.85l.31-2-.69,0H6.44l2.3-14.55a.17.17,0,0,1,.06-.12.28.28,0,0,1,.12,0h5.57c1.85,0,3.13.38,3.79,1.14a2.5,2.5,0,0,1,.61,1.14,4.3,4.3,0,0,1,0,1.57v.45l.31.18a2,2,0,0,1,.63.48,2.26,2.26,0,0,1,.52,1.15,4.87,4.87,0,0,1-.08,1.67,5.85,5.85,0,0,1-.68,1.89A3.84,3.84,0,0,1,18.51,24a4.33,4.33,0,0,1-1.46.66,7.36,7.36,0,0,1-1.83.21h-.43a1.34,1.34,0,0,0-.85.32,1.29,1.29,0,0,0-.44.78l0,.18-.55,3.48,0,.13s0,.06,0,.07l-.06,0Z"/><path class="cls-3" d="M19.5,17.09h0l-.06.33c-.73,3.77-3.25,5.07-6.46,5.07H11.35a.79.79,0,0,0-.78.68h0l-.84,5.3L9.49,30a.42.42,0,0,0,.41.49h2.9a.69.69,0,0,0,.69-.59l0-.15.55-3.46,0-.19a.7.7,0,0,1,.69-.59h.43c2.81,0,5-1.14,5.65-4.44a3.78,3.78,0,0,0-.58-3.34A3,3,0,0,0,19.5,17.09Z"/><path class="cls-4" d="M18.73,16.79a2,2,0,0,0-.35-.09L18,16.63a9.16,9.16,0,0,0-1.44-.11H12.21a.73.73,0,0,0-.3.07.72.72,0,0,0-.39.52L10.59,23l0,.18a.79.79,0,0,1,.78-.68H13c3.21,0,5.73-1.3,6.46-5.07l.06-.33a3.71,3.71,0,0,0-.61-.25Z"/><path class="cls-2" d="M11.52,17.11a.72.72,0,0,1,.39-.52.73.73,0,0,1,.3-.07h4.36a9.16,9.16,0,0,1,1.44.11l.37.07.35.09.16.05a4.85,4.85,0,0,1,.61.25,3.54,3.54,0,0,0-.76-3.2c-.83-.94-2.33-1.35-4.25-1.35H8.92a.79.79,0,0,0-.78.67L5.82,27.92a.47.47,0,0,0,.47.55H9.73L10.59,23Z"/></svg>