<?xml version="1.0" encoding="utf-8"?>
<!-- Generator: Adobe Illustrator 22.0.1, SVG Export Plug-In . SVG Version: 6.00 Build 0)  -->
<svg version="1.1" id="Ebene_1" xmlns="http://www.w3.org/2000/svg" xmlns:xlink="http://www.w3.org/1999/xlink" x="0px" y="0px"
	 viewBox="0 0 85 43" style="enable-background:new 0 0 85 43;" xml:space="preserve">
<style type="text/css">
	.st0{fill:#FCCC12;}
	.st1{fill:none;}
	.st2{fill:#FFFFFF;}
	.st3{fill:#EB1B24;}
	.st4{fill:#231F20;}
</style>
<title>postfinance</title>
<g id="Ebene_2_1_">
	<rect y="0" class="st0" width="85" height="43"/>
</g>
<rect x="-16.4" y="-1.1" class="st1" width="117.8" height="45.3"/>
<path id="path24" class="st2" d="M67.8,27.6l0.8-3.6h-62l-0.8,3.6H67.8"/>
<path id="path26" class="st3" d="M75.2,19.1l0.8-3.8h-5.3c0,0-1.1,5-1.1,5.1h1.3l0.8-3.8h2.6l-0.8,3.8h3.9L77,22.8h-3.9l-0.8,3.6
	h-2.9l-0.3,1.3h4.3l0.8-3.6h3.9l1-4.9H75.2"/>
<path id="path28" class="st4" d="M65.7,20.3c0.5,0,0.9,0.4,0.9,0.9v0.1c0,0.1,0,0.2,0,0.3h-2.4C64.3,20.9,65,20.4,65.7,20.3z
	 M66.9,25l0.3-1.4c-0.5,0.2-1.1,0.3-1.7,0.3c-0.8,0-1.4-0.3-1.5-1.2h4c0.1-0.4,0.2-0.9,0.2-1.4c0.1-1.2-0.8-2.3-2-2.4
	c-0.1,0-0.3,0-0.4,0c-1.9,0-3.4,1.6-3.4,3.5c0,0.1,0,0.1,0,0.2c-0.1,1.4,1,2.5,2.4,2.6c0.1,0,0.3,0,0.4,0
	C65.8,25.3,66.3,25.1,66.9,25z M60.4,23.8c-0.6,0.1-1.2-0.3-1.3-0.9c0-0.1,0-0.2,0-0.3c-0.1-1,0.7-2,1.8-2H61c0.4,0,0.8,0.1,1.2,0.3
	l0.3-1.4c-0.5-0.2-1-0.3-1.5-0.3c-1.9,0-3.4,1.5-3.5,3.3c0,0.1,0,0.1,0,0.2c-0.1,1.3,0.8,2.5,2.1,2.6c0.2,0,0.3,0,0.5,0
	c0.4,0,0.9-0.1,1.3-0.2l0.3-1.4C61.3,23.8,60.9,23.9,60.4,23.8L60.4,23.8z M52.3,25.1l0.7-3c0.3-1.2,0.9-1.6,1.5-1.6
	c0.8,0,0.9,0.6,0.7,1.3l-0.7,3.4h1.7l0.8-3.4c0.4-1.7-0.4-2.6-1.7-2.6c-0.7,0-1.4,0.3-1.9,0.9l0.2-0.7H52l-1.3,5.9L52.3,25.1z
	 M46.2,23.4c0-0.6,0.5-0.9,1.4-0.9c0.3,0,0.6,0,0.9,0.1l-0.2,0.3c-0.2,0.7-0.8,1.1-1.4,1.1C46.4,24,46.2,23.8,46.2,23.4L46.2,23.4z
	 M47.8,19.1c-0.6,0-1.2,0.1-1.8,0.3l-0.3,1.4c0.6-0.2,1.2-0.3,1.8-0.3c0.9,0,1.2,0.3,1.2,0.7c0,0.1,0,0.2,0,0.3v0.1
	c-0.4,0-0.8-0.1-1-0.1c-1.7,0-3,0.6-3,2.2c0,0.9,0.7,1.6,1.6,1.6c0.1,0,0.1,0,0.2,0c0.7,0,1.3-0.3,1.8-0.8l-0.1,0.6h1.5l0.7-3.4
	c0.1-0.3,0.1-0.5,0.1-0.8c0-1-0.6-1.9-2.5-1.9L47.8,19.1z M39.6,25.1l0.7-3c0.3-1.2,0.9-1.6,1.5-1.6c0.8,0,0.9,0.6,0.7,1.3l-0.7,3.4
	h1.7l0.8-3.4c0.4-1.7-0.4-2.6-1.7-2.6c-0.7,0-1.4,0.3-1.9,0.9l0.2-0.7h-1.6L38,25.2L39.6,25.1z M36.6,17.6c0,0.5,0.3,0.9,0.8,0.9
	h0.1c0.5,0,1-0.4,1-1c0-0.5-0.3-0.9-0.8-0.9c0,0,0,0-0.1,0C37,16.6,36.6,17.1,36.6,17.6z M36.3,19.1L35,25.1h1.7l1.3-5.9L36.3,19.1z
	 M31.5,25.1l0.6-3.1h2.6l0.3-1.5h-2.6l0.4-1.9h2.7l0.3-1.5h-4.4l-1.7,8H31.5z M29.9,20.5l0.3-1.3h-1.8l0.4-1.6L27,18l-1.1,5
	c-0.3,1.4,0.5,2.2,1.9,2.2c0.4,0,0.8-0.1,1.2-0.2l0.3-1.3c-0.3,0.1-0.6,0.1-1,0.1c-0.5,0-0.8-0.2-0.7-0.8l0.5-2.6L29.9,20.5
	L29.9,20.5z M23.4,23.4c0,0.5-0.6,0.6-1.1,0.6c-0.6,0-1.1-0.1-1.7-0.3l-0.3,1.4c0.6,0.2,1.2,0.2,1.9,0.2c1.5,0,2.8-0.6,2.8-2
	c0-1.8-2.2-1.5-2.2-2.3c0-0.4,0.4-0.5,0.9-0.5s1,0.1,1.5,0.3l0.3-1.3c-0.5-0.1-1.1-0.2-1.7-0.2c-1.6,0-2.6,0.7-2.6,2
	C21.2,22.9,23.4,22.6,23.4,23.4L23.4,23.4z M17.1,25.3c1.8,0,3.2-1.4,3.4-3.1c0.4-1.3-0.4-2.7-1.7-3.1c-0.3-0.1-0.6-0.1-0.9-0.1
	c-1.8,0-3.2,1.4-3.4,3.1c-0.4,1.3,0.4,2.7,1.7,3C16.5,25.3,16.8,25.3,17.1,25.3L17.1,25.3z M17.2,23.9c-0.7,0-1.2-0.5-1-1.8
	s0.8-1.8,1.5-1.8s1.2,0.5,0.9,1.8S17.8,23.9,17.2,23.9L17.2,23.9z M10.1,22.6h0.8c2.4,0,3.7-1.2,3.7-3.1c0-1.5-1-2.4-2.8-2.4H9.5
	l-1.7,8h1.7L10.1,22.6L10.1,22.6z M10.4,21.1l0.6-2.6h0.7c0.8,0,1.2,0.3,1.2,1.1c0,1-0.6,1.5-1.7,1.5H10.4"/>
</svg>
