<svg id="Ebene_1" data-name="Ebene 1" xmlns="http://www.w3.org/2000/svg" xmlns:xlink="http://www.w3.org/1999/xlink" viewBox="0 0 85 43"><defs><style>.cls-1{fill:#fff;}.cls-2{fill:url(#Unbenannter_Verlauf_3);}.cls-3{fill:url(#Unbenannter_Verlauf_2);}</style><radialGradient id="Unbenannter_Verlauf_3" cx="32.3" cy="31.41" r="0.59" gradientTransform="matrix(19.17, 0, 0, -21.64, -603.61, 697.19)" gradientUnits="userSpaceOnUse"><stop offset="0" stop-color="#fc0"/><stop offset="0.09" stop-color="#ffc800"/><stop offset="0.17" stop-color="#ffbd00"/><stop offset="0.25" stop-color="#ffab00"/><stop offset="0.33" stop-color="#ff9100"/><stop offset="0.4" stop-color="#ff7000"/><stop offset="0.48" stop-color="#ff4700"/><stop offset="0.55" stop-color="#ff1800"/><stop offset="0.58" stop-color="red"/><stop offset="1" stop-color="red"/></radialGradient><radialGradient id="Unbenannter_Verlauf_2" cx="31.88" cy="31.38" r="0.73" gradientTransform="matrix(14.31, 0, 0, -21.67, -447.4, 697.96)" gradientUnits="userSpaceOnUse"><stop offset="0" stop-color="#00b4e6"/><stop offset="0.2" stop-color="#00b0e3"/><stop offset="0.39" stop-color="#01a5db"/><stop offset="0.57" stop-color="#0292cd"/><stop offset="0.75" stop-color="#0377ba"/><stop offset="0.93" stop-color="#0455a1"/><stop offset="1" stop-color="#054696"/></radialGradient></defs><title>Zeichenfläche 1</title><g id="Ebene_2" data-name="Ebene 2"><rect width="85" height="43"/></g><path id="Shape" class="cls-1" d="M26.77,26.94a1.08,1.08,0,0,1-.49.84l-9.41,5.44a1.1,1.1,0,0,1-1,0L6.49,27.78A1.08,1.08,0,0,1,6,26.94V16.06a1.08,1.08,0,0,1,.49-.84L15.9,9.78a1.1,1.1,0,0,1,1,0l9.41,5.44a1.08,1.08,0,0,1,.49.84ZM79,16.84H70.58v2h3v8.61H76V18.86h3Zm-38.26,0H32.3v2h3v8.61h2.38V18.86h3Zm24.38-.33A3.83,3.83,0,0,0,61,20.65v6.82h2.36V20.6a1.72,1.72,0,0,1,1.79-1.88,1.8,1.8,0,0,1,1.79,1.88v6.87h2.35V20.65A3.85,3.85,0,0,0,65.12,16.51Zm-8.9.33V27.47h2.36V16.84Zm-8,4.21.08.48,2.22,5.94h1l3-10.63H52.17l-1.43,5.58-.09.61-.12-.61-1.92-5.58h-.77l-1.92,5.58L45.8,23l-.08-.61-1.43-5.58H42l3,10.63h1l2.22-5.94.07-.48"/><path id="Shape-2" data-name="Shape" class="cls-2" d="M21.29,21.53l-2.46,3.6-1.26-1.92L19,21a2.83,2.83,0,0,0,.18-2.9,3,3,0,0,0-5.47,0A2.77,2.77,0,0,0,13.9,21l1.47,2.18,1.09,1.58,1.64,2.52a1,1,0,0,0,.73.41,1,1,0,0,0,.74-.44l3.85-5.7H21.29v0Zm-4.83.09s-.64-1-1.06-1.66a1.22,1.22,0,1,1,2.12,0C17.11,20.64,16.46,21.62,16.46,21.62Z"/><path class="cls-3" d="M14.1,25l-2.41-3.39s-.64-1-1.06-1.66a1.21,1.21,0,0,1,1.06-1.82,1.08,1.08,0,0,1,.36.05l.85-1.55A3,3,0,0,0,9,18.14,2.77,2.77,0,0,0,9.13,21l4.21,6.25a1,1,0,0,0,.76.45.93.93,0,0,0,.74-.44l1.27-1.93L15,23.72,14.1,25Z"/></svg>