<svg xmlns="http://www.w3.org/2000/svg" xmlns:xlink="http://www.w3.org/1999/xlink" viewBox="0 0 85 43"><defs><style>.cls-1{fill:none;}.cls-2,.cls-5{fill:#fff;}.cls-3{clip-path:url(#clip-path);}.cls-4{opacity:0.05;}.cls-5,.cls-6{stroke:#000;stroke-miterlimit:10;}.cls-7{fill:#4d8814;}</style><clipPath id="clip-path"><rect class="cls-1" width="85" height="43"/></clipPath></defs><title>collectionbycustomer</title><g id="Ebene_1" data-name="Ebene 1"><g id="Ebene_2" data-name="Ebene 2"><rect class="cls-2" width="85" height="43"/></g><g class="cls-3"><g class="cls-4"><polygon class="cls-5" points="19.57 7.98 52.26 -9.45 86.13 8.66 86.02 38.22 52.08 57.22 19.46 38.66 19.57 7.98"/><polygon class="cls-6" points="63.18 -3.61 30.99 14.27 30.57 26.39 42.73 33 42.96 21.63 76.57 3.55 63.18 -3.61"/><line class="cls-5" x1="19.57" y1="7.98" x2="30.99" y2="14.27"/><polyline class="cls-5" points="42.96 21.63 51.94 26.85 86.13 8.66"/><line class="cls-5" x1="51.94" y1="26.85" x2="52.08" y2="57.22"/></g></g></g><g id="Ebene_2-2" data-name="Ebene 2"><path class="cls-7" d="M10.78,19.71a4.26,4.26,0,0,1-2,.41,3.24,3.24,0,0,1-2.44-1,3.52,3.52,0,0,1-.91-2.53,3.66,3.66,0,0,1,1-2.71,3.54,3.54,0,0,1,2.61-1,4.26,4.26,0,0,1,1.68.29v1.15a3,3,0,0,0-1.56-.42,2.46,2.46,0,0,0-1.84.73,2.66,2.66,0,0,0-.71,1.94,2.57,2.57,0,0,0,.66,1.85,2.32,2.32,0,0,0,1.73.68,3,3,0,0,0,1.72-.47Z"/><path class="cls-7" d="M15,20.12a3.14,3.14,0,0,1-2.42-1,3.62,3.62,0,0,1-.92-2.56,3.81,3.81,0,0,1,.93-2.69,3.27,3.27,0,0,1,2.52-1,3.1,3.1,0,0,1,2.38,1,3.61,3.61,0,0,1,.9,2.55,3.85,3.85,0,0,1-.92,2.71A3.2,3.2,0,0,1,15,20.12Zm.05-6.22a1.93,1.93,0,0,0-1.56.72,2.86,2.86,0,0,0-.6,1.89,2.87,2.87,0,0,0,.58,1.88A1.9,1.9,0,0,0,15,19.1a2,2,0,0,0,1.59-.68,2.8,2.8,0,0,0,.58-1.9,3,3,0,0,0-.56-1.93A1.92,1.92,0,0,0,15.07,13.9Z"/><path class="cls-7" d="M23.72,20H19.84V13H21v6h2.72Z"/><path class="cls-7" d="M28.76,20H24.88V13H26v6h2.72Z"/><path class="cls-7" d="M33.85,20H29.92V13h3.77v1H31.08v2h2.41v1H31.08V19h2.77Z"/><path class="cls-7" d="M40.13,19.71a4.32,4.32,0,0,1-2,.41,3.21,3.21,0,0,1-2.44-1,3.53,3.53,0,0,1-.92-2.53,3.66,3.66,0,0,1,1-2.71,3.54,3.54,0,0,1,2.61-1,4.35,4.35,0,0,1,1.69.29v1.15a3.05,3.05,0,0,0-1.57-.42,2.48,2.48,0,0,0-1.84.73,2.66,2.66,0,0,0-.7,1.94,2.56,2.56,0,0,0,.65,1.85,2.33,2.33,0,0,0,1.74.68,3.06,3.06,0,0,0,1.72-.47Z"/><path class="cls-7" d="M46.1,14h-2v6H42.92V14h-2V13H46.1Z"/><path class="cls-7" d="M48.46,20H47.27V13h1.19Z"/><path class="cls-7" d="M53.22,20.12a3.14,3.14,0,0,1-2.42-1,3.61,3.61,0,0,1-.91-2.56,3.85,3.85,0,0,1,.92-2.69,3.27,3.27,0,0,1,2.52-1,3.08,3.08,0,0,1,2.38,1,3.61,3.61,0,0,1,.9,2.55,3.85,3.85,0,0,1-.92,2.71A3.2,3.2,0,0,1,53.22,20.12Zm.06-6.22a1.94,1.94,0,0,0-1.57.72,2.86,2.86,0,0,0-.6,1.89,2.87,2.87,0,0,0,.58,1.88,2.1,2.1,0,0,0,3.12,0,2.81,2.81,0,0,0,.59-1.9,2.92,2.92,0,0,0-.57-1.93A1.9,1.9,0,0,0,53.28,13.9Z"/><path class="cls-7" d="M64,20H62.71l-3.34-5.15a1.71,1.71,0,0,1-.21-.4h0a8.39,8.39,0,0,1,0,1V20H58V13H59.4l3.23,5c.14.21.22.36.26.43h0a6.47,6.47,0,0,1,0-.94V13H64Z"/><path class="cls-7" d="M68.77,20V13H71a2.69,2.69,0,0,1,1.61.44,1.41,1.41,0,0,1,.59,1.16,1.64,1.64,0,0,1-.34,1,1.77,1.77,0,0,1-.93.62v0a1.82,1.82,0,0,1,1.15.53A1.66,1.66,0,0,1,73.51,18a1.76,1.76,0,0,1-.71,1.45A2.76,2.76,0,0,1,71,20Zm1.15-6.07v2h.75a1.42,1.42,0,0,0,1-.28,1,1,0,0,0,.35-.81q0-.9-1.2-.9Zm0,2.93v2.21h1a1.52,1.52,0,0,0,1-.3,1,1,0,0,0,.35-.82c0-.73-.5-1.09-1.51-1.09Z"/><path class="cls-7" d="M79.54,13l-2.29,4.46V20H76.09V17.48L73.85,13h1.32l1.38,3s.07.17.15.41h0a4.12,4.12,0,0,1,.16-.41l1.44-3Z"/><path class="cls-7" d="M21.53,29.71a4.29,4.29,0,0,1-2,.41,3.22,3.22,0,0,1-2.44-1,3.55,3.55,0,0,1-.92-2.53,3.66,3.66,0,0,1,1-2.71,3.54,3.54,0,0,1,2.61-1,4.29,4.29,0,0,1,1.68.29v1.15A3,3,0,0,0,20,23.9a2.43,2.43,0,0,0-1.84.73,2.68,2.68,0,0,0-.71,1.94,2.57,2.57,0,0,0,.66,1.85,2.32,2.32,0,0,0,1.73.68,3,3,0,0,0,1.72-.47Z"/><path class="cls-7" d="M28.4,27.17c0,2-.94,2.95-2.8,2.95s-2.67-.95-2.67-2.84V23h1.16v4c0,1.38.53,2.06,1.6,2.06s1.54-.66,1.54-2V23H28.4Z"/><path class="cls-7" d="M29.87,29.72V28.53a2.29,2.29,0,0,0,.38.26,3.9,3.9,0,0,0,.47.2,4.54,4.54,0,0,0,.5.12,2.68,2.68,0,0,0,.46.05,1.89,1.89,0,0,0,1.09-.25.8.8,0,0,0,.36-.71.77.77,0,0,0-.12-.43,1.29,1.29,0,0,0-.33-.33,4,4,0,0,0-.51-.29c-.19-.1-.4-.19-.62-.29l-.67-.39a2.84,2.84,0,0,1-.53-.43A2,2,0,0,1,30,25.5a1.81,1.81,0,0,1-.13-.69,1.6,1.6,0,0,1,.23-.86,1.84,1.84,0,0,1,.58-.6A2.48,2.48,0,0,1,31.5,23a4.61,4.61,0,0,1,2.55.13v1.15a2.55,2.55,0,0,0-1.54-.43,2.94,2.94,0,0,0-.51,0,1.4,1.4,0,0,0-.46.16,1,1,0,0,0-.33.29.72.72,0,0,0-.13.42.89.89,0,0,0,.1.41,1.19,1.19,0,0,0,.29.31,2.43,2.43,0,0,0,.46.27l.62.3a5.68,5.68,0,0,1,.69.4,3.36,3.36,0,0,1,.58.46,2.35,2.35,0,0,1,.39.56,2,2,0,0,1-.07,1.61,1.82,1.82,0,0,1-.58.59,2.51,2.51,0,0,1-.84.34,5.38,5.38,0,0,1-1,.1l-.43,0a5.24,5.24,0,0,1-.53-.08,3.81,3.81,0,0,1-.51-.12A1.71,1.71,0,0,1,29.87,29.72Z"/><path class="cls-7" d="M40.28,24h-2v6H37.1V24h-2V23h5.18Z"/><path class="cls-7" d="M43.92,30.12a3.16,3.16,0,0,1-2.42-1,3.61,3.61,0,0,1-.91-2.56,3.81,3.81,0,0,1,.93-2.69,3.23,3.23,0,0,1,2.51-1,3.08,3.08,0,0,1,2.38,1,3.61,3.61,0,0,1,.9,2.55,3.85,3.85,0,0,1-.92,2.71A3.2,3.2,0,0,1,43.92,30.12ZM44,23.9a2,2,0,0,0-1.57.72,2.86,2.86,0,0,0-.6,1.89,2.87,2.87,0,0,0,.58,1.88,1.9,1.9,0,0,0,1.54.71,2,2,0,0,0,1.59-.68,2.86,2.86,0,0,0,.58-1.9,2.92,2.92,0,0,0-.57-1.93A1.88,1.88,0,0,0,44,23.9Z"/><path class="cls-7" d="M56.27,30H55.11V25.47c0-.37,0-.83.07-1.36h0a4.41,4.41,0,0,1-.19.66L52.88,30h-.8L50,24.81a5.78,5.78,0,0,1-.19-.7h0c0,.28,0,.73,0,1.37V30H48.75V23h1.63l1.84,4.66c.14.36.23.63.28.8h0c.12-.37.22-.64.29-.82L54.69,23h1.58Z"/><path class="cls-7" d="M62.07,30H58.14V23h3.77v1H59.3v2h2.41v1H59.3V29h2.77Z"/><path class="cls-7" d="M68.87,30H67.52L66.4,28.13a3.51,3.51,0,0,0-.3-.45,1.66,1.66,0,0,0-.29-.3,1.41,1.41,0,0,0-.32-.17,1.62,1.62,0,0,0-.4-.05h-.47V30H63.46V23h2.31a3.28,3.28,0,0,1,.91.12,2,2,0,0,1,.72.35,1.71,1.71,0,0,1,.48.59,1.81,1.81,0,0,1,.17.83,1.87,1.87,0,0,1-.11.68,1.57,1.57,0,0,1-.31.55,1.78,1.78,0,0,1-.49.41,2.17,2.17,0,0,1-.64.27v0a1.74,1.74,0,0,1,.33.23,3.44,3.44,0,0,1,.27.27,2,2,0,0,1,.25.31l.28.4Zm-4.25-6.06v2.28h1a1.3,1.3,0,0,0,.49-.09,1,1,0,0,0,.4-.24,1.16,1.16,0,0,0,.26-.38,1.31,1.31,0,0,0,.09-.5,1,1,0,0,0-.32-.79,1.36,1.36,0,0,0-.91-.28Z"/></g></svg>