<?xml version="1.0" encoding="utf-8"?>
<!-- Generator: Adobe Illustrator 22.0.1, SVG Export Plug-In . SVG Version: 6.00 Build 0)  -->
<svg version="1.1" id="Ebene_1" xmlns="http://www.w3.org/2000/svg" xmlns:xlink="http://www.w3.org/1999/xlink" x="0px" y="0px"
	 viewBox="0 0 85 43" style="enable-background:new 0 0 85 43;" xml:space="preserve">
<style type="text/css">
	.st0{fill:#FFCC07;}
	.st1{clip-path:url(#SVGID_2_);}
	.st2{fill:#FFFFFF;}
	.st3{fill:#D80613;}
</style>
<title>dhl-express</title>
<g>
	<g id="Ebene_2_1_">
		<rect x="0" class="st0" width="85" height="43"/>
	</g>
	<g>
		<defs>
			<rect id="SVGID_1_" x="0" y="0.8" width="85" height="42"/>
		</defs>
		<clipPath id="SVGID_2_">
			<use xlink:href="#SVGID_1_"  style="overflow:visible;"/>
		</clipPath>
		<g class="st1">
			<path class="st2" d="M-5.4,22v-0.9H7.4L6.8,22H-5.4z"/>
			<path class="st2" d="M-5.4,20.2v-0.9H8.7l-0.6,0.9H-5.4z"/>
			<path class="st2" d="M-5.4,23.8v-0.9H6.1l-0.6,0.9H-5.4z"/>
			<path class="st2" d="M77.6,22l0.6-0.9h12.1V22H77.6z"/>
			<path class="st2" d="M77,22.9h13.4v0.9H76.3L77,22.9z"/>
			<path class="st2" d="M79.6,19.3h10.8v0.9H79L79.6,19.3z"/>
			<path class="st2" d="M7.2,23.8l6.1-8.3h7.6c0.4,0,0.5,0.1,0.6,0.2c0.1,0.1,0,0.3-0.3,0.6l-0.7,0.9c-0.3,0.4-0.6,0.9-0.9,1.2
				s-0.3,0.4-0.2,0.6c0.1,0.2,0.4,0.3,1,0.3h10.1c-1.9,2.8-5.1,4.4-8.5,4.4L7.2,23.8"/>
			<path class="st2" d="M30.3,23.8c0.4-0.6,3-4.1,3.3-4.4h8.7L39,23.8H30.3"/>
			<path class="st2" d="M43,23.8c0.4-0.6,3-4.1,3.3-4.4H55l-3.3,4.4H43"/>
			<path class="st2" d="M60.5,23.8c-1.9,0-3.3-0.5-3.7-1.4c-0.3-0.6-0.2-1.3,0.3-1.8c0.6-0.9,0.9-1.2,0.9-1.3h19.9l-3.3,4.4H60.5"/>
			<path class="st2" d="M24.6,18.2c-0.6,0-0.8-0.1-0.9-0.2c0-0.1,0.1-0.4,0.2-0.5c0.1-0.2,0.5-0.7,0.8-1.1l0.8-1
				c0.3-0.4,0.3-0.6,0.3-0.7s-0.3-0.2-0.7-0.2H8.4l3-4h17.7c2.1,0,3.7,0.8,4.5,2.2c0.5,0.9,0.5,2-0.1,2.9c-0.8,1.2-1.9,2.5-2,2.7
				L24.6,18.2L24.6,18.2z"/>
			<path class="st2" d="M34.4,18.2l5.8-7.9h8.7l-3.4,4.6h4.1l3.4-4.6h8.7l-5.8,7.9H34.4z"/>
			<path class="st2" d="M58.8,18.2l5.8-7.9h9.2L68,18.2H58.8"/>
			<path class="st2" d="M26.4,32.6l3.6-4.9h2.8l-0.4,0.5h-2.1l-1.2,1.6h2l-0.4,0.5h-2l-1.3,1.8h2.2l-0.4,0.5L26.4,32.6z"/>
			<path class="st2" d="M30.1,32.6l3.7-2.5v-2.4h0.8v2l2.9-2h0.7L34.7,30v2.6h-0.8v-2.2l-3.1,2.2L30.1,32.6z"/>
			<path class="st2" d="M38.1,30.1h0.8c0.7,0,1.3-0.3,1.7-0.9c0.2-0.3,0.2-0.5,0.2-0.6c-0.2-0.2-0.4-0.4-0.7-0.3h-0.7L38.1,30.1
				 M35.6,32.6l3.6-4.9h1.3c0.6,0,1,0.1,1.1,0.4s0,0.6-0.3,1c-0.7,0.9-1.8,1.5-2.9,1.5h-0.8l-1.5,2H35.6"/>
			<path class="st2" d="M42.6,29.9h0.7c0.7,0,1.3-0.3,1.8-0.8c0.2-0.2,0.2-0.4,0.2-0.6c-0.1-0.2-0.3-0.3-0.7-0.3h-0.8L42.6,29.9
				 M42.8,32.6l0.5-1.7c0.1-0.1,0.1-0.3,0-0.4c-0.1-0.1-0.3-0.1-0.5-0.1h-0.5l-1.6,2.2H40l3.6-4.9h1.2c0.5,0,1.2,0,1.3,0.3
				s0,0.5-0.3,0.9c-0.4,0.6-1.1,1-1.8,1.1l0,0l0,0.1l0,0c0.1,0.1,0.2,0.1,0.1,0.4l-0.5,1.9L42.8,32.6L42.8,32.6z"/>
			<path class="st2" d="M44.7,32.6l3.6-4.9h2.8l-0.4,0.5h-2.2l-1.1,1.6h2L49,30.3h-2l-1.3,1.8h2.2l-0.4,0.5L44.7,32.6z"/>
			<path class="st2" d="M49.5,32.7c-0.3,0-0.6-0.1-0.8-0.2l0.5-0.5c0.3,0.1,0.6,0.2,0.9,0.2c0.7,0,1.3-0.3,1.7-0.8
				c0.1-0.1,0.2-0.3,0.2-0.5c0-0.2-0.2-0.4-0.5-0.5c-0.2-0.1-0.4-0.3-0.5-0.5c0-0.3,0.1-0.6,0.3-0.8c0.6-0.8,1.6-1.3,2.6-1.3
				c0.3,0,0.6,0,0.9,0.1l-0.5,0.6c-0.2-0.1-0.5-0.2-0.8-0.2c-0.6,0-1.1,0.2-1.4,0.7c-0.1,0.1-0.2,0.3-0.1,0.4c0,0.2,0.2,0.4,0.4,0.5
				s0.5,0.3,0.5,0.6c0,0.3-0.1,0.6-0.3,0.9C51.8,32.2,50.7,32.8,49.5,32.7"/>
			<path class="st2" d="M53.3,32.7c-0.3,0-0.6-0.1-0.8-0.2L53,32c0.3,0.1,0.6,0.2,0.9,0.2c0.6,0,1.3-0.3,1.7-0.8
				c0.1-0.1,0.2-0.3,0.2-0.5c0-0.2-0.2-0.4-0.5-0.5c-0.2-0.1-0.4-0.3-0.5-0.5c0-0.3,0.1-0.6,0.3-0.8c0.6-0.8,1.6-1.3,2.6-1.3
				c0.3,0,0.6,0,0.9,0.1L58,28.4c-0.3-0.1-0.5-0.2-0.8-0.2c-0.6,0-1.1,0.2-1.4,0.7c-0.1,0.1-0.2,0.3-0.1,0.4c0,0.2,0.2,0.4,0.4,0.5
				s0.5,0.3,0.5,0.6c0,0.3-0.1,0.6-0.3,0.9C55.5,32.2,54.4,32.8,53.3,32.7"/>
			<path class="st2" d="M-5.5,32.1h95.9v0.6H-5.5V32.1z"/>
			<path class="st2" d="M-5.5,27.6h95.9v0.6H-5.5V27.6z"/>
			<path class="st2" d="M-5.5,29.9h95.9v0.6H-5.5V29.9z"/>
			<path class="st3" d="M26.3,32.7h2.9l0.5-0.6h-2.2l1.2-1.6h2l0.5-0.6h-2l1.1-1.5h2.2l0.5-0.6H30L26.3,32.7z"/>
			<path class="st3" d="M29.9,32.7h0.9l3-2.1v2.1h0.9V30l3.5-2.4h-0.8l-2.8,1.9v-1.9h-0.9V30L29.9,32.7z"/>
			<path class="st3" d="M35.5,32.7h0.8l1.5-2h0.7c1.2,0,2.3-0.6,2.9-1.5c0.8-1.1,0.2-1.5-0.9-1.5h-1.4L35.5,32.7 M39.4,28.3h0.6
				c0.5,0,1,0.2,0.5,0.9c-0.4,0.5-1,0.9-1.7,0.9h-0.7L39.4,28.3"/>
			<path class="st3" d="M43.8,28.3h0.7c0.7,0,0.8,0.3,0.5,0.7c-0.4,0.5-1,0.8-1.7,0.8h-0.6L43.8,28.3 M39.9,32.7h0.8l1.6-2.2h0.4
				c0.4,0,0.6,0,0.5,0.5l-0.5,1.7h0.8l0.5-2c0.1-0.3,0-0.4-0.1-0.5l0,0c0.8-0.1,1.4-0.5,1.9-1.1c0.9-1.2,0-1.4-1-1.4h-1.3L39.9,32.7
				"/>
			<path class="st3" d="M44.6,32.7h2.9L48,32h-2.2l1.2-1.6h2l0.5-0.6h-2l1.1-1.5h2.2l0.5-0.6h-2.9L44.6,32.7z"/>
			<path class="st3" d="M54.8,27.7c-0.3-0.1-0.7-0.2-1-0.2c-1.1,0-2,0.5-2.7,1.4c-1.1,1.5,1.3,1.2,0.5,2.4c-0.4,0.5-1,0.8-1.6,0.8
				c-0.3,0-0.6-0.1-0.9-0.3l-0.5,0.7c0.3,0.1,0.6,0.2,0.9,0.2c1.2,0,2.3-0.5,3-1.5c1.2-1.6-1.2-1.4-0.5-2.4c0.3-0.4,0.9-0.7,1.4-0.7
				c0.3,0,0.6,0.1,0.8,0.2L54.8,27.7"/>
			<path class="st3" d="M58.6,27.7c-0.3-0.1-0.7-0.2-1-0.2c-1,0-2,0.5-2.7,1.4c-1.1,1.5,1.3,1.2,0.5,2.4c-0.4,0.5-1,0.8-1.6,0.8
				c-0.3,0-0.6-0.1-0.9-0.3l-0.5,0.7c0.3,0.1,0.6,0.2,0.9,0.2c1.2,0,2.3-0.5,3-1.5c1.2-1.6-1.2-1.4-0.5-2.4c0.3-0.4,0.9-0.7,1.4-0.7
				c0.3,0,0.6,0.1,0.8,0.2L58.6,27.7"/>
			<path class="st3" d="M-5.5,21.1h13l-0.7,1H-5.5V21.1z"/>
			<path class="st3" d="M-5.5,19.3H8.8l-0.7,1H-5.5V19.3z"/>
			<path class="st3" d="M-5.5,22.9H6.2l-0.7,1H-5.5V22.9z"/>
			<path class="st3" d="M90.4,22H77.5l0.7-1h12.2V22z"/>
			<path class="st3" d="M90.4,23.8H76.2l0.7-1h13.5V23.8z"/>
			<path class="st3" d="M79.6,19.3h10.9v1H78.8L79.6,19.3z"/>
			<path class="st3" d="M7.1,23.8l6.2-8.4h7.6c0.9,0,0.8,0.3,0.4,0.9l-1.6,2.1c-0.2,0.3-0.6,0.8,0.7,0.8h10.2
				c-2,2.8-5.1,4.5-8.6,4.6L7.1,23.8L7.1,23.8z"/>
			<path class="st3" d="M42.3,19.3L39,23.8h-8.8l3.3-4.5L42.3,19.3z"/>
			<path class="st3" d="M55.1,19.3l-3.3,4.5h-8.8l3.3-4.5L55.1,19.3z"/>
			<path class="st3" d="M58,19.3l-1,1.3c-1.1,1.5-0.1,3.2,3.5,3.2h14.1l3.4-4.5H58"/>
			<path class="st3" d="M11.4,10.3l-3.1,4.2H25c0.9,0,0.8,0.3,0.4,0.9s-1.1,1.6-1.6,2.1c-0.2,0.3-0.6,0.8,0.7,0.8h6.8
				c0,0,1.1-1.5,2-2.7c1.3-1.7,0.1-5.3-4.4-5.3L11.4,10.3L11.4,10.3z"/>
			<path class="st3" d="M55.8,18.3H34.3l5.9-8H49l-3.4,4.6h3.9l3.4-4.6h8.8L55.8,18.3z"/>
			<path class="st3" d="M73.9,10.3l-5.9,8h-9.3l5.9-8H73.9z"/>
		</g>
	</g>
</g>
</svg>
