<?xml version="1.0" encoding="utf-8"?>
<!-- Generator: Adobe Illustrator 22.0.1, SVG Export Plug-In . SVG Version: 6.00 Build 0)  -->
<svg version="1.1" id="Ebene_1" xmlns="http://www.w3.org/2000/svg" xmlns:xlink="http://www.w3.org/1999/xlink" x="0px" y="0px"
	 viewBox="0 0 85 43" style="enable-background:new 0 0 85 43;" xml:space="preserve">
<style type="text/css">
	.st0{fill:#FFFFFF;}
	.st1{fill:#FFCC07;}
	.st2{fill:#027C38;}
	.st3{fill:#878888;}
	.st4{fill:#D80613;}
	.st5{fill:#007A38;}
</style>
<g id="Ebene_2_2_">
	<rect y="18.3" class="st0" width="85" height="24.8"/>
</g>
<title>Zeichenfläche 1</title>
<rect x="8" y="24.9" class="st1" width="76.7" height="10.1"/>
<g id="Ebene_2_1_">
	<rect class="st1" width="85" height="18.3"/>
</g>
<path class="st2" d="M72.8,24.9l-2.9,10l0,0H67c-0.1-0.7-0.2-1.3-0.2-2l-0.5-4.1l-0.2-1c-0.1,0.1-0.1,0.1-0.1,0.2
	c-0.4,1.5-0.9,3.1-1.3,4.6c-0.2,0.8-0.4,1.6-0.7,2.3h-2.1c0-0.1,0-0.1,0-0.2c0.7-2.2,1.3-4.5,1.9-6.7c0.3-1.1,0.6-2.1,0.9-3.2h2.9
	l0.3,1.9c0.2,1.6,0.5,3.2,0.7,4.9c0,0.1,0,0.1,0.1,0.1l2-6.9L72.8,24.9z M40.3,24.9h4.6c0.2,0,0.4,0.1,0.6,0.2
	c0.9,0.2,1.4,1.1,1.2,2c0,0,0,0,0,0c-0.2,1.3-1.1,2.5-2.4,2.8L43.9,30c0.5,0.2,0.7,0.4,0.8,0.8c0,0.1,0.1,0.3,0.1,0.4
	c0.1,1.2,0.1,2.5,0.2,3.7h-2.6c0-0.8,0-1.5,0-2.3c0-0.4,0-0.8-0.1-1.2c0-0.2-0.2-0.4-0.4-0.5c-0.2,0-0.5-0.1-0.7-0.1
	c-0.1,0.4-0.2,0.7-0.3,1l-0.9,3h-2.5l0.8-2.9L40.3,24.9z M42.2,26.6l-0.7,2.6h0.8c0.8,0,1.5-0.6,1.7-1.5c0.1-0.4-0.1-0.9-0.5-1
	c-0.1,0-0.2,0-0.3,0C42.9,26.7,42.5,26.7,42.2,26.6L42.2,26.6z"/>
<path class="st3" d="M22.7,35c-0.6,0.1-1.2,0.2-1.8,0.2c-0.4,0-0.7-0.1-1.1-0.2h-0.1c-1.1-0.4-1.8-1.5-1.8-2.7
	c0-1.2,0.2-2.4,0.7-3.5c0.5-1.3,1.4-2.5,2.6-3.2c0.5-0.2,0.9-0.5,1.4-0.7c0.5-0.1,0.9-0.1,1.4-0.2c0.5,0,1,0,1.5,0.2
	c0.3,0.2,0.6,0.3,0.9,0.5c0.6,0.6,1,1.4,1,2.2c0,1.2-0.2,2.4-0.7,3.5c-0.3,0.8-0.8,1.6-1.5,2.2C24.6,34.1,23.7,34.7,22.7,35z
	 M20.5,32c0,0.3,0.1,0.5,0.1,0.8c0.1,0.4,0.4,0.6,0.8,0.7c0.5,0.1,1,0,1.4-0.3c0.4-0.3,0.7-0.6,0.9-1c0.5-0.9,0.9-1.8,1.1-2.8
	c0.1-0.6,0.2-1.1,0.1-1.7c-0.1-0.6-0.6-1.1-1.3-1.1c0,0,0,0,0,0h-0.1c-0.4,0-0.8,0.2-1.1,0.5c-0.4,0.4-0.8,0.9-1,1.4
	C20.9,29.5,20.6,30.8,20.5,32L20.5,32z"/>
<path class="st2" d="M34.4,35c-0.6,0-1.2,0.1-1.7,0.2c-0.7,0-1.4,0-2.1-0.2c0,0-0.1,0-0.1-0.1c-1.3-0.4-2.2-1.6-2.2-3
	c0-0.7,0.1-1.4,0.3-2c0.5-1.9,1.9-3.5,3.7-4.4c0.4-0.2,0.9-0.3,1.4-0.5c0.8-0.2,1.6-0.2,2.4-0.1c0.4,0,0.9,0.1,1.3,0.1l0.7,0.2
	l-0.7,2L37.1,27c-1.2-0.6-2.5-0.6-3.7,0c-1.6,1-2.6,2.8-2.5,4.7c0,0.8,0.6,1.5,1.5,1.6c0.3,0,0.6,0,0.9,0c0.5,0,0.5,0,0.7-0.6
	l0.5-1.8H33l0.5-1.7h3.7c0,0.1,0,0.1,0,0.2c-0.5,1.7-1,3.4-1.5,5c0,0.1-0.1,0.2-0.2,0.2L34.4,35z"/>
<path class="st3" d="M14.1,35c-0.6,0-1.1,0.1-1.7,0.2c-0.7,0.1-1.4,0-2.1-0.2h-0.1c-1.2-0.3-2-1.2-2.2-2.4c0,0,0,0-0.1,0v-1.5
	c0,0,0,0,0.1-0.1c0.1-0.3,0.1-0.7,0.2-1c0.5-2,1.8-3.7,3.7-4.6c0.4-0.2,0.9-0.3,1.4-0.5c0.8-0.2,1.6-0.2,2.4-0.1
	c0.4,0,0.9,0.1,1.3,0.2l0.8,0.2l-0.7,2L16.9,27c-1.2-0.6-2.6-0.6-3.8,0c-0.9,0.5-1.6,1.4-2,2.4c-0.3,0.7-0.5,1.5-0.4,2.4
	c0.1,0.6,0.5,1.2,1.1,1.4c0.5,0.2,1,0.2,1.5,0.1c0.2,0,0.3-0.1,0.3-0.3c0.1-0.6,0.3-1.2,0.5-1.8c0-0.1,0-0.2,0.1-0.3h-1.4l0.5-1.7
	h3.7v0.1c-0.5,1.7-1,3.4-1.5,5.1c0,0.1-0.1,0.2-0.3,0.2L14.1,35z"/>
<path class="st2" d="M60.3,35H54c0-0.1,0-0.1,0-0.2c0.6-2.2,1.2-4.3,1.9-6.5l1-3.4h6l-0.5,1.8h-3.7l-0.6,2.2h3.5l-0.5,1.8h-3.5
	l-0.7,2.5h3.8L60.3,35z M52.5,35h-6.2c0-0.1,0-0.1,0-0.2l1.8-6.3c0.3-1.2,0.7-2.4,1-3.6h6l-0.5,1.8H51l-0.6,2.2h3.5l-0.5,1.8h-3.5
	l-0.7,2.5H53L52.5,35z"/>
<path class="st4" d="M16.1,3.1l-2.6,3.5h14.2c0.7,0,0.7,0.3,0.4,0.8s-1,1.3-1.3,1.8c-0.2,0.3-0.5,0.7,0.6,0.7h5.8l1.7-2.3
	c1.1-1.4,0.1-4.4-3.7-4.4L16.1,3.1z"/>
<path class="st4" d="M12.5,14.6l5.2-7.1h6.5c0.7,0,0.7,0.3,0.4,0.8L23.2,10c-0.2,0.2-0.5,0.7,0.6,0.7h8.7c-1.7,2.4-4.4,3.8-7.3,3.8
	L12.5,14.6z M42.4,10.7l-2.8,3.9h-7.5l2.8-3.9H42.4z M53.8,9.9H35.6l5-6.8H48L45.2,7h3.3l2.9-3.9h7.5L53.8,9.9z M53.2,10.7l-2.8,3.9
	h-7.5l2.8-3.9H53.2z M0,12.3h12.9l-0.6,0.8H0V12.3z M0,10.7h14l-0.6,0.8H0V10.7z M0,13.7h11.7l-0.6,0.8H0V13.7z M85,13H72.2l0.6-0.8
	H85V13z M85,14.5H71.1l0.6-0.8H85V14.5z M73.9,10.7H85v0.8H73.3L73.9,10.7z M69.1,3.1l-5,6.8h-7.9l5-6.8L69.1,3.1z M55.6,10.7
	l-0.8,1.1c-0.9,1.3-0.1,2.7,3,2.7h12l2.8-3.8H55.6z"/>
<path class="st5" d="M0,17.9V43h85V17.9H0z M84.3,35.6c0,0.1,0,0.2,0,0.3v6.3H0.8V18.7h83.4c0,0.1,0,0.1,0,0.2v6.9v0.3L84.3,35.6z"
	/>
</svg>
