<svg id="Ebene_1" data-name="Ebene 1" xmlns="http://www.w3.org/2000/svg" xmlns:xlink="http://www.w3.org/1999/xlink" viewBox="0 0 85 43"><defs><style>.cls-1{fill:#fff;}.cls-2{fill:#404041;}.cls-3{fill:url(#Unbenannter_Verlauf_2);}</style><linearGradient id="Unbenannter_Verlauf_2" x1="7.62" y1="11.81" x2="20.94" y2="22.99" gradientTransform="matrix(1, 0, 0, -1, 0, 44)" gradientUnits="userSpaceOnUse"><stop offset="0" stop-color="#c00c3e"/><stop offset="0.11" stop-color="#c60e3d"/><stop offset="0.66" stop-color="#de1736"/><stop offset="1" stop-color="#e71a34"/></linearGradient></defs><title>dpd</title><g id="Ebene_2" data-name="Ebene 2"><rect class="cls-1" width="85" height="43"/></g><path class="cls-2" d="M52.94,28.72a18.72,18.72,0,0,1-4.54.52c-3.84,0-6.39-2-6.39-5.78a5.51,5.51,0,0,1,5.84-5.84A5.19,5.19,0,0,1,50,18V12.83h3Zm-3-8.11a4.33,4.33,0,0,0-1.85-.35,2.85,2.85,0,0,0-3,3.1,3.1,3.1,0,0,0,3.44,3.32A7.82,7.82,0,0,0,50,26.55Zm27.56,8.11a18.77,18.77,0,0,1-4.54.52c-3.84,0-6.39-2-6.39-5.78a5.51,5.51,0,0,1,5.84-5.84,5.22,5.22,0,0,1,2.1.35V12.83h3Zm-3-8.11a4.38,4.38,0,0,0-1.85-.35,2.85,2.85,0,0,0-3,3.1,3.11,3.11,0,0,0,3.45,3.32,7.9,7.9,0,0,0,1.45-.13Zm-16.87,0a5.25,5.25,0,0,1,1.8-.28,2.84,2.84,0,0,1,3.11,3,3,3,0,0,1-3.29,3.31v2.62h.15c3.87,0,6.19-2.17,6.19-6,0-3.52-2.47-5.59-6.11-5.59a13.5,13.5,0,0,0-4.87.92v15h3Z"/><path class="cls-3" d="M25.77,19.85a.49.49,0,0,1-.44,0l-.71-.43a.41.41,0,0,1-.16-.16h0a.49.49,0,0,1-.08-.23l0-.83a.5.5,0,0,1,.22-.38l8.55-5-12-6.55a1.17,1.17,0,0,0-1,0l-12,6.55,13.45,7.83a.47.47,0,0,1,.22.37V32.46a.48.48,0,0,1-.23.37l-.73.4a.38.38,0,0,1-.21.05h0a.37.37,0,0,1-.23-.05l-.72-.4a.46.46,0,0,1-.23-.37V22.27a.28.28,0,0,0-.12-.2L7.49,15.17V28.69a1.06,1.06,0,0,0,.48.82l12.2,7.2a1.06,1.06,0,0,0,.95,0l12.2-7.2a1.06,1.06,0,0,0,.48-.82V15.17Z"/></svg>