<svg id="Ebene_1" data-name="Ebene 1" xmlns="http://www.w3.org/2000/svg" viewBox="0 0 85 43"><defs><style>.cls-1{fill:#fff;}.cls-2{fill:#565655;}.cls-3{fill:#0089d1;}.cls-4{fill:#e74c09;}</style></defs><title>liefery</title><g id="Ebene_2" data-name="Ebene 2"><rect class="cls-1" width="85" height="43"/></g><path class="cls-2" d="M15.11,37.07V30.56c0-.11,0-.13.13-.13h1c.18,0,.16,0,.16.15v5.06c0,.15,0,.15.16.15h2.92c.14,0,.14,0,.14.14v1s0,.08,0,.11Z"/><path class="cls-2" d="M23.68,30.43s0,0,0,0S23.67,30.44,23.68,30.43Z"/><path class="cls-2" d="M24.94,30.56c0-.1,0-.13-.12-.13H23.75c-.06,0-.09,0-.09.09v6.55h1.25a.37.37,0,0,0,0-.11C24.93,34.83,24.93,32.69,24.94,30.56Z"/><path class="cls-2" d="M67.16,34a.2.2,0,0,1,0-.13l2.66-3.4,0,0v0H68.27l0,0-.72.94-1,1.22c-.06.08-.08.07-.13,0a3.4,3.4,0,0,0-.23-.3l-1.46-1.88H63.09a.16.16,0,0,0,0,.07l.86,1.1,1,1.22c.25.33.5.66.77,1a.7.7,0,0,1,.16.46c0,.93,0,1.87,0,2.8h1.28V34Z"/><polygon class="cls-2" points="29 30.44 29 30.44 29 30.44 29 30.44"/><path class="cls-2" d="M33.49,36.65v-.27c0-.15,0-.29,0-.44v-.09c0-.05,0-.06-.11-.06h-3s-.06,0-.07,0h0s0,0,0,0h0s0,0,0-.07V34.5s0,0,0-.07h0s0,0,0,0h0s.07,0,.11,0h2.32V33.13a.28.28,0,0,0-.13,0H30.39a.15.15,0,0,1-.11,0h0s0,0,0-.06V31.78h0a.06.06,0,0,1,0,0h3.19a.31.31,0,0,0,0-.08V30.5s0-.06-.06-.07H29v6.63h4.48s0-.11,0-.17Z"/><path class="cls-2" d="M50.6,36.65a2.43,2.43,0,0,1,0-.27c0-.15,0-.29,0-.44v-.09c0-.05-.05-.06-.11-.06h-3s-.05,0-.06,0h0s0,0,0,0h0a.17.17,0,0,1,0-.07V34.5a.17.17,0,0,1,0-.07h0s0,0,0,0h0s.07,0,.11,0h2.22c.09,0,.11,0,.11-.1v-1.1s0-.07-.09-.07H47.5a.15.15,0,0,1-.11,0h0s0,0,0-.06c0-.42,0-.84,0-1.26h0s0,0,0-.05h3.19s0-.06,0-.09V30.5a.08.08,0,0,0-.07-.07H46.18s-.08,0-.08.09v6.55h4.48a1,1,0,0,1,0-.17Z"/><path class="cls-2" d="M42,30.69V30.5a.07.07,0,0,0-.06-.07H37.63c-.06,0-.08,0-.08.09v6.55h1.26s0-.08,0-.12V34.53s0-.08,0-.11h2.39V33.13H38.83a.13.13,0,0,1,0-.06V31.79s0-.05,0-.06H42s0-.06,0-.09Z"/><path class="cls-2" d="M60.46,36.81c-.51-.83-1-1.68-1.47-2.52,0-.07,0-.11,0-.14a1.4,1.4,0,0,0,.42-.3,2,2,0,0,0,.61-1.34.49.49,0,0,0,0-.17,2,2,0,0,0-1.84-1.9H54.77c-.07,0-.12,0-.11.1v6.54h1.26V34.58c0-.17,0-.17.18-.17h1.39a.13.13,0,0,1,.13.06l1.5,2.6h1.49Zm-2.28-3.69h-.3c-.61,0-1.22,0-1.83,0-.09,0-.12,0-.12-.12,0-.39,0-.79,0-1.18,0-.1,0-.12.12-.12h2a.69.69,0,0,1,.7.64A.71.71,0,0,1,58.18,33.12Z"/><path class="cls-2" d="M54.68,30.43s0,0,0,0Z"/><path class="cls-3" d="M51.55,14.66v-.23s0-.11,0-.16v-.13s0-.07,0-.1a2.87,2.87,0,0,1,0-.31,7.57,7.57,0,0,0-.38-1.63,7.92,7.92,0,0,0-.72-1.6,9,9,0,0,0-1.24-1.69,9.46,9.46,0,0,0-1.1-1,9.16,9.16,0,0,0-2.45-1.35A9,9,0,0,0,43.4,6s-.08,0-.12,0h-.21a8.61,8.61,0,0,0-2.58.2,9.17,9.17,0,0,0-6.73,6.45,7.22,7.22,0,0,0-.26,1.52s0,.09,0,.13v.15c0,.08,0,.16,0,.23v.68c0,.08,0,.16,0,.24v.15s0,.08,0,.13a5,5,0,0,0,.11.87A10.25,10.25,0,0,0,34,18a9.5,9.5,0,0,0,.61,1.34,7.86,7.86,0,0,0,1.2,1.67A9.74,9.74,0,0,0,37,22.16a10,10,0,0,0,1.26.81c.52.27,1,.53,1.52.84a7.78,7.78,0,0,1,1.17.88,8.27,8.27,0,0,1,.9,1,7.46,7.46,0,0,1,.6.87s0,0,0,0,0,0,0,0l.2-.33a8.4,8.4,0,0,1,1.39-1.59,8.77,8.77,0,0,1,1.95-1.31,12.19,12.19,0,0,0,1.28-.7,9.1,9.1,0,0,0,3.72-4.73,10.09,10.09,0,0,0,.43-2s0-.07,0-.11v-.12s0-.11,0-.16v-.23Q51.57,15,51.55,14.66Zm-9,6.94a6.63,6.63,0,1,1,6.63-6.49A6.61,6.61,0,0,1,42.5,21.6Z"/><path class="cls-4" d="M40.31,17.06A6.5,6.5,0,0,1,40,16.2a6.13,6.13,0,0,1-.32-2,5.08,5.08,0,0,1,1.49-3.5,7.32,7.32,0,0,1,1.35-1.09c0,.11-.06.2-.08.3a4.12,4.12,0,0,0,.17,2.81,3.76,3.76,0,0,0,1.31,1.51c.05,0,.08,0,.12,0a2.06,2.06,0,0,1,1.09-.49,1.67,1.67,0,0,1,1.3.41.87.87,0,0,0,.61.22,2.78,2.78,0,0,1,.79.13l-.39.14a3.18,3.18,0,0,0-1.92,2.09,2.69,2.69,0,0,1-.49,1,1.53,1.53,0,0,1-1,.52,7,7,0,0,1-1.52,0,5.68,5.68,0,0,0-1.54.09,3.82,3.82,0,0,0-2,1.18c0,.06-.07,0-.1,0a5.65,5.65,0,0,1-1.12-1.22l-.06-.09c-.12-.18-.12-.18.05-.32a3.73,3.73,0,0,1,1.43-.62,7.1,7.1,0,0,1,1.14-.14Z"/></svg>