<svg id="Ebene_1" data-name="Ebene 1" xmlns="http://www.w3.org/2000/svg" xmlns:xlink="http://www.w3.org/1999/xlink" viewBox="0 0 85 43"><defs><style>.cls-1{fill:none;}.cls-2,.cls-5{fill:#fff;}.cls-3{clip-path:url(#clip-path);}.cls-4{opacity:0.05;}.cls-5,.cls-6{stroke:#000;stroke-miterlimit:10;}.cls-7{fill:#4d8814;}</style><clipPath id="clip-path"><rect class="cls-1" width="85" height="43"/></clipPath></defs><title>spedition</title><g id="Ebene_2" data-name="Ebene 2"><rect class="cls-2" width="85" height="43"/></g><g class="cls-3"><g class="cls-4"><polygon class="cls-5" points="19.57 7.98 52.26 -9.45 86.13 8.66 86.02 38.22 52.08 57.22 19.46 38.66 19.57 7.98"/><polygon class="cls-6" points="63.18 -3.61 30.99 14.27 30.57 26.39 42.73 33 42.96 21.63 76.57 3.55 63.18 -3.61"/><line class="cls-5" x1="19.57" y1="7.98" x2="30.99" y2="14.27"/><polyline class="cls-5" points="42.96 21.63 51.94 26.85 86.13 8.66"/><line class="cls-5" x1="51.94" y1="26.85" x2="52.08" y2="57.22"/></g></g><path class="cls-7" d="M18.1,24.72V23.53a2.81,2.81,0,0,0,.38.26A3.45,3.45,0,0,0,19,24a4.37,4.37,0,0,0,.49.12,2.68,2.68,0,0,0,.46.05A1.89,1.89,0,0,0,21,23.91a.8.8,0,0,0,.36-.71.77.77,0,0,0-.12-.43,1.29,1.29,0,0,0-.33-.33,3,3,0,0,0-.51-.29c-.19-.1-.4-.19-.62-.29s-.46-.26-.66-.39a2.62,2.62,0,0,1-.54-.43,1.73,1.73,0,0,1-.35-.54,1.63,1.63,0,0,1-.13-.69,1.6,1.6,0,0,1,.22-.86,2,2,0,0,1,.58-.6,2.56,2.56,0,0,1,.83-.35,3.81,3.81,0,0,1,.95-.12,3.77,3.77,0,0,1,1.6.25v1.15a2.54,2.54,0,0,0-1.53-.43,2.24,2.24,0,0,0-.52,0,1.4,1.4,0,0,0-.46.16,1,1,0,0,0-.33.29.72.72,0,0,0-.12.42.88.88,0,0,0,.09.41,1.05,1.05,0,0,0,.29.31,3.71,3.71,0,0,0,.46.28l.63.29a7.76,7.76,0,0,1,.69.4,3.7,3.7,0,0,1,.57.46,2.35,2.35,0,0,1,.39.56,1.64,1.64,0,0,1,.14.71,1.81,1.81,0,0,1-.21.9,1.72,1.72,0,0,1-.58.59A2.43,2.43,0,0,1,21,25a5.3,5.3,0,0,1-1,.1l-.43,0A5.24,5.24,0,0,1,19,25a3.66,3.66,0,0,1-.5-.12A1.42,1.42,0,0,1,18.1,24.72Z"/><path class="cls-7" d="M25,22.46V25H23.87V18H26a2.82,2.82,0,0,1,1.87.56,2,2,0,0,1,.67,1.58,2.2,2.2,0,0,1-.7,1.67,2.6,2.6,0,0,1-1.87.65ZM25,19v2.55h.76a1.66,1.66,0,0,0,1.13-.34,1.24,1.24,0,0,0,.39-1c0-.82-.47-1.23-1.43-1.23Z"/><path class="cls-7" d="M33.64,25H29.71V18h3.78v1H30.87v2h2.41v1H30.87V24h2.77Z"/><path class="cls-7" d="M34.89,25V18h2q3.87,0,3.87,3.41A3.4,3.4,0,0,1,39.71,24a4.14,4.14,0,0,1-2.88,1ZM36,19v5H37a2.63,2.63,0,0,0,1.91-.67,2.59,2.59,0,0,0,.68-1.91C39.56,19.8,38.71,19,37,19Z"/><path class="cls-7" d="M43.25,25H42.06V18h1.19Z"/><path class="cls-7" d="M49.47,19h-2v6H46.29V19h-2V18h5.18Z"/><path class="cls-7" d="M51.68,25H50.49V18h1.19Z"/><path class="cls-7" d="M56.29,25.12a3.17,3.17,0,0,1-2.42-1A3.61,3.61,0,0,1,53,21.58a3.81,3.81,0,0,1,.93-2.69,3.24,3.24,0,0,1,2.52-1,3.08,3.08,0,0,1,2.37,1,3.61,3.61,0,0,1,.9,2.55,3.81,3.81,0,0,1-.92,2.71A3.2,3.2,0,0,1,56.29,25.12Zm.06-6.22a2,2,0,0,0-1.57.72,2.86,2.86,0,0,0-.6,1.89,2.86,2.86,0,0,0,.59,1.88,1.87,1.87,0,0,0,1.53.71,2,2,0,0,0,1.59-.68,2.86,2.86,0,0,0,.58-1.9,2.92,2.92,0,0,0-.57-1.93A1.88,1.88,0,0,0,56.35,18.9Z"/><path class="cls-7" d="M66.9,25H65.63l-3.34-5.15a3,3,0,0,1-.21-.4h0a6.5,6.5,0,0,1,0,1V25H61V18h1.35l3.23,5c.14.21.23.36.27.43h0a6.9,6.9,0,0,1,0-.94V18H66.9Z"/></svg>