<svg id="Ebene_1" data-name="Ebene 1" xmlns="http://www.w3.org/2000/svg" viewBox="0 0 85 43"><defs><style>.cls-1{fill:#3a1d00;}.cls-2{fill:#fcbf00;}</style></defs><title>ups</title><g id="Ebene_2" data-name="Ebene 2"><rect class="cls-1" width="85" height="43"/></g><path class="cls-2" d="M51.75,36.78v1.49H52v-.62h0s.41.62.41.62h.31s-.41-.59-.45-.66a.37.37,0,0,0,.35-.38.45.45,0,0,0-.49-.45Zm.41.21c.24,0,.24.1.24.21s-.07.24-.34.24h0V37Zm1,.55a1,1,0,1,1-1-1A1,1,0,0,1,53.19,37.54Zm-1-1.24a1.21,1.21,0,1,0,1.21,1.21A1.22,1.22,0,0,0,52.19,36.3ZM42.5,38.75c-.9-.38-8.21-3.59-10.59-5.52A10.86,10.86,0,0,1,28,24.54V7.46A30.65,30.65,0,0,1,42.5,4.25,30.65,30.65,0,0,1,57,7.46V24.54a10.86,10.86,0,0,1-3.9,8.69C50.78,35.13,43.36,38.37,42.5,38.75Z"/><path class="cls-1" d="M29.36,24.54a9.49,9.49,0,0,0,3.41,7.65c2,1.63,8,4.35,9.76,5.11,1.7-.76,7.73-3.45,9.77-5.11a9.5,9.5,0,0,0,3.41-7.65V7.84c-8.48-.8-18.45-.31-26.35,6.93Zm1.27-1V15.57h2.52v8c0,.73.17,1.76,1.35,1.76a2,2,0,0,0,1.2-.31V15.6h2.52V26.54a6.68,6.68,0,0,1-3.79,1C31.91,27.54,30.63,26.19,30.63,23.5ZM42,32.68H39.5V16.22a6.09,6.09,0,0,1,3.41-.9c3,0,4.66,2.28,4.66,6S46,27.5,43.16,27.5A4.13,4.13,0,0,1,42,27.36Zm0-15.15a2.2,2.2,0,0,1,.89-.17c1.45,0,2.07,1.17,2.07,4s-.69,4.11-2.14,4.11a2.48,2.48,0,0,1-.82-.14Zm6.1,1.11a3.34,3.34,0,0,1,3.38-3.28,4.25,4.25,0,0,1,2.76.83v2.2a3.26,3.26,0,0,0-2.24-1c-.72,0-1.45.31-1.48,1.21s.72,1.27,1.65,1.83c2.11,1.24,2.52,2.34,2.45,3.83A3.4,3.4,0,0,1,51,27.61a5.3,5.3,0,0,1-2.76-.8V24.5a4,4,0,0,0,2.41,1,1.36,1.36,0,0,0,1.52-1.42c0-.79-.48-1.21-1.59-1.86C48.5,21,48.12,20,48.12,18.64Z"/></svg>