<svg id="Ebene_1" data-name="Ebene 1" xmlns="http://www.w3.org/2000/svg" xmlns:xlink="http://www.w3.org/1999/xlink" viewBox="0 0 85 43"><defs><style>.cls-1{fill:none;}.cls-2,.cls-5{fill:#fff;}.cls-3{clip-path:url(#clip-path);}.cls-4{opacity:0.05;}.cls-5{stroke:#000;stroke-miterlimit:10;stroke-width:3px;}.cls-6{font-size:40px;font-family:MyriadPro-Regular, Myriad Pro;}.cls-7{fill:#4d8814;}</style><clipPath id="clip-path"><rect class="cls-1" width="85" height="43"/></clipPath></defs><title>vorkasse</title><g id="Ebene_2" data-name="Ebene 2"><rect class="cls-2" width="85" height="43"/></g><g class="cls-3"><g class="cls-4"><rect class="cls-5" x="48.24" y="6.67" width="42.07" height="78.92" transform="translate(-9.96 20.65) rotate(-15.84)"/><path d="M64.6,29.73A17.1,17.1,0,0,1,82.53,35.4L75,9,44.66,17.59l7.61,26.84A17.1,17.1,0,0,1,64.6,29.73Z"/><text class="cls-6" transform="translate(53.57 37.32) rotate(74.16)">€</text><rect class="cls-5" x="36.33" y="5.71" width="42.07" height="78.92" transform="translate(-15.04 35.76) rotate(-30.81)"/><path d="M48.62,30.53a17.1,17.1,0,0,1,18.78.84L53.33,7.79,26.22,24l14.29,24A17.08,17.08,0,0,1,48.62,30.53Z"/><path d="M74.32,43A17.09,17.09,0,0,1,47,58.77l14.29,24L88.38,66.56Z"/><text class="cls-6" transform="translate(39.85 40.74) rotate(59.19)">€</text><rect class="cls-5" x="26.51" y="7.53" width="42.07" height="78.92" transform="translate(-19.24 49.96) rotate(-47.21)"/><path d="M35,35.42a17.08,17.08,0,0,1,18.25-4.5L33.12,12.26,11.67,35.43l20.47,19A17.07,17.07,0,0,1,35,35.42Z"/><path d="M63.18,40.09A17.09,17.09,0,0,1,41.42,63l20.47,19L83.34,58.75Z"/><text class="cls-6" transform="matrix(0.73, 0.68, -0.68, 0.73, 29.62, 47.65)">€</text></g></g><path class="cls-7" d="M24.48,18,22,25h-1.3L18.2,18h1.27l1.73,5.31a4,4,0,0,1,.13.59h0a3.28,3.28,0,0,1,.15-.6L23.25,18Z"/><path class="cls-7" d="M28.26,25.12a3.18,3.18,0,0,1-2.43-1,3.66,3.66,0,0,1-.91-2.56,3.81,3.81,0,0,1,.93-2.69,3.27,3.27,0,0,1,2.52-1,3.1,3.1,0,0,1,2.38,1,3.61,3.61,0,0,1,.9,2.55,3.81,3.81,0,0,1-.93,2.71A3.16,3.16,0,0,1,28.26,25.12Zm0-6.22a1.93,1.93,0,0,0-1.56.72,2.86,2.86,0,0,0-.61,1.89,2.86,2.86,0,0,0,.59,1.88,1.87,1.87,0,0,0,1.53.71,2,2,0,0,0,1.59-.68,2.8,2.8,0,0,0,.58-1.9,3,3,0,0,0-.56-1.93A1.92,1.92,0,0,0,28.31,18.9Z"/><path class="cls-7" d="M38.34,25H37l-1.11-1.87a3.51,3.51,0,0,0-.3-.45,2.09,2.09,0,0,0-.29-.3,1.29,1.29,0,0,0-.33-.17,1.54,1.54,0,0,0-.39-.05h-.47V25H32.93V18h2.31a3.16,3.16,0,0,1,.9.12,2,2,0,0,1,.73.35,1.84,1.84,0,0,1,.48.59,2,2,0,0,1,.17.83,1.87,1.87,0,0,1-.11.68,1.74,1.74,0,0,1-.31.55,1.94,1.94,0,0,1-.49.41,2.17,2.17,0,0,1-.64.27v0a1.74,1.74,0,0,1,.33.23,3.44,3.44,0,0,1,.27.27,2.81,2.81,0,0,1,.25.31l.28.4Zm-4.25-6.06v2.28h1a1.3,1.3,0,0,0,.49-.09,1,1,0,0,0,.39-.24.92.92,0,0,0,.26-.38,1.15,1.15,0,0,0,.1-.5,1,1,0,0,0-.32-.79,1.37,1.37,0,0,0-.91-.28Z"/><path class="cls-7" d="M44.45,25H42.94l-2.43-3.2a1.07,1.07,0,0,1-.17-.25h0V25H39.16V18h1.16v3.29h0a1.36,1.36,0,0,1,.17-.24L42.85,18h1.4L41.5,21.36Z"/><path class="cls-7" d="M51,25H49.74l-.63-1.78H46.36L45.75,25H44.49l2.62-7h1.31Zm-2.21-2.73-1-2.79c0-.09-.06-.24-.09-.44h0a2.66,2.66,0,0,1-.1.44l-1,2.79Z"/><path class="cls-7" d="M51.66,24.72V23.53a2.29,2.29,0,0,0,.38.26,3.9,3.9,0,0,0,.47.2,4.54,4.54,0,0,0,.5.12,2.68,2.68,0,0,0,.46.05,1.89,1.89,0,0,0,1.09-.25.8.8,0,0,0,.36-.71.77.77,0,0,0-.12-.43,1.29,1.29,0,0,0-.33-.33,4,4,0,0,0-.51-.29c-.19-.1-.4-.19-.62-.29l-.67-.39a2.84,2.84,0,0,1-.53-.43,2,2,0,0,1-.36-.54,1.81,1.81,0,0,1-.13-.69,1.6,1.6,0,0,1,.23-.86,1.84,1.84,0,0,1,.58-.6,2.48,2.48,0,0,1,.83-.35,4.61,4.61,0,0,1,2.55.13v1.15a2.55,2.55,0,0,0-1.54-.43,2.21,2.21,0,0,0-.51,0,1.4,1.4,0,0,0-.46.16,1,1,0,0,0-.33.29.72.72,0,0,0-.13.42.89.89,0,0,0,.1.41,1.05,1.05,0,0,0,.29.31,3.09,3.09,0,0,0,.46.28l.62.29a5.68,5.68,0,0,1,.69.4,3.36,3.36,0,0,1,.58.46,2.35,2.35,0,0,1,.39.56,2,2,0,0,1-.07,1.61,1.82,1.82,0,0,1-.58.59,2.6,2.6,0,0,1-.84.34,5.38,5.38,0,0,1-1,.1l-.43,0a5.24,5.24,0,0,1-.53-.08,3.81,3.81,0,0,1-.51-.12A1.35,1.35,0,0,1,51.66,24.72Z"/><path class="cls-7" d="M57.1,24.72V23.53a2.4,2.4,0,0,0,.39.26A2.89,2.89,0,0,0,58,24a4.37,4.37,0,0,0,.49.12,2.68,2.68,0,0,0,.46.05,1.92,1.92,0,0,0,1.1-.25.82.82,0,0,0,.35-.71.77.77,0,0,0-.12-.43,1.29,1.29,0,0,0-.33-.33,3,3,0,0,0-.51-.29c-.19-.1-.4-.19-.62-.29s-.46-.26-.66-.39a2.62,2.62,0,0,1-.54-.43,1.73,1.73,0,0,1-.35-.54,1.63,1.63,0,0,1-.13-.69,1.6,1.6,0,0,1,.22-.86,1.88,1.88,0,0,1,.59-.6,2.42,2.42,0,0,1,.82-.35,3.81,3.81,0,0,1,1-.12,3.74,3.74,0,0,1,1.6.25v1.15a2.54,2.54,0,0,0-1.53-.43,2.29,2.29,0,0,0-.52,0,1.27,1.27,0,0,0-.45.16.85.85,0,0,0-.33.29.66.66,0,0,0-.13.42.78.78,0,0,0,.1.41,1,1,0,0,0,.28.31,3.71,3.71,0,0,0,.46.28l.63.29a7.76,7.76,0,0,1,.69.4,2.94,2.94,0,0,1,.57.46,2.35,2.35,0,0,1,.39.56,1.64,1.64,0,0,1,.14.71,1.81,1.81,0,0,1-.21.9,1.72,1.72,0,0,1-.58.59A2.43,2.43,0,0,1,60,25a5.3,5.3,0,0,1-1,.1l-.43,0A4.67,4.67,0,0,1,58,25a3.81,3.81,0,0,1-.51-.12A1.42,1.42,0,0,1,57.1,24.72Z"/><path class="cls-7" d="M66.8,25H62.87V18h3.77v1H64v2h2.41v1H64V24H66.8Z"/></svg>